<?plantuml 1.2026.2beta3?><svg xmlns="http://www.w3.org/2000/svg" xmlns:xlink="http://www.w3.org/1999/xlink" contentStyleType="text/css" data-diagram-type="CLASS" height="686px" preserveAspectRatio="none" style="width:1156px;height:686px;background:#FEFEFE;" version="1.1" viewBox="0 0 1156 686" width="1156px" zoomAndPan="magnify"><title>Adapter Pattern - AFTER (With Adapter Pattern)</title><defs/><g><rect fill="#FEFEFE" height="686" style="stroke:none;stroke-width:1;" width="1156" x="0" y="0"/><g class="title" data-source-line="1"><text fill="#000000" font-family="sans-serif" font-size="14" font-weight="bold" lengthAdjust="spacing" textLength="380.7959" x="380.9889" y="22.9951">Adapter Pattern - AFTER (With Adapter Pattern)</text></g><!--class PaymentProcessor--><g class="entity" data-qualified-name="PaymentProcessor" data-source-line="5" id="ent0002"><rect fill="#E1FFE4" height="96.8906" rx="2.5" ry="2.5" style="stroke:#181818;stroke-width:0.5;" width="266.5908" x="309" y="218.1869"/><ellipse cx="373.0938" cy="234.1869" fill="#B4A7E5" rx="11" ry="11" style="stroke:#181818;stroke-width:1;"/><path d="M369.0156,229.9525 L369.0156,227.7963 L376.4063,227.7963 L376.4063,229.9525 L373.9375,229.9525 L373.9375,238.0306 L376.4063,238.0306 L376.4063,240.1869 L369.0156,240.1869 L369.0156,238.0306 L371.4844,238.0306 L371.4844,229.9525 L369.0156,229.9525 Z " fill="#000000"/><text fill="#000000" font-family="sans-serif" font-size="14" font-style="italic" lengthAdjust="spacing" textLength="129.9033" x="393.5938" y="239.0336">PaymentProcessor</text><line style="stroke:#181818;stroke-width:0.5;" x1="310" x2="574.5908" y1="250.1869" y2="250.1869"/><line style="stroke:#181818;stroke-width:0.5;" x1="310" x2="574.5908" y1="258.1869" y2="258.1869"/><g data-visibility-modifier="PUBLIC_METHOD"><ellipse cx="320" cy="271.8353" fill="#84BE84" rx="3" ry="3" style="stroke:#038048;stroke-width:1;"/></g><text fill="#000000" font-family="sans-serif" font-size="14" lengthAdjust="spacing" textLength="183.9893" x="329" y="275.182">isPaymentValid(): boolean</text><g data-visibility-modifier="PUBLIC_METHOD"><ellipse cx="320" cy="288.1322" fill="#84BE84" rx="3" ry="3" style="stroke:#038048;stroke-width:1;"/></g><text fill="#000000" font-family="sans-serif" font-size="14" lengthAdjust="spacing" textLength="239.8047" x="329" y="291.4789">processPayment(double): boolean</text><g data-visibility-modifier="PUBLIC_METHOD"><ellipse cx="320" cy="304.4291" fill="#84BE84" rx="3" ry="3" style="stroke:#038048;stroke-width:1;"/></g><text fill="#000000" font-family="sans-serif" font-size="14" lengthAdjust="spacing" textLength="240.5908" x="329" y="307.7757">getPaymentMethodName(): String</text></g><!--class CreditCardAdapter--><g class="entity" data-qualified-name="CreditCardAdapter" data-source-line="11" id="ent0003"><rect fill="#E1FFE4" height="129.4844" rx="2.5" ry="2.5" style="stroke:#181818;stroke-width:0.5;" width="266.5908" x="7" y="384.2269"/><ellipse cx="70.4478" cy="400.2269" fill="#ADD1B2" rx="11" ry="11" style="stroke:#181818;stroke-width:1;"/><path d="M73.4165,405.8675 Q72.8384,406.1644 72.1978,406.305 Q71.5571,406.4612 70.854,406.4612 Q68.354,406.4612 67.0259,404.8206 Q65.7134,403.1644 65.7134,400.0394 Q65.7134,396.9144 67.0259,395.2581 Q68.354,393.6019 70.854,393.6019 Q71.5571,393.6019 72.1978,393.7581 Q72.854,393.9144 73.4165,394.2112 L73.4165,396.93 Q72.7915,396.3519 72.1978,396.0862 Q71.604,395.805 70.979,395.805 Q69.6353,395.805 68.9478,396.8831 Q68.2603,397.9456 68.2603,400.0394 Q68.2603,402.1331 68.9478,403.2112 Q69.6353,404.2737 70.979,404.2737 Q71.604,404.2737 72.1978,404.0081 Q72.7915,403.7269 73.4165,403.1487 L73.4165,405.8675 Z " fill="#000000"/><text fill="#000000" font-family="sans-serif" font-size="14" lengthAdjust="spacing" textLength="131.1953" x="90.9478" y="405.0736">CreditCardAdapter</text><line style="stroke:#181818;stroke-width:0.5;" x1="8" x2="272.5908" y1="416.2269" y2="416.2269"/><g data-visibility-modifier="PRIVATE_FIELD"><rect fill="none" height="6" style="stroke:#C82930;stroke-width:1;" width="6" x="15" y="426.8753"/></g><text fill="#000000" font-family="sans-serif" font-size="14" lengthAdjust="spacing" textLength="153.1865" x="27" y="433.222">CreditCard creditCard</text><line style="stroke:#181818;stroke-width:0.5;" x1="8" x2="272.5908" y1="440.5237" y2="440.5237"/><g data-visibility-modifier="PUBLIC_METHOD"><ellipse cx="18" cy="454.1722" fill="#84BE84" rx="3" ry="3" style="stroke:#038048;stroke-width:1;"/></g><text fill="#000000" font-family="sans-serif" font-size="14" lengthAdjust="spacing" textLength="217.5264" x="27" y="457.5189">CreditCardAdapter(CreditCard)</text><g data-visibility-modifier="PUBLIC_METHOD"><ellipse cx="18" cy="470.4691" fill="#84BE84" rx="3" ry="3" style="stroke:#038048;stroke-width:1;"/></g><text fill="#000000" font-family="sans-serif" font-size="14" lengthAdjust="spacing" textLength="183.9893" x="27" y="473.8157">isPaymentValid(): boolean</text><g data-visibility-modifier="PUBLIC_METHOD"><ellipse cx="18" cy="486.7659" fill="#84BE84" rx="3" ry="3" style="stroke:#038048;stroke-width:1;"/></g><text fill="#000000" font-family="sans-serif" font-size="14" lengthAdjust="spacing" textLength="239.8047" x="27" y="490.1126">processPayment(double): boolean</text><g data-visibility-modifier="PUBLIC_METHOD"><ellipse cx="18" cy="503.0628" fill="#84BE84" rx="3" ry="3" style="stroke:#038048;stroke-width:1;"/></g><text fill="#000000" font-family="sans-serif" font-size="14" lengthAdjust="spacing" textLength="240.5908" x="27" y="506.4095">getPaymentMethodName(): String</text></g><!--class PayPalAdapter--><g class="entity" data-qualified-name="PayPalAdapter" data-source-line="19" id="ent0005"><rect fill="#E1FFE4" height="145.7813" rx="2.5" ry="2.5" style="stroke:#181818;stroke-width:0.5;" width="266.5908" x="309" y="376.0769"/><ellipse cx="387.0425" cy="392.0769" fill="#ADD1B2" rx="11" ry="11" style="stroke:#181818;stroke-width:1;"/><path d="M390.0112,397.7175 Q389.4331,398.0144 388.7925,398.155 Q388.1519,398.3113 387.4487,398.3113 Q384.9487,398.3113 383.6206,396.6706 Q382.3081,395.0144 382.3081,391.8894 Q382.3081,388.7644 383.6206,387.1081 Q384.9487,385.4519 387.4487,385.4519 Q388.1519,385.4519 388.7925,385.6081 Q389.4487,385.7644 390.0112,386.0613 L390.0112,388.78 Q389.3862,388.2019 388.7925,387.9363 Q388.1987,387.655 387.5737,387.655 Q386.23,387.655 385.5425,388.7331 Q384.855,389.7956 384.855,391.8894 Q384.855,393.9831 385.5425,395.0613 Q386.23,396.1238 387.5737,396.1238 Q388.1987,396.1238 388.7925,395.8581 Q389.3862,395.5769 390.0112,394.9988 L390.0112,397.7175 Z " fill="#000000"/><text fill="#000000" font-family="sans-serif" font-size="14" lengthAdjust="spacing" textLength="102.0059" x="407.5425" y="396.9236">PayPalAdapter</text><line style="stroke:#181818;stroke-width:0.5;" x1="310" x2="574.5908" y1="408.0769" y2="408.0769"/><g data-visibility-modifier="PRIVATE_FIELD"><rect fill="none" height="6" style="stroke:#C82930;stroke-width:1;" width="6" x="317" y="418.7253"/></g><text fill="#000000" font-family="sans-serif" font-size="14" lengthAdjust="spacing" textLength="84.8408" x="329" y="425.072">String email</text><g data-visibility-modifier="PRIVATE_FIELD"><rect fill="none" height="6" style="stroke:#C82930;stroke-width:1;" width="6" x="317" y="435.0222"/></g><text fill="#000000" font-family="sans-serif" font-size="14" lengthAdjust="spacing" textLength="112.9434" x="329" y="441.3689">String password</text><line style="stroke:#181818;stroke-width:0.5;" x1="310" x2="574.5908" y1="448.6706" y2="448.6706"/><g data-visibility-modifier="PUBLIC_METHOD"><ellipse cx="320" cy="462.3191" fill="#84BE84" rx="3" ry="3" style="stroke:#038048;stroke-width:1;"/></g><text fill="#000000" font-family="sans-serif" font-size="14" lengthAdjust="spacing" textLength="205.3926" x="329" y="465.6657">PayPalAdapter(String, String)</text><g data-visibility-modifier="PUBLIC_METHOD"><ellipse cx="320" cy="478.6159" fill="#84BE84" rx="3" ry="3" style="stroke:#038048;stroke-width:1;"/></g><text fill="#000000" font-family="sans-serif" font-size="14" lengthAdjust="spacing" textLength="183.9893" x="329" y="481.9626">isPaymentValid(): boolean</text><g data-visibility-modifier="PUBLIC_METHOD"><ellipse cx="320" cy="494.9128" fill="#84BE84" rx="3" ry="3" style="stroke:#038048;stroke-width:1;"/></g><text fill="#000000" font-family="sans-serif" font-size="14" lengthAdjust="spacing" textLength="239.8047" x="329" y="498.2595">processPayment(double): boolean</text><g data-visibility-modifier="PUBLIC_METHOD"><ellipse cx="320" cy="511.2097" fill="#84BE84" rx="3" ry="3" style="stroke:#038048;stroke-width:1;"/></g><text fill="#000000" font-family="sans-serif" font-size="14" lengthAdjust="spacing" textLength="240.5908" x="329" y="514.5564">getPaymentMethodName(): String</text></g><!--class ApplePayAdapter--><g class="entity" data-qualified-name="ApplePayAdapter" data-source-line="28" id="ent0007"><rect fill="#E1FFE4" height="129.4844" rx="2.5" ry="2.5" style="stroke:#181818;stroke-width:0.5;" width="266.5908" x="611" y="384.2269"/><ellipse cx="679.5713" cy="400.2269" fill="#ADD1B2" rx="11" ry="11" style="stroke:#181818;stroke-width:1;"/><path d="M682.54,405.8675 Q681.9619,406.1644 681.3213,406.305 Q680.6807,406.4612 679.9775,406.4612 Q677.4775,406.4612 676.1494,404.8206 Q674.8369,403.1644 674.8369,400.0394 Q674.8369,396.9144 676.1494,395.2581 Q677.4775,393.6019 679.9775,393.6019 Q680.6807,393.6019 681.3213,393.7581 Q681.9775,393.9144 682.54,394.2112 L682.54,396.93 Q681.915,396.3519 681.3213,396.0862 Q680.7275,395.805 680.1025,395.805 Q678.7588,395.805 678.0713,396.8831 Q677.3838,397.9456 677.3838,400.0394 Q677.3838,402.1331 678.0713,403.2112 Q678.7588,404.2737 680.1025,404.2737 Q680.7275,404.2737 681.3213,404.0081 Q681.915,403.7269 682.54,403.1487 L682.54,405.8675 Z " fill="#000000"/><text fill="#000000" font-family="sans-serif" font-size="14" lengthAdjust="spacing" textLength="120.9482" x="700.0713" y="405.0736">ApplePayAdapter</text><line style="stroke:#181818;stroke-width:0.5;" x1="612" x2="876.5908" y1="416.2269" y2="416.2269"/><g data-visibility-modifier="PRIVATE_FIELD"><rect fill="none" height="6" style="stroke:#C82930;stroke-width:1;" width="6" x="619" y="426.8753"/></g><text fill="#000000" font-family="sans-serif" font-size="14" lengthAdjust="spacing" textLength="148.0459" x="631" y="433.222">String tokenizedData</text><line style="stroke:#181818;stroke-width:0.5;" x1="612" x2="876.5908" y1="440.5237" y2="440.5237"/><g data-visibility-modifier="PUBLIC_METHOD"><ellipse cx="622" cy="454.1722" fill="#84BE84" rx="3" ry="3" style="stroke:#038048;stroke-width:1;"/></g><text fill="#000000" font-family="sans-serif" font-size="14" lengthAdjust="spacing" textLength="173.6533" x="631" y="457.5189">ApplePayAdapter(String)</text><g data-visibility-modifier="PUBLIC_METHOD"><ellipse cx="622" cy="470.4691" fill="#84BE84" rx="3" ry="3" style="stroke:#038048;stroke-width:1;"/></g><text fill="#000000" font-family="sans-serif" font-size="14" lengthAdjust="spacing" textLength="183.9893" x="631" y="473.8157">isPaymentValid(): boolean</text><g data-visibility-modifier="PUBLIC_METHOD"><ellipse cx="622" cy="486.7659" fill="#84BE84" rx="3" ry="3" style="stroke:#038048;stroke-width:1;"/></g><text fill="#000000" font-family="sans-serif" font-size="14" lengthAdjust="spacing" textLength="239.8047" x="631" y="490.1126">processPayment(double): boolean</text><g data-visibility-modifier="PUBLIC_METHOD"><ellipse cx="622" cy="503.0628" fill="#84BE84" rx="3" ry="3" style="stroke:#038048;stroke-width:1;"/></g><text fill="#000000" font-family="sans-serif" font-size="14" lengthAdjust="spacing" textLength="240.5908" x="631" y="506.4095">getPaymentMethodName(): String</text></g><!--class CreditCard--><g class="entity" data-qualified-name="CreditCard" data-source-line="36" id="ent0009"><rect fill="#E1FFE4" height="80.5938" rx="2.5" ry="2.5" style="stroke:#181818;stroke-width:0.5;" width="132.1826" x="74.2" y="598.8669"/><ellipse cx="100.3489" cy="614.8669" fill="#ADD1B2" rx="11" ry="11" style="stroke:#181818;stroke-width:1;"/><path d="M103.3177,620.5075 Q102.7396,620.8044 102.0989,620.945 Q101.4583,621.1012 100.7552,621.1012 Q98.2552,621.1012 96.9271,619.4606 Q95.6146,617.8044 95.6146,614.6794 Q95.6146,611.5544 96.9271,609.8981 Q98.2552,608.2419 100.7552,608.2419 Q101.4583,608.2419 102.0989,608.3981 Q102.7552,608.5544 103.3177,608.8512 L103.3177,611.57 Q102.6927,610.9919 102.0989,610.7262 Q101.5052,610.445 100.8802,610.445 Q99.5364,610.445 98.8489,611.5231 Q98.1614,612.5856 98.1614,614.6794 Q98.1614,616.7731 98.8489,617.8512 Q99.5364,618.9137 100.8802,618.9137 Q101.5052,618.9137 102.0989,618.6481 Q102.6927,618.3669 103.3177,617.7887 L103.3177,620.5075 Z " fill="#000000"/><text fill="#000000" font-family="sans-serif" font-size="14" lengthAdjust="spacing" textLength="75.4072" x="116.8265" y="619.7136">CreditCard</text><line style="stroke:#181818;stroke-width:0.5;" x1="75.2" x2="205.3826" y1="630.8669" y2="630.8669"/><g data-visibility-modifier="PRIVATE_FIELD"><rect fill="none" height="6" style="stroke:#C82930;stroke-width:1;" width="6" x="82.2" y="641.5153"/></g><text fill="#000000" font-family="sans-serif" font-size="14" lengthAdjust="spacing" textLength="106.1826" x="94.2" y="647.862">double amount</text><g data-visibility-modifier="PRIVATE_FIELD"><rect fill="none" height="6" style="stroke:#C82930;stroke-width:1;" width="6" x="82.2" y="657.8122"/></g><text fill="#000000" font-family="sans-serif" font-size="14" lengthAdjust="spacing" textLength="100.8711" x="94.2" y="664.1589">String number</text><line style="stroke:#181818;stroke-width:0.5;" x1="75.2" x2="205.3826" y1="671.4606" y2="671.4606"/></g><!--class Paypal--><g class="entity" data-qualified-name="Paypal" data-source-line="41" id="ent0010"><rect fill="#E1FFE4" height="64.2969" rx="2.5" ry="2.5" style="stroke:#181818;stroke-width:0.5;" width="253.8691" x="315.36" y="607.0069"/><ellipse cx="414.7135" cy="623.0069" fill="#ADD1B2" rx="11" ry="11" style="stroke:#181818;stroke-width:1;"/><path d="M417.6823,628.6475 Q417.1041,628.9444 416.4635,629.085 Q415.8229,629.2412 415.1198,629.2412 Q412.6198,629.2412 411.2916,627.6006 Q409.9791,625.9444 409.9791,622.8194 Q409.9791,619.6944 411.2916,618.0381 Q412.6198,616.3819 415.1198,616.3819 Q415.8229,616.3819 416.4635,616.5381 Q417.1198,616.6944 417.6823,616.9912 L417.6823,619.71 Q417.0573,619.1319 416.4635,618.8662 Q415.8698,618.585 415.2448,618.585 Q413.901,618.585 413.2135,619.6631 Q412.526,620.7256 412.526,622.8194 Q412.526,624.9131 413.2135,625.9912 Q413.901,627.0537 415.2448,627.0537 Q415.8698,627.0537 416.4635,626.7881 Q417.0573,626.5069 417.6823,625.9287 L417.6823,628.6475 Z " fill="#000000"/><text fill="#000000" font-family="sans-serif" font-size="14" lengthAdjust="spacing" textLength="46.6621" x="435.2135" y="627.8536">Paypal</text><line style="stroke:#181818;stroke-width:0.5;" x1="316.36" x2="568.2291" y1="639.0069" y2="639.0069"/><g data-visibility-modifier="PUBLIC_FIELD"><ellipse cx="326.36" cy="652.6553" fill="none" rx="3" ry="3" style="stroke:#038048;stroke-width:1;"/></g><text fill="#000000" font-family="sans-serif" font-size="14" lengthAdjust="spacing" text-decoration="underline" textLength="227.8691" x="335.36" y="656.002">Map&lt;String,String&gt; DATA_BASE</text><line style="stroke:#181818;stroke-width:0.5;" x1="316.36" x2="568.2291" y1="663.3037" y2="663.3037"/></g><!--class FlightOrderWithAdapters--><g class="entity" data-qualified-name="FlightOrderWithAdapters" data-source-line="45" id="ent0011"><rect fill="#E1FFE4" height="96.8906" rx="2.5" ry="2.5" style="stroke:#181818;stroke-width:0.5;" width="379.1104" x="252.74" y="44.2969"/><ellipse cx="350.9006" cy="60.2969" fill="#ADD1B2" rx="11" ry="11" style="stroke:#181818;stroke-width:1;"/><path d="M353.8694,65.9375 Q353.2913,66.2344 352.6506,66.375 Q352.01,66.5313 351.3069,66.5313 Q348.8069,66.5313 347.4788,64.8906 Q346.1663,63.2344 346.1663,60.1094 Q346.1663,56.9844 347.4788,55.3281 Q348.8069,53.6719 351.3069,53.6719 Q352.01,53.6719 352.6506,53.8281 Q353.3069,53.9844 353.8694,54.2813 L353.8694,57 Q353.2444,56.4219 352.6506,56.1563 Q352.0569,55.875 351.4319,55.875 Q350.0881,55.875 349.4006,56.9531 Q348.7131,58.0156 348.7131,60.1094 Q348.7131,62.2031 349.4006,63.2813 Q350.0881,64.3438 351.4319,64.3438 Q352.0569,64.3438 352.6506,64.0781 Q353.2444,63.7969 353.8694,63.2188 L353.8694,65.9375 Z " fill="#000000"/><text fill="#000000" font-family="sans-serif" font-size="14" lengthAdjust="spacing" textLength="174.2891" x="371.4006" y="65.1436">FlightOrderWithAdapters</text><line style="stroke:#181818;stroke-width:0.5;" x1="253.74" x2="630.8504" y1="76.2969" y2="76.2969"/><line style="stroke:#181818;stroke-width:0.5;" x1="253.74" x2="630.8504" y1="84.2969" y2="84.2969"/><g data-visibility-modifier="PUBLIC_METHOD"><ellipse cx="263.74" cy="97.9453" fill="#84BE84" rx="3" ry="3" style="stroke:#038048;stroke-width:1;"/></g><text fill="#000000" font-family="sans-serif" font-size="14" lengthAdjust="spacing" textLength="321.9932" x="272.74" y="101.292">processPayment(PaymentProcessor): boolean</text><g data-visibility-modifier="PUBLIC_METHOD"><ellipse cx="263.74" cy="114.2422" fill="#84BE84" rx="3" ry="3" style="stroke:#038048;stroke-width:1;"/></g><text fill="#000000" font-family="sans-serif" font-size="14" lengthAdjust="spacing" textLength="353.1104" x="272.74" y="117.5889">processOrderWithCreditCard(CreditCard): boolean</text><g data-visibility-modifier="PUBLIC_METHOD"><ellipse cx="263.74" cy="130.5391" fill="#84BE84" rx="3" ry="3" style="stroke:#038048;stroke-width:1;"/></g><text fill="#000000" font-family="sans-serif" font-size="14" lengthAdjust="spacing" textLength="340.9766" x="272.74" y="133.8857">processOrderWithPayPal(String, String): boolean</text></g><g class="entity" data-qualified-name="GMN18" data-source-line="61" id="ent0019"><path d="M912.82,413.7069 L912.82,484.2381 L1149.7736,484.2381 L1149.7736,423.7069 L1139.7736,413.7069 L912.82,413.7069" fill="#FEFFDD" style="stroke:#181818;stroke-width:0.5;"/><path d="M1139.7736,413.7069 L1139.7736,423.7069 L1149.7736,423.7069 L1139.7736,413.7069" fill="#FEFFDD" style="stroke:#181818;stroke-width:1;"/><text fill="#000000" font-family="sans-serif" font-size="13" lengthAdjust="spacing" textLength="169.9585" x="918.82" y="430.7738">Unified payment interface</text><text fill="#000000" font-family="sans-serif" font-size="13" lengthAdjust="spacing" textLength="215.9536" x="918.82" y="445.9066">All payment methods compatible</text><text fill="#000000" font-family="sans-serif" font-size="13" lengthAdjust="spacing" textLength="169.2158" x="918.82" y="461.0394">Easy to add new adapters</text><text fill="#000000" font-family="sans-serif" font-size="13" lengthAdjust="spacing" textLength="191.9468" x="918.82" y="476.1722">No duplicate processing code</text></g><!--reverse link PaymentProcessor to CreditCardAdapter--><g class="link" data-entity-1="ent0002" data-entity-2="ent0003" data-link-type="extension" data-source-line="12" id="lnk4"><path d="M335.1364,324.4432 C298.6664,345.3632 272.38,361.2669 235.56,383.7569" fill="none" id="PaymentProcessor-backto-CreditCardAdapter" style="stroke:#181818;stroke-width:1;stroke-dasharray:7,7;"/><polygon fill="none" points="350.75,315.4869,332.151,319.2386,338.1218,329.6477,350.75,315.4869" style="stroke:#181818;stroke-width:1;"/></g><!--link CreditCardAdapter to PaymentProcessor--><g class="link" data-entity-1="ent0003" data-entity-2="ent0002" data-link-type="extension" data-source-line="51" id="lnk12"><path codeLine="51" d="M260.82,383.7569 C299.4,361.2669 325.4499,345.937 358.9699,325.017" fill="none" id="CreditCardAdapter-to-PaymentProcessor" style="stroke:#181818;stroke-width:1;"/><polygon fill="none" points="374.24,315.4869,355.7932,319.927,362.1466,330.1071,374.24,315.4869" style="stroke:#181818;stroke-width:1;"/></g><!--reverse link PaymentProcessor to PayPalAdapter--><g class="link" data-entity-1="ent0002" data-entity-2="ent0005" data-link-type="extension" data-source-line="20" id="lnk6"><path d="M429.6552,333.4445 C428.3852,351.9145 429.25,355.4869 429.77,375.7669" fill="none" id="PaymentProcessor-backto-PayPalAdapter" style="stroke:#181818;stroke-width:1;stroke-dasharray:7,7;"/><polygon fill="none" points="430.89,315.4869,423.6694,333.0329,435.6411,333.8561,430.89,315.4869" style="stroke:#181818;stroke-width:1;"/></g><!--link PayPalAdapter to PaymentProcessor--><g class="link" data-entity-1="ent0005" data-entity-2="ent0002" data-link-type="extension" data-source-line="52" id="lnk13"><path codeLine="52" d="M455.55,375.7669 C456.1,355.4869 457.0028,351.9104 455.6728,333.4404" fill="none" id="PayPalAdapter-to-PaymentProcessor" style="stroke:#181818;stroke-width:1;"/><polygon fill="none" points="454.38,315.4869,449.6883,333.8713,461.6573,333.0095,454.38,315.4869" style="stroke:#181818;stroke-width:1;"/></g><!--reverse link PaymentProcessor to ApplePayAdapter--><g class="link" data-entity-1="ent0002" data-entity-2="ent0007" data-link-type="extension" data-source-line="29" id="lnk8"><path d="M526.3016,324.9986 C559.9116,345.9186 585.96,361.2669 624.49,383.7569" fill="none" id="PaymentProcessor-backto-ApplePayAdapter" style="stroke:#181818;stroke-width:1;stroke-dasharray:7,7;"/><polygon fill="none" points="511.02,315.4869,523.131,330.0925,529.4722,319.9048,511.02,315.4869" style="stroke:#181818;stroke-width:1;"/></g><!--link ApplePayAdapter to PaymentProcessor--><g class="link" data-entity-1="ent0007" data-entity-2="ent0002" data-link-type="extension" data-source-line="53" id="lnk14"><path codeLine="53" d="M649.75,383.7569 C612.99,361.2669 586.6821,345.3484 550.1321,324.4284" fill="none" id="ApplePayAdapter-to-PaymentProcessor" style="stroke:#181818;stroke-width:1;"/><polygon fill="none" points="534.51,315.4869,547.1515,329.6358,553.1126,319.2211,534.51,315.4869" style="stroke:#181818;stroke-width:1;"/></g><!--link CreditCardAdapter to CreditCard--><g class="link" data-entity-1="ent0003" data-entity-2="ent0009" data-link-type="dependency" data-source-line="55" id="lnk15"><path codeLine="55" d="M140.3,514.2069 C140.3,542.2169 140.3,568.1569 140.3,592.5969" fill="none" id="CreditCardAdapter-to-CreditCard" style="stroke:#181818;stroke-width:1;"/><polygon fill="#181818" points="140.3,598.5969,144.3,589.5969,140.3,593.5969,136.3,589.5969,140.3,598.5969" style="stroke:#181818;stroke-width:1;"/><text fill="#000000" font-family="sans-serif" font-size="13" lengthAdjust="spacing" textLength="44.3066" x="141.3" y="564.9338">adapts</text></g><!--link PayPalAdapter to Paypal--><g class="link" data-entity-1="ent0005" data-entity-2="ent0010" data-link-type="dependency" data-source-line="56" id="lnk16"><path codeLine="56" d="M442.3,522.1969 C442.3,551.4269 442.3,577.6369 442.3,600.6769" fill="none" id="PayPalAdapter-to-Paypal" style="stroke:#181818;stroke-width:1;"/><polygon fill="#181818" points="442.3,606.6769,446.3,597.6769,442.3,601.6769,438.3,597.6769,442.3,606.6769" style="stroke:#181818;stroke-width:1;"/><text fill="#000000" font-family="sans-serif" font-size="13" lengthAdjust="spacing" textLength="44.3066" x="443.3" y="564.9338">adapts</text></g><!--link FlightOrderWithAdapters to PaymentProcessor--><g class="link" data-entity-1="ent0011" data-entity-2="ent0002" data-link-type="dependency" data-source-line="58" id="lnk17"><path codeLine="58" d="M442.3,141.6269 C442.3,165.3669 442.3,187.9669 442.3,211.7169" fill="none" id="FlightOrderWithAdapters-to-PaymentProcessor" style="stroke:#181818;stroke-width:1;"/><polygon fill="#181818" points="442.3,217.7169,446.3,208.7169,442.3,212.7169,438.3,208.7169,442.3,217.7169" style="stroke:#181818;stroke-width:1;"/><text fill="#000000" font-family="sans-serif" font-size="13" lengthAdjust="spacing" textLength="88.5879" x="443.3" y="184.2538">uses (unified)</text></g><!--link PaymentProcessor to GMN18--><g class="link" data-entity-1="ent0002" data-entity-2="ent0019" data-link-type="association" data-source-line="61" id="lnk20"><path d="M575.75,290.4169 C667.4,308.2669 790.88,336.7069 895.3,376.0769 C921.91,386.1169 949.92,400.2469 973.55,413.3269" fill="none" id="PaymentProcessor-GMN18" style="stroke:#181818;stroke-width:1;stroke-dasharray:7,7;"/></g><?plantuml-src nLHDRzim3BthLn3OnS6Mmu2TWY60czgtTi7QRSU1iPX4Y2mPaeoYw_hVHyUguuy4mtQ9VR0XFZxoIOyAAcY2L68LoC4Q0tyCp27D7xElaFnGOJ-EpeG_A5EXmn8sM1nspjP6hgos3jxbMVFs48L6xs_6iEnZdcUVX5266RTO49C_bsJ2sjc2l6VCYm1-teFoCVGTjPB9R04RQpMXYV6gpOYWHDfwesc2sb68Y3iAUolliQI6wo4uPNRYLOXZex1o95LOePDlgbLPQMeI_QKUvxqiABhVM7d2c9nMPbVHoA0rwd_Hrp80bQZqSAbYmYVRYHrG9otcGyHUHsnQiJn6_eVSO0zar2-IjnWmbXtH9TUKrdFTM-Sj8s39inQ6QanTRiWDN52XxiRinGSCgdY5Ewm-nuDhFqkuJH_JdpVfGtRAphNQxSCN9yarTqJS3j_HZPIEj_hIpdI49stzSVbRLck_iUzEMTp-TC3dyz_BYHV4S4ZEOyRUEeywMtBPExq5OBFk9pMNyP0wWBYqxH4xABo0sfE7f3PgguZl6c5i8DwB46m9TZlj5E1RY-MnFeQWkvyvbchThPT7OteeR5cnRTXp3CZGF_FGSBCI33srJNDt7Bgt8EjAgmAvWtXgZIaBAqcGOJotzWS0?></g></svg>