<?plantuml 1.2026.2beta3?><svg xmlns="http://www.w3.org/2000/svg" xmlns:xlink="http://www.w3.org/1999/xlink" contentStyleType="text/css" data-diagram-type="CLASS" height="419px" preserveAspectRatio="none" style="width:856px;height:419px;background:#FEFEFE;" version="1.1" viewBox="0 0 856 419" width="856px" zoomAndPan="magnify"><title>Adapter Pattern - BEFORE (Current State)</title><defs/><g><rect fill="#FEFEFE" height="419" style="stroke:none;stroke-width:1;" width="856" x="0" y="0"/><g class="title" data-source-line="1"><text fill="#000000" font-family="sans-serif" font-size="14" font-weight="bold" lengthAdjust="spacing" textLength="330.5107" x="255.9383" y="22.9951">Adapter Pattern - BEFORE (Current State)</text></g><!--class CreditCard--><g class="entity" data-qualified-name="CreditCard" data-source-line="5" id="ent0002"><rect fill="#FFE4E1" height="178.375" rx="2.5" ry="2.5" style="stroke:#181818;stroke-width:0.5;" width="199.8447" x="7" y="234.4769"/><ellipse cx="64.9688" cy="250.4769" fill="#ADD1B2" rx="11" ry="11" style="stroke:#181818;stroke-width:1;"/><path d="M67.9375,256.1175 Q67.3594,256.4144 66.7188,256.555 Q66.0781,256.7113 65.375,256.7113 Q62.875,256.7113 61.5469,255.0706 Q60.2344,253.4144 60.2344,250.2894 Q60.2344,247.1644 61.5469,245.5081 Q62.875,243.8519 65.375,243.8519 Q66.0781,243.8519 66.7188,244.0081 Q67.375,244.1644 67.9375,244.4613 L67.9375,247.18 Q67.3125,246.6019 66.7188,246.3363 Q66.125,246.055 65.5,246.055 Q64.1563,246.055 63.4688,247.1331 Q62.7813,248.1956 62.7813,250.2894 Q62.7813,252.3831 63.4688,253.4613 Q64.1563,254.5238 65.5,254.5238 Q66.125,254.5238 66.7188,254.2581 Q67.3125,253.9769 67.9375,253.3988 L67.9375,256.1175 Z " fill="#000000"/><text fill="#000000" font-family="sans-serif" font-size="14" lengthAdjust="spacing" textLength="75.4072" x="85.4688" y="255.3236">CreditCard</text><line style="stroke:#181818;stroke-width:0.5;" x1="8" x2="205.8447" y1="266.4769" y2="266.4769"/><g data-visibility-modifier="PRIVATE_FIELD"><rect fill="none" height="6" style="stroke:#C82930;stroke-width:1;" width="6" x="15" y="277.1253"/></g><text fill="#000000" font-family="sans-serif" font-size="14" lengthAdjust="spacing" textLength="106.1826" x="27" y="283.472">double amount</text><g data-visibility-modifier="PRIVATE_FIELD"><rect fill="none" height="6" style="stroke:#C82930;stroke-width:1;" width="6" x="15" y="293.4222"/></g><text fill="#000000" font-family="sans-serif" font-size="14" lengthAdjust="spacing" textLength="100.8711" x="27" y="299.7689">String number</text><g data-visibility-modifier="PRIVATE_FIELD"><rect fill="none" height="6" style="stroke:#C82930;stroke-width:1;" width="6" x="15" y="309.7191"/></g><text fill="#000000" font-family="sans-serif" font-size="14" lengthAdjust="spacing" textLength="69.4805" x="27" y="316.0657">Date date</text><g data-visibility-modifier="PRIVATE_FIELD"><rect fill="none" height="6" style="stroke:#C82930;stroke-width:1;" width="6" x="15" y="326.0159"/></g><text fill="#000000" font-family="sans-serif" font-size="14" lengthAdjust="spacing" textLength="70.499" x="27" y="332.3626">String cvv</text><g data-visibility-modifier="PRIVATE_FIELD"><rect fill="none" height="6" style="stroke:#C82930;stroke-width:1;" width="6" x="15" y="342.3128"/></g><text fill="#000000" font-family="sans-serif" font-size="14" lengthAdjust="spacing" textLength="93.9531" x="27" y="348.6595">boolean valid</text><line style="stroke:#181818;stroke-width:0.5;" x1="8" x2="205.8447" y1="355.9613" y2="355.9613"/><g data-visibility-modifier="PUBLIC_METHOD"><ellipse cx="18" cy="369.6097" fill="#84BE84" rx="3" ry="3" style="stroke:#038048;stroke-width:1;"/></g><text fill="#000000" font-family="sans-serif" font-size="14" lengthAdjust="spacing" textLength="122.0693" x="27" y="372.9564">isValid(): boolean</text><g data-visibility-modifier="PUBLIC_METHOD"><ellipse cx="18" cy="385.9066" fill="#84BE84" rx="3" ry="3" style="stroke:#038048;stroke-width:1;"/></g><text fill="#000000" font-family="sans-serif" font-size="14" lengthAdjust="spacing" textLength="145.8105" x="27" y="389.2532">getAmount(): double</text><g data-visibility-modifier="PUBLIC_METHOD"><ellipse cx="18" cy="402.2034" fill="#84BE84" rx="3" ry="3" style="stroke:#038048;stroke-width:1;"/></g><text fill="#000000" font-family="sans-serif" font-size="14" lengthAdjust="spacing" textLength="173.8447" x="27" y="405.5501">setAmount(double): void</text></g><!--class Paypal--><g class="entity" data-qualified-name="Paypal" data-source-line="16" id="ent0003"><rect fill="#FFE4E1" height="64.2969" rx="2.5" ry="2.5" style="stroke:#181818;stroke-width:0.5;" width="253.8691" x="241.99" y="291.5169"/><ellipse cx="341.3435" cy="307.5169" fill="#ADD1B2" rx="11" ry="11" style="stroke:#181818;stroke-width:1;"/><path d="M344.3123,313.1575 Q343.7341,313.4544 343.0935,313.595 Q342.4529,313.7513 341.7498,313.7513 Q339.2498,313.7513 337.9216,312.1106 Q336.6091,310.4544 336.6091,307.3294 Q336.6091,304.2044 337.9216,302.5481 Q339.2498,300.8919 341.7498,300.8919 Q342.4529,300.8919 343.0935,301.0481 Q343.7498,301.2044 344.3123,301.5013 L344.3123,304.22 Q343.6873,303.6419 343.0935,303.3763 Q342.4998,303.095 341.8748,303.095 Q340.531,303.095 339.8435,304.1731 Q339.156,305.2356 339.156,307.3294 Q339.156,309.4231 339.8435,310.5013 Q340.531,311.5638 341.8748,311.5638 Q342.4998,311.5638 343.0935,311.2981 Q343.6873,311.0169 344.3123,310.4388 L344.3123,313.1575 Z " fill="#000000"/><text fill="#000000" font-family="sans-serif" font-size="14" lengthAdjust="spacing" textLength="46.6621" x="361.8435" y="312.3636">Paypal</text><line style="stroke:#181818;stroke-width:0.5;" x1="242.99" x2="494.8591" y1="323.5169" y2="323.5169"/><g data-visibility-modifier="PUBLIC_FIELD"><ellipse cx="252.99" cy="337.1653" fill="none" rx="3" ry="3" style="stroke:#038048;stroke-width:1;"/></g><text fill="#000000" font-family="sans-serif" font-size="14" lengthAdjust="spacing" text-decoration="underline" textLength="227.8691" x="261.99" y="340.512">Map&lt;String,String&gt; DATA_BASE</text><line style="stroke:#181818;stroke-width:0.5;" x1="242.99" x2="494.8591" y1="347.8138" y2="347.8138"/></g><!--class FlightOrder--><g class="entity" data-qualified-name="FlightOrder" data-source-line="20" id="ent0004"><rect fill="#FFE4E1" height="113.1875" rx="2.5" ry="2.5" style="stroke:#181818;stroke-width:0.5;" width="379.1104" x="179.37" y="44.2969"/><ellipse cx="325.119" cy="60.2969" fill="#ADD1B2" rx="11" ry="11" style="stroke:#181818;stroke-width:1;"/><path d="M328.0878,65.9375 Q327.5096,66.2344 326.869,66.375 Q326.2284,66.5313 325.5253,66.5313 Q323.0253,66.5313 321.6971,64.8906 Q320.3846,63.2344 320.3846,60.1094 Q320.3846,56.9844 321.6971,55.3281 Q323.0253,53.6719 325.5253,53.6719 Q326.2284,53.6719 326.869,53.8281 Q327.5253,53.9844 328.0878,54.2813 L328.0878,57 Q327.4628,56.4219 326.869,56.1563 Q326.2753,55.875 325.6503,55.875 Q324.3065,55.875 323.619,56.9531 Q322.9315,58.0156 322.9315,60.1094 Q322.9315,62.2031 323.619,63.2813 Q324.3065,64.3438 325.6503,64.3438 Q326.2753,64.3438 326.869,64.0781 Q327.4628,63.7969 328.0878,63.2188 L328.0878,65.9375 Z " fill="#000000"/><text fill="#000000" font-family="sans-serif" font-size="14" lengthAdjust="spacing" textLength="79.1123" x="345.619" y="65.1436">FlightOrder</text><line style="stroke:#181818;stroke-width:0.5;" x1="180.37" x2="557.4804" y1="76.2969" y2="76.2969"/><line style="stroke:#181818;stroke-width:0.5;" x1="180.37" x2="557.4804" y1="84.2969" y2="84.2969"/><g data-visibility-modifier="PUBLIC_METHOD"><ellipse cx="190.37" cy="97.9453" fill="#84BE84" rx="3" ry="3" style="stroke:#038048;stroke-width:1;"/></g><text fill="#000000" font-family="sans-serif" font-size="14" lengthAdjust="spacing" textLength="353.1104" x="199.37" y="101.292">processOrderWithCreditCard(CreditCard): boolean</text><g data-visibility-modifier="PUBLIC_METHOD"><ellipse cx="190.37" cy="114.2422" fill="#84BE84" rx="3" ry="3" style="stroke:#038048;stroke-width:1;"/></g><text fill="#000000" font-family="sans-serif" font-size="14" lengthAdjust="spacing" textLength="340.9766" x="199.37" y="117.5889">processOrderWithPayPal(String, String): boolean</text><g data-visibility-modifier="PUBLIC_METHOD"><ellipse cx="190.37" cy="130.5391" fill="#84BE84" rx="3" ry="3" style="stroke:#038048;stroke-width:1;"/></g><text fill="#000000" font-family="sans-serif" font-size="14" lengthAdjust="spacing" textLength="341.3389" x="199.37" y="133.8857">payWithCreditCard(CreditCard, double): boolean</text><g data-visibility-modifier="PUBLIC_METHOD"><ellipse cx="190.37" cy="146.8359" fill="#84BE84" rx="3" ry="3" style="stroke:#038048;stroke-width:1;"/></g><text fill="#000000" font-family="sans-serif" font-size="14" lengthAdjust="spacing" textLength="329.2051" x="199.37" y="150.1826">payWithPayPal(String, String, double): boolean</text></g><g class="entity" data-qualified-name="GMN7" data-source-line="31" id="ent0008"><path d="M530.46,265.7069 L530.46,381.6366 A0,0 0 0 0 530.46,381.6366 L849.3872,381.6366 A0,0 0 0 0 849.3872,381.6366 L849.3872,275.7069 L839.3872,265.7069 L610.64,265.7069 L450.34,157.8869 L602.64,265.7069 L530.46,265.7069 A0,0 0 0 0 530.46,265.7069" fill="#FEFFDD" style="stroke:#181818;stroke-width:0.5;"/><path d="M839.3872,265.7069 L839.3872,275.7069 L849.3872,275.7069 L839.3872,265.7069" fill="#FEFFDD" style="stroke:#181818;stroke-width:0.5;"/><text fill="#000000" font-family="sans-serif" font-size="13" lengthAdjust="spacing" textLength="157.8916" x="536.46" y="282.7738">Incompatible interfaces:</text><text fill="#000000" font-family="sans-serif" font-size="13" lengthAdjust="spacing" textLength="231.061" x="536.46" y="297.9066">- CreditCard: isValid(), getAmount()</text><text fill="#000000" font-family="sans-serif" font-size="13" lengthAdjust="spacing" textLength="297.9272" x="536.46" y="313.0394">- PayPal: static DATA_BASE + email/password</text><text fill="#000000" font-family="sans-serif" font-size="13" lengthAdjust="spacing" textLength="4.1323" x="536.46" y="328.1722">&#160;</text><text fill="#000000" font-family="sans-serif" font-size="13" lengthAdjust="spacing" textLength="233.9365" x="536.46" y="343.305">Duplicate payment processing code</text><text fill="#000000" font-family="sans-serif" font-size="13" lengthAdjust="spacing" textLength="184.2153" x="536.46" y="358.4378">Different method signatures</text><text fill="#000000" font-family="sans-serif" font-size="13" lengthAdjust="spacing" textLength="231.2769" x="536.46" y="373.5706">Hard to add new payment methods</text></g><!--link FlightOrder to CreditCard--><g class="link" data-entity-1="ent0004" data-entity-2="ent0002" data-link-type="dependency" data-source-line="27" id="lnk5"><path codeLine="27" d="M302.47,157.8869 C273.59,182.2269 243.7177,207.3899 211.8277,234.2699" fill="none" id="FlightOrder-to-CreditCard" style="stroke:#181818;stroke-width:1;"/><polygon fill="#181818" points="207.24,238.1369,216.6995,235.3949,211.0631,234.9144,211.5436,229.278,207.24,238.1369" style="stroke:#181818;stroke-width:1;"/><text fill="#000000" font-family="sans-serif" font-size="13" lengthAdjust="spacing" textLength="29.7832" x="262.92" y="200.5438">uses</text></g><!--link FlightOrder to Paypal--><g class="link" data-entity-1="ent0004" data-entity-2="ent0003" data-link-type="dependency" data-source-line="28" id="lnk6"><path codeLine="28" d="M368.92,157.8869 C368.92,200.1669 368.92,250.6569 368.92,285.3069" fill="none" id="FlightOrder-to-Paypal" style="stroke:#181818;stroke-width:1;"/><polygon fill="#181818" points="368.92,291.3069,372.92,282.3069,368.92,286.3069,364.92,282.3069,368.92,291.3069" style="stroke:#181818;stroke-width:1;"/><text fill="#000000" font-family="sans-serif" font-size="13" lengthAdjust="spacing" textLength="29.7832" x="369.92" y="200.5438">uses</text></g><?plantuml-src TLFVQzim47xtNt6mbvGcZ46VmYWuYSFsK1gMiJsEiwKuehBEIEUKKlg_xsGhYTkajh7i-w7xlkzERDXgo1Msh3ria6LnC8D5iNxyLS1asNcl7SEMaVLD5fwCQz5Z0oLMJxMdpgabMVBmPLt4UnHHMGnXSH6sBkwARrdMUs7fjJAyHA_WDGEvPg2eAmKIDfB4oRPbRrmDhcjAxPDj9O10oUjzJ7Ku94D9P3KwEA0rghVTWWb_uj_aPdvq9qUjEUyhHjS08Nd2oJEOnNyWsV3jo663BotQXFyMNeD8PQetUC3s-m1gEYptiCf_v_yM-ROuPw-jgVVyw9N8VzoYzLJf47hZNyFxiqgJy-S5XOzPWck3Tf8W97qki_3bqn9JE56-cdIrmfKa8JkcEPlTZne_XoxeS14mg9gScIDfTadCr03jng89ef-kegOLqUFS62SJl4DHOfx5AHWNEdL_Ekvt7pPGcSFGl7EZXAnkqDYlhJJhcNmS97bMNMjD5ITGf6ZY0KdgzoD8AWxFoknskZyyZUOzAGYcTiYT5q80F-BCCm4g1Ku_d_OPOaEcdTY5zNy0?></g></svg>