<?plantuml 1.2026.2beta3?><svg xmlns="http://www.w3.org/2000/svg" xmlns:xlink="http://www.w3.org/1999/xlink" contentStyleType="text/css" data-diagram-type="CLASS" height="740px" preserveAspectRatio="none" style="width:697px;height:740px;background:#FEFEFE;" version="1.1" viewBox="0 0 697 740" width="697px" zoomAndPan="magnify"><title>Builder Pattern - AFTER (With Builder Pattern)</title><defs/><g><rect fill="#FEFEFE" height="740" style="stroke:none;stroke-width:1;" width="697" x="0" y="0"/><g class="title" data-source-line="1"><text fill="#000000" font-family="sans-serif" font-size="14" font-weight="bold" lengthAdjust="spacing" textLength="367.2744" x="157.9274" y="22.9951">Builder Pattern - AFTER (With Builder Pattern)</text></g><!--class Customer--><g class="entity" data-qualified-name="Customer" data-source-line="5" id="ent0002"><rect fill="#E1FFE4" height="80.5938" rx="2.5" ry="2.5" style="stroke:#181818;stroke-width:0.5;" width="111.9346" x="200.18" y="653.1269"/><ellipse cx="220.5488" cy="669.1269" fill="#ADD1B2" rx="11" ry="11" style="stroke:#181818;stroke-width:1;"/><path d="M223.5175,674.7675 Q222.9394,675.0644 222.2988,675.205 Q221.6582,675.3612 220.955,675.3612 Q218.455,675.3612 217.1269,673.7206 Q215.8144,672.0644 215.8144,668.9394 Q215.8144,665.8144 217.1269,664.1581 Q218.455,662.5019 220.955,662.5019 Q221.6582,662.5019 222.2988,662.6581 Q222.955,662.8144 223.5175,663.1112 L223.5175,665.83 Q222.8925,665.2519 222.2988,664.9862 Q221.705,664.705 221.08,664.705 Q219.7363,664.705 219.0488,665.7831 Q218.3613,666.8456 218.3613,668.9394 Q218.3613,671.0331 219.0488,672.1112 Q219.7363,673.1737 221.08,673.1737 Q221.705,673.1737 222.2988,672.9081 Q222.8925,672.6269 223.5175,672.0487 L223.5175,674.7675 Z " fill="#000000"/><text fill="#000000" font-family="sans-serif" font-size="14" lengthAdjust="spacing" textLength="68.0039" x="235.7419" y="673.9736">Customer</text><line style="stroke:#181818;stroke-width:0.5;" x1="201.18" x2="311.1146" y1="685.1269" y2="685.1269"/><g data-visibility-modifier="PRIVATE_FIELD"><rect fill="none" height="6" style="stroke:#C82930;stroke-width:1;" width="6" x="208.18" y="695.7753"/></g><text fill="#000000" font-family="sans-serif" font-size="14" lengthAdjust="spacing" textLength="85.9346" x="220.18" y="702.122">String name</text><g data-visibility-modifier="PRIVATE_FIELD"><rect fill="none" height="6" style="stroke:#C82930;stroke-width:1;" width="6" x="208.18" y="712.0722"/></g><text fill="#000000" font-family="sans-serif" font-size="14" lengthAdjust="spacing" textLength="84.8408" x="220.18" y="718.4189">String email</text><line style="stroke:#181818;stroke-width:0.5;" x1="201.18" x2="311.1146" y1="725.7206" y2="725.7206"/></g><!--class ImmutableFlightOrder--><g class="entity" data-qualified-name="ImmutableFlightOrder" data-source-line="10" id="ent0003"><rect fill="#E1FFE4" height="227.2656" rx="2.5" ry="2.5" style="stroke:#181818;stroke-width:0.5;" width="275.6895" x="118.31" y="364.8569"/><ellipse cx="174.4809" cy="380.8569" fill="#ADD1B2" rx="11" ry="11" style="stroke:#181818;stroke-width:1;"/><path d="M177.4496,386.4975 Q176.8715,386.7944 176.2309,386.935 Q175.5903,387.0912 174.8871,387.0912 Q172.3871,387.0912 171.059,385.4506 Q169.7465,383.7944 169.7465,380.6694 Q169.7465,377.5444 171.059,375.8881 Q172.3871,374.2319 174.8871,374.2319 Q175.5903,374.2319 176.2309,374.3881 Q176.8871,374.5444 177.4496,374.8412 L177.4496,377.56 Q176.8246,376.9819 176.2309,376.7162 Q175.6371,376.435 175.0121,376.435 Q173.6684,376.435 172.9809,377.5131 Q172.2934,378.5756 172.2934,380.6694 Q172.2934,382.7631 172.9809,383.8412 Q173.6684,384.9037 175.0121,384.9037 Q175.6371,384.9037 176.2309,384.6381 Q176.8246,384.3569 177.4496,383.7787 L177.4496,386.4975 Z " fill="#000000"/><text fill="#000000" font-family="sans-serif" font-size="14" lengthAdjust="spacing" textLength="154.8477" x="194.9809" y="385.7036">ImmutableFlightOrder</text><line style="stroke:#181818;stroke-width:0.5;" x1="119.31" x2="392.9995" y1="396.8569" y2="396.8569"/><g data-visibility-modifier="PRIVATE_FIELD"><rect fill="none" height="6" style="stroke:#C82930;stroke-width:1;" width="6" x="126.31" y="407.5053"/></g><text fill="#000000" font-family="sans-serif" font-size="14" lengthAdjust="spacing" textLength="52.6299" x="138.31" y="413.852">UUID id</text><g data-visibility-modifier="PRIVATE_FIELD"><rect fill="none" height="6" style="stroke:#C82930;stroke-width:1;" width="6" x="126.31" y="423.8022"/></g><text fill="#000000" font-family="sans-serif" font-size="14" lengthAdjust="spacing" textLength="138.3799" x="138.31" y="430.1489">Customer customer</text><g data-visibility-modifier="PRIVATE_FIELD"><rect fill="none" height="6" style="stroke:#C82930;stroke-width:1;" width="6" x="126.31" y="440.0991"/></g><text fill="#000000" font-family="sans-serif" font-size="14" lengthAdjust="spacing" textLength="204.8252" x="138.31" y="446.4457">List&lt;Passenger&gt; passengers</text><g data-visibility-modifier="PRIVATE_FIELD"><rect fill="none" height="6" style="stroke:#C82930;stroke-width:1;" width="6" x="126.31" y="456.3959"/></g><text fill="#000000" font-family="sans-serif" font-size="14" lengthAdjust="spacing" textLength="207.9355" x="138.31" y="462.7426">List&lt;ScheduledFlight&gt; flights</text><g data-visibility-modifier="PRIVATE_FIELD"><rect fill="none" height="6" style="stroke:#C82930;stroke-width:1;" width="6" x="126.31" y="472.6928"/></g><text fill="#000000" font-family="sans-serif" font-size="14" lengthAdjust="spacing" textLength="87.0078" x="138.31" y="479.0395">double price</text><g data-visibility-modifier="PRIVATE_FIELD"><rect fill="none" height="6" style="stroke:#C82930;stroke-width:1;" width="6" x="126.31" y="488.9897"/></g><text fill="#000000" font-family="sans-serif" font-size="14" lengthAdjust="spacing" textLength="118.6309" x="138.31" y="495.3364">boolean isClosed</text><line style="stroke:#181818;stroke-width:0.5;" x1="119.31" x2="392.9995" y1="502.6381" y2="502.6381"/><g data-visibility-modifier="PUBLIC_METHOD"><ellipse cx="129.31" cy="516.2866" fill="#84BE84" rx="3" ry="3" style="stroke:#038048;stroke-width:1;"/></g><text fill="#000000" font-family="sans-serif" font-size="14" lengthAdjust="spacing" textLength="91.499" x="138.31" y="519.6332">getId(): UUID</text><g data-visibility-modifier="PUBLIC_METHOD"><ellipse cx="129.31" cy="532.5834" fill="#84BE84" rx="3" ry="3" style="stroke:#038048;stroke-width:1;"/></g><text fill="#000000" font-family="sans-serif" font-size="14" lengthAdjust="spacing" textLength="179.0879" x="138.31" y="535.9301">getCustomer(): Customer</text><g data-visibility-modifier="PUBLIC_METHOD"><ellipse cx="129.31" cy="548.8803" fill="#84BE84" rx="3" ry="3" style="stroke:#038048;stroke-width:1;"/></g><text fill="#000000" font-family="sans-serif" font-size="14" lengthAdjust="spacing" textLength="243.0107" x="138.31" y="552.227">getPassengers(): List&lt;Passenger&gt;</text><g data-visibility-modifier="PUBLIC_METHOD"><ellipse cx="129.31" cy="565.1772" fill="#84BE84" rx="3" ry="3" style="stroke:#038048;stroke-width:1;"/></g><text fill="#000000" font-family="sans-serif" font-size="14" lengthAdjust="spacing" textLength="249.6895" x="138.31" y="568.5239">getFlights(): List&lt;ScheduledFlight&gt;</text><g data-visibility-modifier="PUBLIC_METHOD"><ellipse cx="129.31" cy="581.4741" fill="#84BE84" rx="3" ry="3" style="stroke:#038048;stroke-width:1;"/></g><text fill="#000000" font-family="sans-serif" font-size="14" lengthAdjust="spacing" textLength="125.1934" x="138.31" y="584.8207">getPrice(): double</text></g><!--class FlightOrderBuilder--><g class="entity" data-qualified-name="FlightOrderBuilder" data-source-line="24" id="ent0004"><rect fill="#E1FFE4" height="243.5625" rx="2.5" ry="2.5" style="stroke:#181818;stroke-width:0.5;" width="315.2012" x="241.55" y="44.2969"/><ellipse cx="330.5881" cy="60.2969" fill="#ADD1B2" rx="11" ry="11" style="stroke:#181818;stroke-width:1;"/><path d="M333.5568,65.9375 Q332.9787,66.2344 332.3381,66.375 Q331.6975,66.5313 330.9943,66.5313 Q328.4943,66.5313 327.1662,64.8906 Q325.8537,63.2344 325.8537,60.1094 Q325.8537,56.9844 327.1662,55.3281 Q328.4943,53.6719 330.9943,53.6719 Q331.6975,53.6719 332.3381,53.8281 Q332.9943,53.9844 333.5568,54.2813 L333.5568,57 Q332.9318,56.4219 332.3381,56.1563 Q331.7443,55.875 331.1193,55.875 Q329.7756,55.875 329.0881,56.9531 Q328.4006,58.0156 328.4006,60.1094 Q328.4006,62.2031 329.0881,63.2813 Q329.7756,64.3438 331.1193,64.3438 Q331.7443,64.3438 332.3381,64.0781 Q332.9318,63.7969 333.5568,63.2188 L333.5568,65.9375 Z " fill="#000000"/><text fill="#000000" font-family="sans-serif" font-size="14" lengthAdjust="spacing" textLength="128.625" x="351.0881" y="65.1436">FlightOrderBuilder</text><line style="stroke:#181818;stroke-width:0.5;" x1="242.55" x2="555.7512" y1="76.2969" y2="76.2969"/><g data-visibility-modifier="PRIVATE_FIELD"><rect fill="none" height="6" style="stroke:#C82930;stroke-width:1;" width="6" x="249.55" y="86.9453"/></g><text fill="#000000" font-family="sans-serif" font-size="14" lengthAdjust="spacing" textLength="138.3799" x="261.55" y="93.292">Customer customer</text><g data-visibility-modifier="PRIVATE_FIELD"><rect fill="none" height="6" style="stroke:#C82930;stroke-width:1;" width="6" x="249.55" y="103.2422"/></g><text fill="#000000" font-family="sans-serif" font-size="14" lengthAdjust="spacing" textLength="207.9355" x="261.55" y="109.5889">List&lt;ScheduledFlight&gt; flights</text><g data-visibility-modifier="PRIVATE_FIELD"><rect fill="none" height="6" style="stroke:#C82930;stroke-width:1;" width="6" x="249.55" y="119.5391"/></g><text fill="#000000" font-family="sans-serif" font-size="14" lengthAdjust="spacing" textLength="204.8252" x="261.55" y="125.8857">List&lt;Passenger&gt; passengers</text><g data-visibility-modifier="PRIVATE_FIELD"><rect fill="none" height="6" style="stroke:#C82930;stroke-width:1;" width="6" x="249.55" y="135.8359"/></g><text fill="#000000" font-family="sans-serif" font-size="14" lengthAdjust="spacing" textLength="87.0078" x="261.55" y="142.1826">double price</text><line style="stroke:#181818;stroke-width:0.5;" x1="242.55" x2="555.7512" y1="149.4844" y2="149.4844"/><g data-visibility-modifier="PUBLIC_METHOD"><ellipse cx="252.55" cy="163.1328" fill="#84BE84" rx="3" ry="3" style="stroke:#038048;stroke-width:1;"/></g><text fill="#000000" font-family="sans-serif" font-size="14" lengthAdjust="spacing" textLength="240.9258" x="261.55" y="166.4795">FlightOrderBuilder(Customer, List)</text><g data-visibility-modifier="PUBLIC_METHOD"><ellipse cx="252.55" cy="179.4297" fill="#84BE84" rx="3" ry="3" style="stroke:#038048;stroke-width:1;"/></g><text fill="#000000" font-family="sans-serif" font-size="14" lengthAdjust="spacing" textLength="289.2012" x="261.55" y="182.7764">addPassenger(String): FlightOrderBuilder</text><g data-visibility-modifier="PUBLIC_METHOD"><ellipse cx="252.55" cy="195.7266" fill="#84BE84" rx="3" ry="3" style="stroke:#038048;stroke-width:1;"/></g><text fill="#000000" font-family="sans-serif" font-size="14" lengthAdjust="spacing" textLength="279.1865" x="261.55" y="199.0732">addPassengers(List): FlightOrderBuilder</text><g data-visibility-modifier="PUBLIC_METHOD"><ellipse cx="252.55" cy="212.0234" fill="#84BE84" rx="3" ry="3" style="stroke:#038048;stroke-width:1;"/></g><text fill="#000000" font-family="sans-serif" font-size="14" lengthAdjust="spacing" textLength="260.5313" x="261.55" y="215.3701">withPrice(double): FlightOrderBuilder</text><g data-visibility-modifier="PUBLIC_METHOD"><ellipse cx="252.55" cy="228.3203" fill="#84BE84" rx="3" ry="3" style="stroke:#038048;stroke-width:1;"/></g><text fill="#000000" font-family="sans-serif" font-size="14" lengthAdjust="spacing" textLength="209.3643" x="261.55" y="231.667">build(): ImmutableFlightOrder</text><g data-visibility-modifier="PRIVATE_METHOD"><rect fill="#F24D5C" height="6" style="stroke:#C82930;stroke-width:1;" width="6" x="249.55" y="241.6172"/></g><text fill="#000000" font-family="sans-serif" font-size="14" lengthAdjust="spacing" textLength="185.5752" x="261.55" y="247.9639">validatePassengers(): void</text><g data-visibility-modifier="PRIVATE_METHOD"><rect fill="#F24D5C" height="6" style="stroke:#C82930;stroke-width:1;" width="6" x="249.55" y="257.9141"/></g><text fill="#000000" font-family="sans-serif" font-size="14" lengthAdjust="spacing" textLength="140.3281" x="261.55" y="264.2607">validatePrice(): void</text><g data-visibility-modifier="PRIVATE_METHOD"><rect fill="#F24D5C" height="6" style="stroke:#C82930;stroke-width:1;" width="6" x="249.55" y="274.2109"/></g><text fill="#000000" font-family="sans-serif" font-size="14" lengthAdjust="spacing" textLength="167.1113" x="261.55" y="280.5576">validateCapacity(): void</text></g><!--class Passenger--><g class="entity" data-qualified-name="Passenger" data-source-line="39" id="ent0005"><rect fill="#E1FFE4" height="64.2969" rx="2.5" ry="2.5" style="stroke:#181818;stroke-width:0.5;" width="111.9346" x="369.18" y="661.2669"/><ellipse cx="387.5924" cy="677.2669" fill="#ADD1B2" rx="11" ry="11" style="stroke:#181818;stroke-width:1;"/><path d="M390.5611,682.9075 Q389.983,683.2044 389.3424,683.345 Q388.7017,683.5012 387.9986,683.5012 Q385.4986,683.5012 384.1705,681.8606 Q382.858,680.2044 382.858,677.0794 Q382.858,673.9544 384.1705,672.2981 Q385.4986,670.6419 387.9986,670.6419 Q388.7017,670.6419 389.3424,670.7981 Q389.9986,670.9544 390.5611,671.2512 L390.5611,673.97 Q389.9361,673.3919 389.3424,673.1262 Q388.7486,672.845 388.1236,672.845 Q386.7799,672.845 386.0924,673.9231 Q385.4049,674.9856 385.4049,677.0794 Q385.4049,679.1731 386.0924,680.2512 Q386.7799,681.3137 388.1236,681.3137 Q388.7486,681.3137 389.3424,681.0481 Q389.9361,680.7669 390.5611,680.1887 L390.5611,682.9075 Z " fill="#000000"/><text fill="#000000" font-family="sans-serif" font-size="14" lengthAdjust="spacing" textLength="72.3516" x="402.3507" y="682.1136">Passenger</text><line style="stroke:#181818;stroke-width:0.5;" x1="370.18" x2="480.1146" y1="693.2669" y2="693.2669"/><g data-visibility-modifier="PRIVATE_FIELD"><rect fill="none" height="6" style="stroke:#C82930;stroke-width:1;" width="6" x="377.18" y="703.9153"/></g><text fill="#000000" font-family="sans-serif" font-size="14" lengthAdjust="spacing" textLength="85.9346" x="389.18" y="710.262">String name</text><line style="stroke:#181818;stroke-width:0.5;" x1="370.18" x2="480.1146" y1="717.5637" y2="717.5637"/></g><!--class ScheduledFlight--><g class="entity" data-qualified-name="ScheduledFlight" data-source-line="43" id="ent0006"><rect fill="#E1FFE4" height="64.2969" rx="2.5" ry="2.5" style="stroke:#181818;stroke-width:0.5;" width="144.3008" x="7" y="661.2669"/><ellipse cx="22" cy="677.2669" fill="#ADD1B2" rx="11" ry="11" style="stroke:#181818;stroke-width:1;"/><path d="M24.9688,682.9075 Q24.3906,683.2044 23.75,683.345 Q23.1094,683.5012 22.4063,683.5012 Q19.9063,683.5012 18.5781,681.8606 Q17.2656,680.2044 17.2656,677.0794 Q17.2656,673.9544 18.5781,672.2981 Q19.9063,670.6419 22.4063,670.6419 Q23.1094,670.6419 23.75,670.7981 Q24.4063,670.9544 24.9688,671.2512 L24.9688,673.97 Q24.3438,673.3919 23.75,673.1262 Q23.1563,672.845 22.5313,672.845 Q21.1875,672.845 20.5,673.9231 Q19.8125,674.9856 19.8125,677.0794 Q19.8125,679.1731 20.5,680.2512 Q21.1875,681.3137 22.5313,681.3137 Q23.1563,681.3137 23.75,681.0481 Q24.3438,680.7669 24.9688,680.1887 L24.9688,682.9075 Z " fill="#000000"/><text fill="#000000" font-family="sans-serif" font-size="14" lengthAdjust="spacing" textLength="112.3008" x="36" y="682.1136">ScheduledFlight</text><line style="stroke:#181818;stroke-width:0.5;" x1="8" x2="150.3008" y1="693.2669" y2="693.2669"/><g data-visibility-modifier="PRIVATE_FIELD"><rect fill="none" height="6" style="stroke:#C82930;stroke-width:1;" width="6" x="15" y="703.9153"/></g><text fill="#000000" font-family="sans-serif" font-size="14" lengthAdjust="spacing" textLength="77.3418" x="27" y="710.262">int number</text><line style="stroke:#181818;stroke-width:0.5;" x1="8" x2="150.3008" y1="717.5637" y2="717.5637"/></g><g class="entity" data-qualified-name="GMN13" data-source-line="55" id="ent0014"><path d="M500.18,428.0869 L500.18,528.8838 A0,0 0 0 0 500.18,528.8838 L690.1292,528.8838 A0,0 0 0 0 690.1292,528.8838 L690.1292,438.0869 L680.1292,428.0869 L567.76,428.0869 L475.49,287.9769 L559.76,428.0869 L500.18,428.0869 A0,0 0 0 0 500.18,428.0869" fill="#FEFFDD" style="stroke:#181818;stroke-width:0.5;"/><path d="M680.1292,428.0869 L680.1292,438.0869 L690.1292,438.0869 L680.1292,428.0869" fill="#FEFFDD" style="stroke:#181818;stroke-width:0.5;"/><text fill="#000000" font-family="sans-serif" font-size="13" lengthAdjust="spacing" textLength="168.0225" x="506.18" y="445.1538">Step-by-step construction</text><text fill="#000000" font-family="sans-serif" font-size="13" lengthAdjust="spacing" textLength="102.7749" x="506.18" y="460.2866">Fluent interface</text><text fill="#000000" font-family="sans-serif" font-size="13" lengthAdjust="spacing" textLength="168.9492" x="506.18" y="475.4194">Validation before creation</text><text fill="#000000" font-family="sans-serif" font-size="13" lengthAdjust="spacing" textLength="111.522" x="506.18" y="490.5522">Immutable result</text><text fill="#000000" font-family="sans-serif" font-size="13" lengthAdjust="spacing" textLength="132.1265" x="506.18" y="505.685">Clear required fields</text><text fill="#000000" font-family="sans-serif" font-size="13" lengthAdjust="spacing" textLength="145.9009" x="506.18" y="520.8178">Better error messages</text></g><!--link ImmutableFlightOrder to Customer--><g class="link" data-entity-1="ent0003" data-entity-2="ent0002" data-link-type="dependency" data-source-line="47" id="lnk7"><path codeLine="47" d="M256.15,592.4969 C256.15,614.1969 256.15,629.5369 256.15,646.8869" fill="none" id="ImmutableFlightOrder-to-Customer" style="stroke:#181818;stroke-width:1;"/><polygon fill="#181818" points="256.15,652.8869,260.15,643.8869,256.15,647.8869,252.15,643.8869,256.15,652.8869" style="stroke:#181818;stroke-width:1;"/></g><!--link ImmutableFlightOrder to Passenger--><g class="link" data-entity-1="ent0003" data-entity-2="ent0005" data-link-type="dependency" data-source-line="48" id="lnk8"><path codeLine="48" d="M345.85,592.4969 C365.91,617.7869 381.8601,637.8771 396.5901,656.4371" fill="none" id="ImmutableFlightOrder-to-Passenger" style="stroke:#181818;stroke-width:1;"/><polygon fill="#181818" points="400.32,661.1369,397.8583,651.6006,397.2117,657.2204,391.5919,656.5739,400.32,661.1369" style="stroke:#181818;stroke-width:1;"/></g><!--link ImmutableFlightOrder to ScheduledFlight--><g class="link" data-entity-1="ent0003" data-entity-2="ent0006" data-link-type="dependency" data-source-line="49" id="lnk9"><path codeLine="49" d="M162.21,592.4969 C141.19,617.7869 124.4257,637.9631 108.9957,656.5231" fill="none" id="ImmutableFlightOrder-to-ScheduledFlight" style="stroke:#181818;stroke-width:1;"/><polygon fill="#181818" points="105.16,661.1369,113.9895,656.7733,108.3564,657.292,107.8377,651.659,105.16,661.1369" style="stroke:#181818;stroke-width:1;"/></g><!--link FlightOrderBuilder to ImmutableFlightOrder--><g class="link" data-entity-1="ent0004" data-entity-2="ent0003" data-link-type="dependency" data-source-line="50" id="lnk10"><path codeLine="50" d="M343.45,287.9769 C331.85,313.1769 322.1712,334.1876 310.7012,359.0776" fill="none" id="FlightOrderBuilder-to-ImmutableFlightOrder" style="stroke:#181818;stroke-width:1;"/><polygon fill="#181818" points="308.19,364.5269,315.5896,358.0271,310.2826,359.9859,308.3239,354.6789,308.19,364.5269" style="stroke:#181818;stroke-width:1;"/><text fill="#000000" font-family="sans-serif" font-size="13" lengthAdjust="spacing" textLength="48.3247" x="329.15" y="330.9238">creates</text></g><!--link FlightOrderBuilder to Passenger--><g class="link" data-entity-1="ent0004" data-entity-2="ent0005" data-link-type="dependency" data-source-line="51" id="lnk11"><path codeLine="51" d="M406.84,288.1269 C408.35,313.4769 409.87,340.0369 411.15,364.8569 C416.76,473.4269 421.5644,596.3311 423.7644,654.7911" fill="none" id="FlightOrderBuilder-to-Passenger" style="stroke:#181818;stroke-width:1;"/><polygon fill="#181818" points="423.99,660.7869,427.6487,651.6428,423.802,655.7904,419.6544,651.9437,423.99,660.7869" style="stroke:#181818;stroke-width:1;"/></g><!--link FlightOrderBuilder to ScheduledFlight--><g class="link" data-entity-1="ent0004" data-entity-2="ent0006" data-link-type="dependency" data-source-line="52" id="lnk12"><path codeLine="52" d="M241.07,235.5269 C187.51,266.9369 133.18,309.6769 101.15,364.8569 C45.64,460.4869 60.5758,593.3802 71.5758,655.0102" fill="none" id="FlightOrderBuilder-to-ScheduledFlight" style="stroke:#181818;stroke-width:1;"/><polygon fill="#181818" points="72.63,660.9169,74.9864,651.3541,71.7515,655.9947,67.1109,652.7597,72.63,660.9169" style="stroke:#181818;stroke-width:1;"/></g><?plantuml-src ZLHDRvmm4BtpAqRgXLNAeL9EKRLIboxIIfKQTPlsRF30MZ4syKUgAEf_xnWMGmYR50vWp_FCcpSpTi99X9qNagE1M-OS6WKPV2b-xdz0-bkuqzAwIUozK1qph8MILVUDqLxnN4jju4En3-yCKKbcxMu9stygYlrralHMoBrrkgK8pmdGay7H6Q4QKAp5bplOCY6Jl-F1Gzjwnqg9XHJDoNqtVERaxkxm5GG_hsACwlnptlychFjyIyvGDMYsq8s_TWuuLYVaNY8V0csXxhyZXcjF9A0peXe9brfBP0g4pQMsED2uWWRTWQURcvxTj3Uo2vPyJh2tHdess1UC9zZ0RS8iISyS1g81Dn2V19tfE5Rz-Ny4V4UVTqL-9U3L2fLqfF2nTxWv0nddqNKwz0bbzlhu2joclQCtq7ze00Qr1eflOSkm2ggkjUKvqKSc1MSENvRqKSS-ZO2nH2ksd7Mi4kufccFzejlLKOgmHRaYM2W7ohSbqINiwdHbsNRgq8k8oECoPC4XMMcz05ixVmELGTB1NZeqXRy0M0PFb7P8C-ieBz3rUesF3hkiVCeiVQ7IoZhZAoUq8biXFP9u922QclLD_6ke5jcXn5eR75WF-9WM6BHUEjhAwRumj7pmmY27Mg3aOJvs6AvTG6FevcpHMjPGvgWu1DB_0000?></g></svg>