<?plantuml 1.2026.2beta3?><svg xmlns="http://www.w3.org/2000/svg" xmlns:xlink="http://www.w3.org/1999/xlink" contentStyleType="text/css" data-diagram-type="CLASS" height="610px" preserveAspectRatio="none" style="width:649px;height:610px;background:#FEFEFE;" version="1.1" viewBox="0 0 649 610" width="649px" zoomAndPan="magnify"><title>Builder Pattern - BEFORE (Current State)</title><defs/><g><rect fill="#FEFEFE" height="610" style="stroke:none;stroke-width:1;" width="649" x="0" y="0"/><g class="title" data-source-line="1"><text fill="#000000" font-family="sans-serif" font-size="14" font-weight="bold" lengthAdjust="spacing" textLength="323.75" x="156.1122" y="22.9951">Builder Pattern - BEFORE (Current State)</text></g><!--class Customer--><g class="entity" data-qualified-name="Customer" data-source-line="5" id="ent0002"><rect fill="#FFE4E1" height="96.8906" rx="2.5" ry="2.5" style="stroke:#181818;stroke-width:0.5;" width="223.333" x="157.3" y="44.2969"/><ellipse cx="230.7146" cy="60.2969" fill="#ADD1B2" rx="11" ry="11" style="stroke:#181818;stroke-width:1;"/><path d="M233.6833,65.9375 Q233.1052,66.2344 232.4646,66.375 Q231.8239,66.5313 231.1208,66.5313 Q228.6208,66.5313 227.2927,64.8906 Q225.9802,63.2344 225.9802,60.1094 Q225.9802,56.9844 227.2927,55.3281 Q228.6208,53.6719 231.1208,53.6719 Q231.8239,53.6719 232.4646,53.8281 Q233.1208,53.9844 233.6833,54.2813 L233.6833,57 Q233.0583,56.4219 232.4646,56.1563 Q231.8708,55.875 231.2458,55.875 Q229.9021,55.875 229.2146,56.9531 Q228.5271,58.0156 228.5271,60.1094 Q228.5271,62.2031 229.2146,63.2813 Q229.9021,64.3438 231.2458,64.3438 Q231.8708,64.3438 232.4646,64.0781 Q233.0583,63.7969 233.6833,63.2188 L233.6833,65.9375 Z " fill="#000000"/><text fill="#000000" font-family="sans-serif" font-size="14" lengthAdjust="spacing" textLength="68.0039" x="251.2146" y="65.1436">Customer</text><line style="stroke:#181818;stroke-width:0.5;" x1="158.3" x2="379.633" y1="76.2969" y2="76.2969"/><g data-visibility-modifier="PRIVATE_FIELD"><rect fill="none" height="6" style="stroke:#C82930;stroke-width:1;" width="6" x="165.3" y="86.9453"/></g><text fill="#000000" font-family="sans-serif" font-size="14" lengthAdjust="spacing" textLength="85.9346" x="177.3" y="93.292">String name</text><g data-visibility-modifier="PRIVATE_FIELD"><rect fill="none" height="6" style="stroke:#C82930;stroke-width:1;" width="6" x="165.3" y="103.2422"/></g><text fill="#000000" font-family="sans-serif" font-size="14" lengthAdjust="spacing" textLength="84.8408" x="177.3" y="109.5889">String email</text><line style="stroke:#181818;stroke-width:0.5;" x1="158.3" x2="379.633" y1="116.8906" y2="116.8906"/><g data-visibility-modifier="PUBLIC_METHOD"><ellipse cx="168.3" cy="130.5391" fill="#84BE84" rx="3" ry="3" style="stroke:#038048;stroke-width:1;"/></g><text fill="#000000" font-family="sans-serif" font-size="14" lengthAdjust="spacing" textLength="197.333" x="177.3" y="133.8857">createOrder(...): FlightOrder</text></g><!--class FlightOrder--><g class="entity" data-qualified-name="FlightOrder" data-source-line="11" id="ent0003"><rect fill="#FFE4E1" height="210.9688" rx="2.5" ry="2.5" style="stroke:#181818;stroke-width:0.5;" width="233.9355" x="152" y="218.1869"/><ellipse cx="225.1616" cy="234.1869" fill="#ADD1B2" rx="11" ry="11" style="stroke:#181818;stroke-width:1;"/><path d="M228.1304,239.8275 Q227.5522,240.1244 226.9116,240.265 Q226.271,240.4213 225.5679,240.4213 Q223.0679,240.4213 221.7397,238.7806 Q220.4272,237.1244 220.4272,233.9994 Q220.4272,230.8744 221.7397,229.2181 Q223.0679,227.5619 225.5679,227.5619 Q226.271,227.5619 226.9116,227.7181 Q227.5679,227.8744 228.1304,228.1713 L228.1304,230.89 Q227.5054,230.3119 226.9116,230.0463 Q226.3179,229.765 225.6929,229.765 Q224.3491,229.765 223.6616,230.8431 Q222.9741,231.9056 222.9741,233.9994 Q222.9741,236.0931 223.6616,237.1713 Q224.3491,238.2338 225.6929,238.2338 Q226.3179,238.2338 226.9116,237.9681 Q227.5054,237.6869 228.1304,237.1088 L228.1304,239.8275 Z " fill="#000000"/><text fill="#000000" font-family="sans-serif" font-size="14" lengthAdjust="spacing" textLength="79.1123" x="245.6616" y="239.0336">FlightOrder</text><line style="stroke:#181818;stroke-width:0.5;" x1="153" x2="384.9355" y1="250.1869" y2="250.1869"/><g data-visibility-modifier="PRIVATE_FIELD"><rect fill="none" height="6" style="stroke:#C82930;stroke-width:1;" width="6" x="160" y="260.8353"/></g><text fill="#000000" font-family="sans-serif" font-size="14" lengthAdjust="spacing" textLength="52.6299" x="172" y="267.182">UUID id</text><g data-visibility-modifier="PRIVATE_FIELD"><rect fill="none" height="6" style="stroke:#C82930;stroke-width:1;" width="6" x="160" y="277.1322"/></g><text fill="#000000" font-family="sans-serif" font-size="14" lengthAdjust="spacing" textLength="138.3799" x="172" y="283.4789">Customer customer</text><g data-visibility-modifier="PRIVATE_FIELD"><rect fill="none" height="6" style="stroke:#C82930;stroke-width:1;" width="6" x="160" y="293.4291"/></g><text fill="#000000" font-family="sans-serif" font-size="14" lengthAdjust="spacing" textLength="204.8252" x="172" y="299.7757">List&lt;Passenger&gt; passengers</text><g data-visibility-modifier="PRIVATE_FIELD"><rect fill="none" height="6" style="stroke:#C82930;stroke-width:1;" width="6" x="160" y="309.7259"/></g><text fill="#000000" font-family="sans-serif" font-size="14" lengthAdjust="spacing" textLength="207.9355" x="172" y="316.0726">List&lt;ScheduledFlight&gt; flights</text><g data-visibility-modifier="PRIVATE_FIELD"><rect fill="none" height="6" style="stroke:#C82930;stroke-width:1;" width="6" x="160" y="326.0228"/></g><text fill="#000000" font-family="sans-serif" font-size="14" lengthAdjust="spacing" textLength="87.0078" x="172" y="332.3695">double price</text><g data-visibility-modifier="PRIVATE_FIELD"><rect fill="none" height="6" style="stroke:#C82930;stroke-width:1;" width="6" x="160" y="342.3197"/></g><text fill="#000000" font-family="sans-serif" font-size="14" lengthAdjust="spacing" textLength="118.6309" x="172" y="348.6664">boolean isClosed</text><line style="stroke:#181818;stroke-width:0.5;" x1="153" x2="384.9355" y1="355.9681" y2="355.9681"/><g data-visibility-modifier="PUBLIC_METHOD"><ellipse cx="163" cy="369.6166" fill="#84BE84" rx="3" ry="3" style="stroke:#038048;stroke-width:1;"/></g><text fill="#000000" font-family="sans-serif" font-size="14" lengthAdjust="spacing" textLength="207.1221" x="172" y="372.9632">setCustomer(Customer): void</text><g data-visibility-modifier="PUBLIC_METHOD"><ellipse cx="163" cy="385.9134" fill="#84BE84" rx="3" ry="3" style="stroke:#038048;stroke-width:1;"/></g><text fill="#000000" font-family="sans-serif" font-size="14" lengthAdjust="spacing" textLength="175.2324" x="172" y="389.2601">setPassengers(List): void</text><g data-visibility-modifier="PUBLIC_METHOD"><ellipse cx="163" cy="402.2103" fill="#84BE84" rx="3" ry="3" style="stroke:#038048;stroke-width:1;"/></g><text fill="#000000" font-family="sans-serif" font-size="14" lengthAdjust="spacing" textLength="153.2275" x="172" y="405.557">setPrice(double): void</text><g data-visibility-modifier="PUBLIC_METHOD"><ellipse cx="163" cy="418.5072" fill="#84BE84" rx="3" ry="3" style="stroke:#038048;stroke-width:1;"/></g><text fill="#000000" font-family="sans-serif" font-size="14" lengthAdjust="spacing" textLength="187.1475" x="172" y="421.8539">getScheduledFlights(): List</text></g><!--class Passenger--><g class="entity" data-qualified-name="Passenger" data-source-line="24" id="ent0004"><rect fill="#FFE4E1" height="64.2969" rx="2.5" ry="2.5" style="stroke:#181818;stroke-width:0.5;" width="111.9346" x="7" y="522.4569"/><ellipse cx="25.4124" cy="538.4569" fill="#ADD1B2" rx="11" ry="11" style="stroke:#181818;stroke-width:1;"/><path d="M28.3811,544.0975 Q27.803,544.3944 27.1624,544.535 Q26.5217,544.6913 25.8186,544.6913 Q23.3186,544.6913 21.9905,543.0506 Q20.678,541.3944 20.678,538.2694 Q20.678,535.1444 21.9905,533.4881 Q23.3186,531.8319 25.8186,531.8319 Q26.5217,531.8319 27.1624,531.9881 Q27.8186,532.1444 28.3811,532.4413 L28.3811,535.16 Q27.7561,534.5819 27.1624,534.3163 Q26.5686,534.035 25.9436,534.035 Q24.5999,534.035 23.9124,535.1131 Q23.2249,536.1756 23.2249,538.2694 Q23.2249,540.3631 23.9124,541.4413 Q24.5999,542.5038 25.9436,542.5038 Q26.5686,542.5038 27.1624,542.2381 Q27.7561,541.9569 28.3811,541.3788 L28.3811,544.0975 Z " fill="#000000"/><text fill="#000000" font-family="sans-serif" font-size="14" lengthAdjust="spacing" textLength="72.3516" x="40.1707" y="543.3036">Passenger</text><line style="stroke:#181818;stroke-width:0.5;" x1="8" x2="117.9346" y1="554.4569" y2="554.4569"/><g data-visibility-modifier="PRIVATE_FIELD"><rect fill="none" height="6" style="stroke:#C82930;stroke-width:1;" width="6" x="15" y="565.1053"/></g><text fill="#000000" font-family="sans-serif" font-size="14" lengthAdjust="spacing" textLength="85.9346" x="27" y="571.452">String name</text><line style="stroke:#181818;stroke-width:0.5;" x1="8" x2="117.9346" y1="578.7538" y2="578.7538"/></g><!--class ScheduledFlight--><g class="entity" data-qualified-name="ScheduledFlight" data-source-line="28" id="ent0005"><rect fill="#FFE4E1" height="96.8906" rx="2.5" ry="2.5" style="stroke:#181818;stroke-width:0.5;" width="230.8252" x="153.55" y="506.1569"/><ellipse cx="208.5622" cy="522.1569" fill="#ADD1B2" rx="11" ry="11" style="stroke:#181818;stroke-width:1;"/><path d="M211.531,527.7975 Q210.9528,528.0944 210.3122,528.235 Q209.6716,528.3913 208.9685,528.3913 Q206.4685,528.3913 205.1403,526.7506 Q203.8278,525.0944 203.8278,521.9694 Q203.8278,518.8444 205.1403,517.1881 Q206.4685,515.5319 208.9685,515.5319 Q209.6716,515.5319 210.3122,515.6881 Q210.9685,515.8444 211.531,516.1413 L211.531,518.86 Q210.906,518.2819 210.3122,518.0163 Q209.7185,517.735 209.0935,517.735 Q207.7497,517.735 207.0622,518.8131 Q206.3747,519.8756 206.3747,521.9694 Q206.3747,524.0631 207.0622,525.1413 Q207.7497,526.2038 209.0935,526.2038 Q209.7185,526.2038 210.3122,525.9381 Q210.906,525.6569 211.531,525.0788 L211.531,527.7975 Z " fill="#000000"/><text fill="#000000" font-family="sans-serif" font-size="14" lengthAdjust="spacing" textLength="112.3008" x="229.0622" y="527.0036">ScheduledFlight</text><line style="stroke:#181818;stroke-width:0.5;" x1="154.55" x2="383.3752" y1="538.1569" y2="538.1569"/><g data-visibility-modifier="PRIVATE_FIELD"><rect fill="none" height="6" style="stroke:#C82930;stroke-width:1;" width="6" x="161.55" y="548.8053"/></g><text fill="#000000" font-family="sans-serif" font-size="14" lengthAdjust="spacing" textLength="77.3418" x="173.55" y="555.152">int number</text><g data-visibility-modifier="PRIVATE_FIELD"><rect fill="none" height="6" style="stroke:#C82930;stroke-width:1;" width="6" x="161.55" y="565.1022"/></g><text fill="#000000" font-family="sans-serif" font-size="14" lengthAdjust="spacing" textLength="142.0576" x="173.55" y="571.4489">Date departureTime</text><g data-visibility-modifier="PRIVATE_FIELD"><rect fill="none" height="6" style="stroke:#C82930;stroke-width:1;" width="6" x="161.55" y="581.3991"/></g><text fill="#000000" font-family="sans-serif" font-size="14" lengthAdjust="spacing" textLength="204.8252" x="173.55" y="587.7457">List&lt;Passenger&gt; passengers</text><line style="stroke:#181818;stroke-width:0.5;" x1="154.55" x2="383.3752" y1="595.0475" y2="595.0475"/></g><g class="entity" data-qualified-name="GMN9" data-source-line="39" id="ent0010"><path d="M418.97,511.7669 L418.97,597.4309 A0,0 0 0 0 418.97,597.4309 L642.9744,597.4309 A0,0 0 0 0 642.9744,597.4309 L642.9744,521.7669 L632.9744,511.7669 L486.78,511.7669 L386.17,427.0869 L478.78,511.7669 L418.97,511.7669 A0,0 0 0 0 418.97,511.7669" fill="#FEFFDD" style="stroke:#181818;stroke-width:0.5;"/><path d="M632.9744,511.7669 L632.9744,521.7669 L642.9744,521.7669 L632.9744,511.7669" fill="#FEFFDD" style="stroke:#181818;stroke-width:0.5;"/><text fill="#000000" font-family="sans-serif" font-size="13" lengthAdjust="spacing" textLength="203.0044" x="424.97" y="528.8338">Multi-step creation with setters</text><text fill="#000000" font-family="sans-serif" font-size="13" lengthAdjust="spacing" textLength="182.2285" x="424.97" y="543.9666">Order of operations matters</text><text fill="#000000" font-family="sans-serif" font-size="13" lengthAdjust="spacing" textLength="162.1064" x="424.97" y="559.0994">No validation until usage</text><text fill="#000000" font-family="sans-serif" font-size="13" lengthAdjust="spacing" textLength="96.5732" x="424.97" y="574.2322">Mutable object</text><text fill="#000000" font-family="sans-serif" font-size="13" lengthAdjust="spacing" textLength="183.8662" x="424.97" y="589.365">Hard to track required fields</text></g><!--link Customer to FlightOrder--><g class="link" data-entity-1="ent0002" data-entity-2="ent0003" data-link-type="dependency" data-source-line="34" id="lnk6"><path codeLine="34" d="M268.97,141.4569 C268.97,163.7269 268.97,185.1969 268.97,211.9369" fill="none" id="Customer-to-FlightOrder" style="stroke:#181818;stroke-width:1;"/><polygon fill="#181818" points="268.97,217.9369,272.97,208.9369,268.97,212.9369,264.97,208.9369,268.97,217.9369" style="stroke:#181818;stroke-width:1;"/><text fill="#000000" font-family="sans-serif" font-size="13" lengthAdjust="spacing" textLength="48.3247" x="269.97" y="184.2538">creates</text></g><!--link FlightOrder to Passenger--><g class="link" data-entity-1="ent0003" data-entity-2="ent0004" data-link-type="dependency" data-source-line="35" id="lnk7"><path codeLine="35" d="M174.71,429.4269 C144.41,463.0969 117.1034,493.4367 95.3634,517.5967" fill="none" id="FlightOrder-to-Passenger" style="stroke:#181818;stroke-width:1;"/><polygon fill="#181818" points="91.35,522.0569,100.3435,518.0423,94.6945,518.3401,94.3966,512.6911,91.35,522.0569" style="stroke:#181818;stroke-width:1;"/><text fill="#000000" font-family="sans-serif" font-size="13" lengthAdjust="spacing" textLength="55.0278" x="148.97" y="472.2238">contains</text></g><!--link FlightOrder to ScheduledFlight--><g class="link" data-entity-1="ent0003" data-entity-2="ent0005" data-link-type="dependency" data-source-line="36" id="lnk8"><path codeLine="36" d="M268.97,429.4269 C268.97,456.1469 268.97,477.5869 268.97,499.8469" fill="none" id="FlightOrder-to-ScheduledFlight" style="stroke:#181818;stroke-width:1;"/><polygon fill="#181818" points="268.97,505.8469,272.97,496.8469,268.97,500.8469,264.97,496.8469,268.97,505.8469" style="stroke:#181818;stroke-width:1;"/><text fill="#000000" font-family="sans-serif" font-size="13" lengthAdjust="spacing" textLength="55.0278" x="269.97" y="472.2238">contains</text></g><?plantuml-src VLDDRzim3BtxLn3OnSNW00LwAeOSaZfeWNOjrlK7o1RZi9KbJwAwmx3_FlfBSvAYzi4o-VJU4qaniK7OH38QFJmfPlGM2jYKkySV9UJRw3rQXcTMZ1TPU2FRAQzQg5JzrdWNhTuwupnysPNzkq3KHeMmEOFjogloCik6B6nZODUAyfyCv2b4nvDjmAeMZoFOAZ93w2lK7iNDenVB-MgrkhY6dQ7cm4Ca-pkJBuA9_-NbxWP8Jtz9lfuMK_oU0dzx4Wwq3VerTFCoB07FzG5rDAX7eJNiX--CqIvMKjlEKpsVfNBEeB90OMjSG3sT9o3FJl9v8OTwTxH093iXxzNFyxrEFeeU9nla4wiX5qJFyhzOYVx3LYJO2L42ayo8ZMsLIdWZ7GADCWeSFVwarCzFQYiggID5iLusy7fgUiYMNUr1YKeWph8YUuuvSRr0PjQ9pygng8BR7mqIm4CqJ4LWx4PvSXP-4n_wUlCu3QE8x7GT-W4He5Lpzhk3TsL8ZrkZPJ8GWsfm86VL3uYhNh5c2Tmghu4Ti9TB0nv_HVAeOKzeTCZGQkZD_WC0?></g></svg>