<?plantuml 1.2026.2beta3?><svg xmlns="http://www.w3.org/2000/svg" xmlns:xlink="http://www.w3.org/1999/xlink" contentStyleType="text/css" data-diagram-type="CLASS" height="501px" preserveAspectRatio="none" style="width:749px;height:501px;background:#FEFEFE;" version="1.1" viewBox="0 0 749 501" width="749px" zoomAndPan="magnify"><title>Chain of Responsibility Pattern - BEFORE (Current State)</title><defs/><g><rect fill="#FEFEFE" height="501" style="stroke:none;stroke-width:1;" width="749" x="0" y="0"/><g class="title" data-source-line="1"><text fill="#000000" font-family="sans-serif" font-size="14" font-weight="bold" lengthAdjust="spacing" textLength="448.5879" x="143.4156" y="22.9951">Chain of Responsibility Pattern - BEFORE (Current State)</text></g><!--class Customer--><g class="entity" data-qualified-name="Customer" data-source-line="5" id="ent0002"><rect fill="#FFE4E1" height="113.1875" rx="2.5" ry="2.5" style="stroke:#181818;stroke-width:0.5;" width="223.333" x="315.69" y="44.2969"/><ellipse cx="389.1046" cy="60.2969" fill="#ADD1B2" rx="11" ry="11" style="stroke:#181818;stroke-width:1;"/><path d="M392.0733,65.9375 Q391.4952,66.2344 390.8546,66.375 Q390.2139,66.5313 389.5108,66.5313 Q387.0108,66.5313 385.6827,64.8906 Q384.3702,63.2344 384.3702,60.1094 Q384.3702,56.9844 385.6827,55.3281 Q387.0108,53.6719 389.5108,53.6719 Q390.2139,53.6719 390.8546,53.8281 Q391.5108,53.9844 392.0733,54.2813 L392.0733,57 Q391.4483,56.4219 390.8546,56.1563 Q390.2608,55.875 389.6358,55.875 Q388.2921,55.875 387.6046,56.9531 Q386.9171,58.0156 386.9171,60.1094 Q386.9171,62.2031 387.6046,63.2813 Q388.2921,64.3438 389.6358,64.3438 Q390.2608,64.3438 390.8546,64.0781 Q391.4483,63.7969 392.0733,63.2188 L392.0733,65.9375 Z " fill="#000000"/><text fill="#000000" font-family="sans-serif" font-size="14" lengthAdjust="spacing" textLength="68.0039" x="409.6046" y="65.1436">Customer</text><line style="stroke:#181818;stroke-width:0.5;" x1="316.69" x2="538.023" y1="76.2969" y2="76.2969"/><g data-visibility-modifier="PRIVATE_FIELD"><rect fill="none" height="6" style="stroke:#C82930;stroke-width:1;" width="6" x="323.69" y="86.9453"/></g><text fill="#000000" font-family="sans-serif" font-size="14" lengthAdjust="spacing" textLength="85.9346" x="335.69" y="93.292">String name</text><g data-visibility-modifier="PRIVATE_FIELD"><rect fill="none" height="6" style="stroke:#C82930;stroke-width:1;" width="6" x="323.69" y="103.2422"/></g><text fill="#000000" font-family="sans-serif" font-size="14" lengthAdjust="spacing" textLength="84.8408" x="335.69" y="109.5889">String email</text><line style="stroke:#181818;stroke-width:0.5;" x1="316.69" x2="538.023" y1="116.8906" y2="116.8906"/><g data-visibility-modifier="PUBLIC_METHOD"><ellipse cx="326.69" cy="130.5391" fill="#84BE84" rx="3" ry="3" style="stroke:#038048;stroke-width:1;"/></g><text fill="#000000" font-family="sans-serif" font-size="14" lengthAdjust="spacing" textLength="197.333" x="335.69" y="133.8857">createOrder(...): FlightOrder</text><g data-visibility-modifier="PRIVATE_METHOD"><rect fill="#F24D5C" height="6" style="stroke:#C82930;stroke-width:1;" width="6" x="323.69" y="143.8359"/></g><text fill="#000000" font-family="sans-serif" font-size="14" lengthAdjust="spacing" textLength="175.4512" x="335.69" y="150.1826">isOrderValid(...): boolean</text></g><!--class FlightOrder--><g class="entity" data-qualified-name="FlightOrder" data-source-line="12" id="ent0003"><rect fill="#FFE4E1" height="80.5938" rx="2.5" ry="2.5" style="stroke:#181818;stroke-width:0.5;" width="379.1104" x="57.8" y="237.0169"/><ellipse cx="203.549" cy="253.0169" fill="#ADD1B2" rx="11" ry="11" style="stroke:#181818;stroke-width:1;"/><path d="M206.5178,258.6575 Q205.9396,258.9544 205.299,259.095 Q204.6584,259.2513 203.9553,259.2513 Q201.4553,259.2513 200.1271,257.6106 Q198.8146,255.9544 198.8146,252.8294 Q198.8146,249.7044 200.1271,248.0481 Q201.4553,246.3919 203.9553,246.3919 Q204.6584,246.3919 205.299,246.5481 Q205.9553,246.7044 206.5178,247.0013 L206.5178,249.72 Q205.8928,249.1419 205.299,248.8763 Q204.7053,248.595 204.0803,248.595 Q202.7365,248.595 202.049,249.6731 Q201.3615,250.7356 201.3615,252.8294 Q201.3615,254.9231 202.049,256.0013 Q202.7365,257.0638 204.0803,257.0638 Q204.7053,257.0638 205.299,256.7981 Q205.8928,256.5169 206.5178,255.9388 L206.5178,258.6575 Z " fill="#000000"/><text fill="#000000" font-family="sans-serif" font-size="14" lengthAdjust="spacing" textLength="79.1123" x="224.049" y="257.8636">FlightOrder</text><line style="stroke:#181818;stroke-width:0.5;" x1="58.8" x2="435.9104" y1="269.0169" y2="269.0169"/><g data-visibility-modifier="PRIVATE_FIELD"><rect fill="none" height="6" style="stroke:#C82930;stroke-width:1;" width="6" x="65.8" y="279.6653"/></g><text fill="#000000" font-family="sans-serif" font-size="14" lengthAdjust="spacing" textLength="207.9355" x="77.8" y="286.012">List&lt;ScheduledFlight&gt; flights</text><line style="stroke:#181818;stroke-width:0.5;" x1="58.8" x2="435.9104" y1="293.3138" y2="293.3138"/><g data-visibility-modifier="PUBLIC_METHOD"><ellipse cx="68.8" cy="306.9622" fill="#84BE84" rx="3" ry="3" style="stroke:#038048;stroke-width:1;"/></g><text fill="#000000" font-family="sans-serif" font-size="14" lengthAdjust="spacing" textLength="353.1104" x="77.8" y="310.3089">processOrderWithCreditCard(CreditCard): boolean</text></g><!--class ScheduledFlight--><g class="entity" data-qualified-name="ScheduledFlight" data-source-line="17" id="ent0004"><rect fill="#FFE4E1" height="96.8906" rx="2.5" ry="2.5" style="stroke:#181818;stroke-width:0.5;" width="212.7031" x="7" y="397.1469"/><ellipse cx="52.9512" cy="413.1469" fill="#ADD1B2" rx="11" ry="11" style="stroke:#181818;stroke-width:1;"/><path d="M55.9199,418.7875 Q55.3418,419.0844 54.7012,419.225 Q54.0605,419.3813 53.3574,419.3813 Q50.8574,419.3813 49.5293,417.7406 Q48.2168,416.0844 48.2168,412.9594 Q48.2168,409.8344 49.5293,408.1781 Q50.8574,406.5219 53.3574,406.5219 Q54.0605,406.5219 54.7012,406.6781 Q55.3574,406.8344 55.9199,407.1313 L55.9199,409.85 Q55.2949,409.2719 54.7012,409.0063 Q54.1074,408.725 53.4824,408.725 Q52.1387,408.725 51.4512,409.8031 Q50.7637,410.8656 50.7637,412.9594 Q50.7637,415.0531 51.4512,416.1313 Q52.1387,417.1938 53.4824,417.1938 Q54.1074,417.1938 54.7012,416.9281 Q55.2949,416.6469 55.9199,416.0688 L55.9199,418.7875 Z " fill="#000000"/><text fill="#000000" font-family="sans-serif" font-size="14" lengthAdjust="spacing" textLength="112.3008" x="73.4512" y="417.9936">ScheduledFlight</text><line style="stroke:#181818;stroke-width:0.5;" x1="8" x2="218.7031" y1="429.1469" y2="429.1469"/><g data-visibility-modifier="PRIVATE_FIELD"><rect fill="none" height="6" style="stroke:#C82930;stroke-width:1;" width="6" x="15" y="439.7953"/></g><text fill="#000000" font-family="sans-serif" font-size="14" lengthAdjust="spacing" textLength="77.3418" x="27" y="446.142">int number</text><g data-visibility-modifier="PRIVATE_FIELD"><rect fill="none" height="6" style="stroke:#C82930;stroke-width:1;" width="6" x="15" y="456.0922"/></g><text fill="#000000" font-family="sans-serif" font-size="14" lengthAdjust="spacing" textLength="81.8057" x="27" y="462.4389">int capacity</text><line style="stroke:#181818;stroke-width:0.5;" x1="8" x2="218.7031" y1="469.7406" y2="469.7406"/><g data-visibility-modifier="PUBLIC_METHOD"><ellipse cx="18" cy="483.3891" fill="#84BE84" rx="3" ry="3" style="stroke:#038048;stroke-width:1;"/></g><text fill="#000000" font-family="sans-serif" font-size="14" lengthAdjust="spacing" textLength="186.7031" x="27" y="486.7357">getAvailableCapacity(): int</text></g><g class="entity" data-qualified-name="GMN7" data-source-line="27" id="ent0008"><path d="M472.28,234.4869 L472.28,320.1509 A0,0 0 0 0 472.28,320.1509 L742.4192,320.1509 A0,0 0 0 0 742.4192,320.1509 L742.4192,244.4869 L732.4192,234.4869 L567.84,234.4869 L484.8,157.5569 L559.84,234.4869 L472.28,234.4869 A0,0 0 0 0 472.28,234.4869" fill="#FEFFDD" style="stroke:#181818;stroke-width:0.5;"/><path d="M732.4192,234.4869 L732.4192,244.4869 L742.4192,244.4869 L732.4192,234.4869" fill="#FEFFDD" style="stroke:#181818;stroke-width:0.5;"/><text fill="#000000" font-family="sans-serif" font-size="13" lengthAdjust="spacing" textLength="242.9058" x="478.28" y="251.5538">Validation logic mixed in one method</text><text fill="#000000" font-family="sans-serif" font-size="13" lengthAdjust="spacing" textLength="230.4517" x="478.28" y="266.6866">Multiple concerns in single function</text><text fill="#000000" font-family="sans-serif" font-size="13" lengthAdjust="spacing" textLength="219.7495" x="478.28" y="281.8194">Hard to test individual validations</text><text fill="#000000" font-family="sans-serif" font-size="13" lengthAdjust="spacing" textLength="220.7842" x="478.28" y="296.9522">Difficult to modify validation rules</text><text fill="#000000" font-family="sans-serif" font-size="13" lengthAdjust="spacing" textLength="249.1392" x="478.28" y="312.085">Not reusable across different contexts</text></g><g class="entity" data-qualified-name="GMN10" data-source-line="35" id="ent0011"><path d="M254.28,425.4569 L254.28,465.7225 A0,0 0 0 0 254.28,465.7225 L508.4231,465.7225 A0,0 0 0 0 508.4231,465.7225 L508.4231,435.4569 L498.4231,425.4569 L369.62,425.4569 L279.11,317.7169 L361.62,425.4569 L254.28,425.4569 A0,0 0 0 0 254.28,425.4569" fill="#FEFFDD" style="stroke:#181818;stroke-width:0.5;"/><path d="M498.4231,425.4569 L498.4231,435.4569 L508.4231,435.4569 L498.4231,425.4569" fill="#FEFFDD" style="stroke:#181818;stroke-width:0.5;"/><text fill="#000000" font-family="sans-serif" font-size="13" lengthAdjust="spacing" textLength="233.1431" x="260.28" y="442.5238">Additional validation scattered here</text><text fill="#000000" font-family="sans-serif" font-size="13" lengthAdjust="spacing" textLength="206.8511" x="260.28" y="457.6566">No clear separation of concerns</text></g><!--link Customer to FlightOrder--><g class="link" data-entity-1="ent0002" data-entity-2="ent0003" data-link-type="dependency" data-source-line="23" id="lnk5"><path codeLine="23" d="M369.9,157.5569 C343.36,183.2769 316.7591,209.0617 292.6191,232.4517" fill="none" id="Customer-to-FlightOrder" style="stroke:#181818;stroke-width:1;"/><polygon fill="#181818" points="288.31,236.6269,297.557,233.2368,291.9009,233.1476,291.9901,227.4914,288.31,236.6269" style="stroke:#181818;stroke-width:1;"/><text fill="#000000" font-family="sans-serif" font-size="13" lengthAdjust="spacing" textLength="140.0166" x="338.35" y="200.5538">creates and validates</text></g><!--link FlightOrder to ScheduledFlight--><g class="link" data-entity-1="ent0003" data-entity-2="ent0004" data-link-type="dependency" data-source-line="24" id="lnk6"><path codeLine="24" d="M215.6,317.7169 C196.48,341.4369 175.7736,367.124 155.5736,392.204" fill="none" id="FlightOrder-to-ScheduledFlight" style="stroke:#181818;stroke-width:1;"/><polygon fill="#181818" points="151.81,396.8769,160.5706,392.3767,154.9463,392.9829,154.3402,387.3586,151.81,396.8769" style="stroke:#181818;stroke-width:1;"/><text fill="#000000" font-family="sans-serif" font-size="13" lengthAdjust="spacing" textLength="29.7832" x="190.35" y="363.2138">uses</text></g><?plantuml-src RLF1Qjmm4BtxAmPwsL1seT3JKWA9wwM7jYa9fEUnDBQ7o9AHHaj2wRztvFLkTfFQO5kZftblteo5nH7K0xA7qC4zfIdun2qxbXVuXI8KFQpXjjdTtJUmgdECv0KU18MkglJ4ViA88xHedleOihTrS272XrrJxZE4SPZIxJlOhldSVAggUHVgd2IC5E5F1NgjbIUoxy7ZI9SH6f7T7Fe89fAgkOkMucgpsLnjOUUu7sIEBCSupQj7T6mNK1k28_JLtoFxsQcJWE-SvCk36SXcH_Q0k8PkVgU5Vuh1K3eG_6OPwaYMfSPeLw-V_oDya_T4okgmpsFxgbu31YSqsfM5j2UvsQi7s3ggbwsLaYYq49oSNA-lpmlRBcubG6zXN-meg-gyzdBaZRGjvAIeoWSXhKCqTvcN8ujgUZoauk31XPuDZFnC5ifSUOAHP0XMOJ-o4vvqvapmHcSh5KJIZcgeozwK10hxfew1151feWZBUxOPtL6mWehvNxdhs6Z60Xs3vUxb305HzHVOpo0GAQTY5Q29GQrNR4VpAAiGeMTj9gaXfRvtLLvEqutLZchw2pMGpFolQCM3FcTIdNZ228dA_CyWpNKi-yJs3m00?></g></svg>