<?plantuml 1.2026.2beta3?><svg xmlns="http://www.w3.org/2000/svg" xmlns:xlink="http://www.w3.org/1999/xlink" contentStyleType="text/css" data-diagram-type="CLASS" height="452px" preserveAspectRatio="none" style="width:2115px;height:452px;background:#FEFEFE;" version="1.1" viewBox="0 0 2115 452" width="2115px" zoomAndPan="magnify"><title>Chain of Responsibility Pattern - AFTER (With Chain of Responsibility)</title><defs/><g><rect fill="#FEFEFE" height="452" style="stroke:none;stroke-width:1;" width="2115" x="0" y="0"/><g class="title" data-source-line="1"><text fill="#000000" font-family="sans-serif" font-size="14" font-weight="bold" lengthAdjust="spacing" textLength="552.6172" x="774.3468" y="22.9951">Chain of Responsibility Pattern - AFTER (With Chain of Responsibility)</text></g><!--class FlightBookingRequest--><g class="entity" data-qualified-name="FlightBookingRequest" data-source-line="5" id="ent0002"><rect fill="#E1FFE4" height="210.9688" rx="2.5" ry="2.5" style="stroke:#181818;stroke-width:0.5;" width="279.7432" x="7" y="234.4869"/><ellipse cx="66.0864" cy="250.4869" fill="#ADD1B2" rx="11" ry="11" style="stroke:#181818;stroke-width:1;"/><path d="M69.0552,256.1275 Q68.4771,256.4244 67.8364,256.565 Q67.1958,256.7213 66.4927,256.7213 Q63.9927,256.7213 62.6646,255.0806 Q61.3521,253.4244 61.3521,250.2994 Q61.3521,247.1744 62.6646,245.5181 Q63.9927,243.8619 66.4927,243.8619 Q67.1958,243.8619 67.8364,244.0181 Q68.4927,244.1744 69.0552,244.4713 L69.0552,247.19 Q68.4302,246.6119 67.8364,246.3463 Q67.2427,246.065 66.6177,246.065 Q65.2739,246.065 64.5864,247.1431 Q63.8989,248.2056 63.8989,250.2994 Q63.8989,252.3931 64.5864,253.4713 Q65.2739,254.5338 66.6177,254.5338 Q67.2427,254.5338 67.8364,254.2681 Q68.4302,253.9869 69.0552,253.4088 L69.0552,256.1275 Z " fill="#000000"/><text fill="#000000" font-family="sans-serif" font-size="14" lengthAdjust="spacing" textLength="153.0703" x="86.5864" y="255.3336">FlightBookingRequest</text><line style="stroke:#181818;stroke-width:0.5;" x1="8" x2="285.7432" y1="266.4869" y2="266.4869"/><g data-visibility-modifier="PRIVATE_FIELD"><rect fill="none" height="6" style="stroke:#C82930;stroke-width:1;" width="6" x="15" y="277.1353"/></g><text fill="#000000" font-family="sans-serif" font-size="14" lengthAdjust="spacing" textLength="138.3799" x="27" y="283.482">Customer customer</text><g data-visibility-modifier="PRIVATE_FIELD"><rect fill="none" height="6" style="stroke:#C82930;stroke-width:1;" width="6" x="15" y="293.4322"/></g><text fill="#000000" font-family="sans-serif" font-size="14" lengthAdjust="spacing" textLength="215.5576" x="27" y="299.7789">List&lt;String&gt; passengerNames</text><g data-visibility-modifier="PRIVATE_FIELD"><rect fill="none" height="6" style="stroke:#C82930;stroke-width:1;" width="6" x="15" y="309.7291"/></g><text fill="#000000" font-family="sans-serif" font-size="14" lengthAdjust="spacing" textLength="207.9355" x="27" y="316.0757">List&lt;ScheduledFlight&gt; flights</text><g data-visibility-modifier="PRIVATE_FIELD"><rect fill="none" height="6" style="stroke:#C82930;stroke-width:1;" width="6" x="15" y="326.0259"/></g><text fill="#000000" font-family="sans-serif" font-size="14" lengthAdjust="spacing" textLength="87.0078" x="27" y="332.3726">double price</text><g data-visibility-modifier="PRIVATE_FIELD"><rect fill="none" height="6" style="stroke:#C82930;stroke-width:1;" width="6" x="15" y="342.3228"/></g><text fill="#000000" font-family="sans-serif" font-size="14" lengthAdjust="spacing" textLength="159.2705" x="27" y="348.6695">String rejectionReason</text><line style="stroke:#181818;stroke-width:0.5;" x1="8" x2="285.7432" y1="355.9713" y2="355.9713"/><g data-visibility-modifier="PUBLIC_METHOD"><ellipse cx="18" cy="369.6197" fill="#84BE84" rx="3" ry="3" style="stroke:#038048;stroke-width:1;"/></g><text fill="#000000" font-family="sans-serif" font-size="14" lengthAdjust="spacing" textLength="179.0879" x="27" y="372.9664">getCustomer(): Customer</text><g data-visibility-modifier="PUBLIC_METHOD"><ellipse cx="18" cy="385.9166" fill="#84BE84" rx="3" ry="3" style="stroke:#038048;stroke-width:1;"/></g><text fill="#000000" font-family="sans-serif" font-size="14" lengthAdjust="spacing" textLength="253.7432" x="27" y="389.2632">getPassengerNames(): List&lt;String&gt;</text><g data-visibility-modifier="PUBLIC_METHOD"><ellipse cx="18" cy="402.2134" fill="#84BE84" rx="3" ry="3" style="stroke:#038048;stroke-width:1;"/></g><text fill="#000000" font-family="sans-serif" font-size="14" lengthAdjust="spacing" textLength="249.6895" x="27" y="405.5601">getFlights(): List&lt;ScheduledFlight&gt;</text><g data-visibility-modifier="PUBLIC_METHOD"><ellipse cx="18" cy="418.5103" fill="#84BE84" rx="3" ry="3" style="stroke:#038048;stroke-width:1;"/></g><text fill="#000000" font-family="sans-serif" font-size="14" lengthAdjust="spacing" textLength="125.1934" x="27" y="421.857">getPrice(): double</text><g data-visibility-modifier="PUBLIC_METHOD"><ellipse cx="18" cy="434.8072" fill="#84BE84" rx="3" ry="3" style="stroke:#038048;stroke-width:1;"/></g><text fill="#000000" font-family="sans-serif" font-size="14" lengthAdjust="spacing" textLength="201.8721" x="27" y="438.1539">getRejectionReason(): String</text></g><!--class FlightBookingValidator--><g class="entity" data-qualified-name="FlightBookingValidator" data-source-line="18" id="ent0003"><rect fill="#E1FFE4" height="113.1875" rx="2.5" ry="2.5" style="stroke:#181818;stroke-width:0.5;" width="408.4434" x="836.65" y="44.2969"/><ellipse cx="957.2291" cy="60.2969" fill="#A9DCDF" rx="11" ry="11" style="stroke:#181818;stroke-width:1;"/><path d="M957.3385,55.6406 L956.1822,60.7188 L958.5104,60.7188 L957.3385,55.6406 Z M955.8541,53.4063 L958.8385,53.4063 L962.1979,65.7969 L959.7447,65.7969 L958.9791,62.7344 L955.6979,62.7344 L954.9479,65.7969 L952.5104,65.7969 L955.8541,53.4063 Z " fill="#000000"/><text fill="#000000" font-family="sans-serif" font-size="14" font-style="italic" lengthAdjust="spacing" textLength="158.7852" x="977.7291" y="65.1436">FlightBookingValidator</text><line style="stroke:#181818;stroke-width:0.5;" x1="837.65" x2="1244.0934" y1="76.2969" y2="76.2969"/><g data-visibility-modifier="PROTECTED_FIELD"><polygon fill="none" points="847.65,84.9453,851.65,88.9453,847.65,92.9453,843.65,88.9453" style="stroke:#B38D22;stroke-width:1;"/></g><text fill="#000000" font-family="sans-serif" font-size="14" lengthAdjust="spacing" textLength="257.708" x="856.65" y="93.292">FlightBookingValidator nextValidator</text><line style="stroke:#181818;stroke-width:0.5;" x1="837.65" x2="1244.0934" y1="100.5938" y2="100.5938"/><g data-visibility-modifier="PUBLIC_METHOD"><ellipse cx="847.65" cy="114.2422" fill="#84BE84" rx="3" ry="3" style="stroke:#038048;stroke-width:1;"/></g><text fill="#000000" font-family="sans-serif" font-size="14" lengthAdjust="spacing" textLength="382.4434" x="856.65" y="117.5889">validate(FlightBookingRequest): FlightBookingRequest</text><g data-visibility-modifier="PROTECTED_METHOD"><polygon fill="#FFFF44" points="847.65,125.5391,851.65,129.5391,847.65,133.5391,843.65,129.5391" style="stroke:#B38D22;stroke-width:1;"/></g><text fill="#000000" font-family="sans-serif" font-size="14" font-style="italic" lengthAdjust="spacing" textLength="316.8047" x="856.65" y="133.8857">doValidation(FlightBookingRequest): boolean</text><g data-visibility-modifier="PUBLIC_METHOD"><ellipse cx="847.65" cy="146.8359" fill="#84BE84" rx="3" ry="3" style="stroke:#038048;stroke-width:1;"/></g><text fill="#000000" font-family="sans-serif" font-size="14" lengthAdjust="spacing" textLength="325.9717" x="856.65" y="150.1826">setNextValidator(FlightBookingValidator): void</text></g><!--class NoFlyListValidator--><g class="entity" data-qualified-name="NoFlyListValidator" data-source-line="25" id="ent0004"><rect fill="#E1FFE4" height="64.2969" rx="2.5" ry="2.5" style="stroke:#181818;stroke-width:0.5;" width="342.8047" x="321.47" y="307.8269"/><ellipse cx="425.1472" cy="323.8269" fill="#ADD1B2" rx="11" ry="11" style="stroke:#181818;stroke-width:1;"/><path d="M428.116,329.4675 Q427.5379,329.7644 426.8972,329.905 Q426.2566,330.0613 425.5535,330.0613 Q423.0535,330.0613 421.7254,328.4206 Q420.4129,326.7644 420.4129,323.6394 Q420.4129,320.5144 421.7254,318.8581 Q423.0535,317.2019 425.5535,317.2019 Q426.2566,317.2019 426.8972,317.3581 Q427.5535,317.5144 428.116,317.8113 L428.116,320.53 Q427.491,319.9519 426.8972,319.6863 Q426.3035,319.405 425.6785,319.405 Q424.3347,319.405 423.6472,320.4831 Q422.9597,321.5456 422.9597,323.6394 Q422.9597,325.7331 423.6472,326.8113 Q424.3347,327.8738 425.6785,327.8738 Q426.3035,327.8738 426.8972,327.6081 Q427.491,327.3269 428.116,326.7488 L428.116,329.4675 Z " fill="#000000"/><text fill="#000000" font-family="sans-serif" font-size="14" lengthAdjust="spacing" textLength="126.9502" x="445.6472" y="328.6736">NoFlyListValidator</text><line style="stroke:#181818;stroke-width:0.5;" x1="322.47" x2="663.2747" y1="339.8269" y2="339.8269"/><line style="stroke:#181818;stroke-width:0.5;" x1="322.47" x2="663.2747" y1="347.8269" y2="347.8269"/><g data-visibility-modifier="PROTECTED_METHOD"><polygon fill="#FFFF44" points="332.47,356.4753,336.47,360.4753,332.47,364.4753,328.47,360.4753" style="stroke:#B38D22;stroke-width:1;"/></g><text fill="#000000" font-family="sans-serif" font-size="14" lengthAdjust="spacing" textLength="316.8047" x="341.47" y="364.822">doValidation(FlightBookingRequest): boolean</text></g><!--class CapacityValidator--><g class="entity" data-qualified-name="CapacityValidator" data-source-line="29" id="ent0006"><rect fill="#E1FFE4" height="64.2969" rx="2.5" ry="2.5" style="stroke:#181818;stroke-width:0.5;" width="342.8047" x="699.47" y="307.8269"/><ellipse cx="804.4256" cy="323.8269" fill="#ADD1B2" rx="11" ry="11" style="stroke:#181818;stroke-width:1;"/><path d="M807.3943,329.4675 Q806.8162,329.7644 806.1756,329.905 Q805.5349,330.0613 804.8318,330.0613 Q802.3318,330.0613 801.0037,328.4206 Q799.6912,326.7644 799.6912,323.6394 Q799.6912,320.5144 801.0037,318.8581 Q802.3318,317.2019 804.8318,317.2019 Q805.5349,317.2019 806.1756,317.3581 Q806.8318,317.5144 807.3943,317.8113 L807.3943,320.53 Q806.7693,319.9519 806.1756,319.6863 Q805.5818,319.405 804.9568,319.405 Q803.6131,319.405 802.9256,320.4831 Q802.2381,321.5456 802.2381,323.6394 Q802.2381,325.7331 802.9256,326.8113 Q803.6131,327.8738 804.9568,327.8738 Q805.5818,327.8738 806.1756,327.6081 Q806.7693,327.3269 807.3943,326.7488 L807.3943,329.4675 Z " fill="#000000"/><text fill="#000000" font-family="sans-serif" font-size="14" lengthAdjust="spacing" textLength="124.3936" x="824.9256" y="328.6736">CapacityValidator</text><line style="stroke:#181818;stroke-width:0.5;" x1="700.47" x2="1041.2747" y1="339.8269" y2="339.8269"/><line style="stroke:#181818;stroke-width:0.5;" x1="700.47" x2="1041.2747" y1="347.8269" y2="347.8269"/><g data-visibility-modifier="PROTECTED_METHOD"><polygon fill="#FFFF44" points="710.47,356.4753,714.47,360.4753,710.47,364.4753,706.47,360.4753" style="stroke:#B38D22;stroke-width:1;"/></g><text fill="#000000" font-family="sans-serif" font-size="14" lengthAdjust="spacing" textLength="316.8047" x="719.47" y="364.822">doValidation(FlightBookingRequest): boolean</text></g><!--class CustomerHistoryValidator--><g class="entity" data-qualified-name="CustomerHistoryValidator" data-source-line="33" id="ent0008"><rect fill="#E1FFE4" height="64.2969" rx="2.5" ry="2.5" style="stroke:#181818;stroke-width:0.5;" width="342.8047" x="1077.47" y="307.8269"/><ellipse cx="1154.1111" cy="323.8269" fill="#ADD1B2" rx="11" ry="11" style="stroke:#181818;stroke-width:1;"/><path d="M1157.0799,329.4675 Q1156.5017,329.7644 1155.8611,329.905 Q1155.2205,330.0613 1154.5174,330.0613 Q1152.0174,330.0613 1150.6892,328.4206 Q1149.3767,326.7644 1149.3767,323.6394 Q1149.3767,320.5144 1150.6892,318.8581 Q1152.0174,317.2019 1154.5174,317.2019 Q1155.2205,317.2019 1155.8611,317.3581 Q1156.5174,317.5144 1157.0799,317.8113 L1157.0799,320.53 Q1156.4549,319.9519 1155.8611,319.6863 Q1155.2674,319.405 1154.6424,319.405 Q1153.2986,319.405 1152.6111,320.4831 Q1151.9236,321.5456 1151.9236,323.6394 Q1151.9236,325.7331 1152.6111,326.8113 Q1153.2986,327.8738 1154.6424,327.8738 Q1155.2674,327.8738 1155.8611,327.6081 Q1156.4549,327.3269 1157.0799,326.7488 L1157.0799,329.4675 Z " fill="#000000"/><text fill="#000000" font-family="sans-serif" font-size="14" lengthAdjust="spacing" textLength="181.0225" x="1174.6111" y="328.6736">CustomerHistoryValidator</text><line style="stroke:#181818;stroke-width:0.5;" x1="1078.47" x2="1419.2747" y1="339.8269" y2="339.8269"/><line style="stroke:#181818;stroke-width:0.5;" x1="1078.47" x2="1419.2747" y1="347.8269" y2="347.8269"/><g data-visibility-modifier="PROTECTED_METHOD"><polygon fill="#FFFF44" points="1088.47,356.4753,1092.47,360.4753,1088.47,364.4753,1084.47,360.4753" style="stroke:#B38D22;stroke-width:1;"/></g><text fill="#000000" font-family="sans-serif" font-size="14" lengthAdjust="spacing" textLength="316.8047" x="1097.47" y="364.822">doValidation(FlightBookingRequest): boolean</text></g><!--class PriceValidator--><g class="entity" data-qualified-name="PriceValidator" data-source-line="37" id="ent0010"><rect fill="#E1FFE4" height="64.2969" rx="2.5" ry="2.5" style="stroke:#181818;stroke-width:0.5;" width="342.8047" x="1455.47" y="307.8269"/><ellipse cx="1573.8172" cy="323.8269" fill="#ADD1B2" rx="11" ry="11" style="stroke:#181818;stroke-width:1;"/><path d="M1576.7859,329.4675 Q1576.2078,329.7644 1575.5672,329.905 Q1574.9265,330.0613 1574.2234,330.0613 Q1571.7234,330.0613 1570.3953,328.4206 Q1569.0828,326.7644 1569.0828,323.6394 Q1569.0828,320.5144 1570.3953,318.8581 Q1571.7234,317.2019 1574.2234,317.2019 Q1574.9265,317.2019 1575.5672,317.3581 Q1576.2234,317.5144 1576.7859,317.8113 L1576.7859,320.53 Q1576.1609,319.9519 1575.5672,319.6863 Q1574.9734,319.405 1574.3484,319.405 Q1573.0047,319.405 1572.3172,320.4831 Q1571.6297,321.5456 1571.6297,323.6394 Q1571.6297,325.7331 1572.3172,326.8113 Q1573.0047,327.8738 1574.3484,327.8738 Q1574.9734,327.8738 1575.5672,327.6081 Q1576.1609,327.3269 1576.7859,326.7488 L1576.7859,329.4675 Z " fill="#000000"/><text fill="#000000" font-family="sans-serif" font-size="14" lengthAdjust="spacing" textLength="97.6104" x="1594.3172" y="328.6736">PriceValidator</text><line style="stroke:#181818;stroke-width:0.5;" x1="1456.47" x2="1797.2747" y1="339.8269" y2="339.8269"/><line style="stroke:#181818;stroke-width:0.5;" x1="1456.47" x2="1797.2747" y1="347.8269" y2="347.8269"/><g data-visibility-modifier="PROTECTED_METHOD"><polygon fill="#FFFF44" points="1466.47,356.4753,1470.47,360.4753,1466.47,364.4753,1462.47,360.4753" style="stroke:#B38D22;stroke-width:1;"/></g><text fill="#000000" font-family="sans-serif" font-size="14" lengthAdjust="spacing" textLength="316.8047" x="1475.47" y="364.822">doValidation(FlightBookingRequest): boolean</text></g><g class="entity" data-qualified-name="GMN18" data-source-line="49" id="ent0019"><path d="M1833.43,289.5769 L1833.43,390.3738 L2108.3109,390.3738 L2108.3109,299.5769 L2098.3109,289.5769 L1833.43,289.5769" fill="#FEFFDD" style="stroke:#181818;stroke-width:0.5;"/><path d="M2098.3109,289.5769 L2098.3109,299.5769 L2108.3109,299.5769 L2098.3109,289.5769" fill="#FEFFDD" style="stroke:#181818;stroke-width:1;"/><text fill="#000000" font-family="sans-serif" font-size="13" lengthAdjust="spacing" textLength="253.8809" x="1839.43" y="306.6438">Each validator has single responsibility</text><text fill="#000000" font-family="sans-serif" font-size="13" lengthAdjust="spacing" textLength="164.1631" x="1839.43" y="321.7766">Validators linked in chain</text><text fill="#000000" font-family="sans-serif" font-size="13" lengthAdjust="spacing" textLength="198.3706" x="1839.43" y="336.9094">Request passed through chain</text><text fill="#000000" font-family="sans-serif" font-size="13" lengthAdjust="spacing" textLength="198.8657" x="1839.43" y="352.0422">Easy to add/remove validators</text><text fill="#000000" font-family="sans-serif" font-size="13" lengthAdjust="spacing" textLength="189.5537" x="1839.43" y="367.175">Validation order configurable</text><text fill="#000000" font-family="sans-serif" font-size="13" lengthAdjust="spacing" textLength="128.2734" x="1839.43" y="382.3078">Reusable validators</text></g><!--reverse link FlightBookingValidator to NoFlyListValidator--><g class="link" data-entity-1="ent0003" data-entity-2="ent0004" data-link-type="extension" data-source-line="26" id="lnk5"><path d="M840.0482,163.9634 C778.0082,185.8834 726.04,206.4769 664.87,234.4869 C617.15,256.3369 565.1,285.5369 530.51,307.5169" fill="none" id="FlightBookingValidator-backto-NoFlyListValidator" style="stroke:#181818;stroke-width:1;"/><polygon fill="none" points="857.02,157.9669,838.0494,158.3061,842.047,169.6206,857.02,157.9669" style="stroke:#181818;stroke-width:1;"/></g><!--link NoFlyListValidator to FlightBookingValidator--><g class="link" data-entity-1="ent0004" data-entity-2="ent0003" data-link-type="extension" data-source-line="43" id="lnk14"><path codeLine="43" d="M559.78,307.5169 C600.1,285.5369 652.15,256.3369 699.87,234.4869 C761.04,206.4769 813.0769,186.0745 872.9569,164.1545" fill="none" id="NoFlyListValidator-to-FlightBookingValidator" style="stroke:#181818;stroke-width:1;"/><polygon fill="none" points="889.86,157.9669,870.8944,158.5201,875.0195,169.7889,889.86,157.9669" style="stroke:#181818;stroke-width:1;"/></g><!--reverse link FlightBookingValidator to CapacityValidator--><g class="link" data-entity-1="ent0003" data-entity-2="ent0006" data-link-type="extension" data-source-line="30" id="lnk7"><path d="M978.7328,171.9803 C942.3928,218.6603 907.61,269.3369 884.47,307.4569" fill="none" id="FlightBookingValidator-backto-CapacityValidator" style="stroke:#181818;stroke-width:1;"/><polygon fill="none" points="989.79,157.7769,973.9983,168.2945,983.4672,175.666,989.79,157.7769" style="stroke:#181818;stroke-width:1;"/></g><!--link CapacityValidator to FlightBookingValidator--><g class="link" data-entity-1="ent0006" data-entity-2="ent0003" data-link-type="extension" data-source-line="44" id="lnk15"><path codeLine="44" d="M902.99,307.4569 C934.78,269.3369 972.188,219.5344 1002.628,172.8544" fill="none" id="CapacityValidator-to-FlightBookingValidator" style="stroke:#181818;stroke-width:1;"/><polygon fill="none" points="1012.46,157.7769,997.6021,169.577,1007.6538,176.1317,1012.46,157.7769" style="stroke:#181818;stroke-width:1;"/></g><!--reverse link FlightBookingValidator to CustomerHistoryValidator--><g class="link" data-entity-1="ent0003" data-entity-2="ent0008" data-link-type="extension" data-source-line="34" id="lnk9"><path d="M1090.2699,171.7231 C1128.3599,218.4031 1174.57,269.3369 1212.23,307.4569" fill="none" id="FlightBookingValidator-backto-CustomerHistoryValidator" style="stroke:#181818;stroke-width:1;"/><polygon fill="none" points="1078.89,157.7769,1085.6211,175.5164,1094.9186,167.9298,1078.89,157.7769" style="stroke:#181818;stroke-width:1;"/></g><!--link CustomerHistoryValidator to FlightBookingValidator--><g class="link" data-entity-1="ent0008" data-entity-2="ent0003" data-link-type="extension" data-source-line="45" id="lnk16"><path codeLine="45" d="M1230.75,307.4569 C1201.75,269.3369 1157.8949,217.5566 1113.9049,170.8766" fill="none" id="CustomerHistoryValidator-to-FlightBookingValidator" style="stroke:#181818;stroke-width:1;"/><polygon fill="none" points="1101.56,157.7769,1109.5383,174.9916,1118.2715,166.7617,1101.56,157.7769" style="stroke:#181818;stroke-width:1;"/></g><!--reverse link FlightBookingValidator to PriceValidator--><g class="link" data-entity-1="ent0003" data-entity-2="ent0010" data-link-type="extension" data-source-line="38" id="lnk11"><path d="M1232.929,163.4905 C1298.179,184.9505 1355.17,205.6469 1420.87,234.4869 C1469.28,255.7369 1521.7,285.2769 1561.86,307.5269" fill="none" id="FlightBookingValidator-backto-PriceValidator" style="stroke:#181818;stroke-width:1;"/><polygon fill="none" points="1215.83,157.8669,1231.0544,169.1902,1234.8035,157.7909,1215.83,157.8669" style="stroke:#181818;stroke-width:1;"/></g><!--link PriceValidator to FlightBookingValidator--><g class="link" data-entity-1="ent0010" data-entity-2="ent0003" data-link-type="extension" data-source-line="46" id="lnk17"><path codeLine="46" d="M1591.02,307.5269 C1556.7,285.2769 1504.28,255.7369 1455.87,234.4869 C1389.09,205.1669 1330.7954,183.9059 1262.6654,162.2659" fill="none" id="PriceValidator-to-FlightBookingValidator" style="stroke:#181818;stroke-width:1;"/><polygon fill="none" points="1245.51,156.8169,1260.8491,167.9844,1264.4818,156.5474,1245.51,156.8169" style="stroke:#181818;stroke-width:1;"/></g><!--link FlightBookingValidator to FlightBookingRequest--><g class="link" data-entity-1="ent0003" data-entity-2="ent0002" data-link-type="dependency" data-source-line="41" id="lnk12"><path codeLine="41" d="M836.47,116.1469 C684.99,132.0169 475.89,165.2669 303.87,234.4869 C298.25,236.7469 298.0514,236.6563 292.4414,239.3163" fill="none" id="FlightBookingValidator-to-FlightBookingRequest" style="stroke:#181818;stroke-width:1;"/><polygon fill="#181818" points="287.02,241.8869,296.8659,241.6453,291.5379,239.7447,293.4384,234.4167,287.02,241.8869" style="stroke:#181818;stroke-width:1;"/><text fill="#000000" font-family="sans-serif" font-size="13" lengthAdjust="spacing" textLength="58.9697" x="440.87" y="200.5538">validates</text></g><!--link FlightBookingValidator to FlightBookingValidator--><g class="link" data-entity-1="ent0003" data-entity-2="ent0003" data-link-type="dependency" data-source-line="42" id="lnk13"><path codeLine="42" d="M1245.47,86.1769 C1266.59,89.0669 1280.09,93.9769 1280.09,100.8969 C1280.09,107.8169 1272.5346,111.9034 1251.4146,114.7934" fill="none" id="FlightBookingValidator-to-FlightBookingValidator" style="stroke:#181818;stroke-width:1;"/><polygon fill="#181818" points="1245.47,115.6069,1254.9292,118.3498,1250.4238,114.929,1253.8446,110.4236,1245.47,115.6069" style="stroke:#181818;stroke-width:1;"/><text fill="#000000" font-family="sans-serif" font-size="13" lengthAdjust="spacing" textLength="94.8784" x="1286.09" y="105.4638">passes to next</text></g><!--link FlightBookingValidator to GMN18--><g class="link" data-entity-1="ent0003" data-entity-2="ent0019" data-link-type="association" data-source-line="49" id="lnk20"><path d="M1245.53,113.2969 C1405.6,127.7369 1631.21,160.4569 1815.87,234.4869 C1849.31,247.8969 1882.89,269.3169 1910.2,289.2869" fill="none" id="FlightBookingValidator-GMN18" style="stroke:#181818;stroke-width:1;stroke-dasharray:7,7;"/></g><?plantuml-src lLLDZzCm4BtdLuoqbwvGX90uLQWIMoNYWAfLG71sucbYcjh1dbHKo_vtnlbkIGeSsERGnFDctlFpP4AAIeHj8PG6iuS4NMMqKwag5PtXKH2XrH32-_XpbC3ggw9Y2NqVk8FIbR3Y2Ad83harjPPRKneBTt7ahmaYAuLp3zUmw4qSHs-3e8b2NAgye0TZE2jFy7kDZk0f0Fw5iAqTcIDQoBgRRlsZSlJk4rbEsK35PL3dQ7VYYEu2aHKewn9bIxA1VVFVOwIfKpQciYh3Rgcj2HQ_OKRAw0I5Cxe9le8SgHUqkbyFuiReuuKIZvaA7N6jd0dWIkUaejVcSQtMCP1SAlIGbYPu3WAHEh8Y8vYn-8iebHJ41z6QVBSKrlY3XgUE-DG-ushkr5Z2t7B7yjIBUkQzT7LP_bAbr9WIHU-yGzfDvQpcDNFUoIZfBMXtlZDnUVOMZzlYCgZb7qtv5uq3tLPK8kEtv8NOklxxmFipzeL8cuRytrGBrS9mCzjXww4ltL-d3g5rEpySa6bQFfZfcJ3ykPGU_7xcDz5BPtOhwShpMz106qAsafZ5J-y5640aigAtZMiMme5Z28z3Up7m6JgaEIYLFg04_Z9a_ll0mNvYDoPAe88dVLuCuKYuitTMIFdQuj6SS2HrOsrk2p1M-a5lz5xbjHNjj4kmTlvsciKD1twRlm00?></g></svg>