<?plantuml 1.2026.2beta3?><svg xmlns="http://www.w3.org/2000/svg" xmlns:xlink="http://www.w3.org/1999/xlink" contentStyleType="text/css" data-diagram-type="CLASS" height="371px" preserveAspectRatio="none" style="width:802px;height:371px;background:#FEFEFE;" version="1.1" viewBox="0 0 802 371" width="802px" zoomAndPan="magnify"><title>Factory Pattern - BEFORE (Current State)</title><defs/><g><rect fill="#FEFEFE" height="371" style="stroke:none;stroke-width:1;" width="802" x="0" y="0"/><g class="title" data-source-line="1"><text fill="#000000" font-family="sans-serif" font-size="14" font-weight="bold" lengthAdjust="spacing" textLength="326.7441" x="230.7076" y="22.9951">Factory Pattern - BEFORE (Current State)</text></g><!--class PassengerPlane--><g class="entity" data-qualified-name="PassengerPlane" data-source-line="5" id="ent0002"><rect fill="#FFE4E1" height="96.8906" rx="2.5" ry="2.5" style="stroke:#181818;stroke-width:0.5;" width="182.6797" x="7" y="259.5069"/><ellipse cx="39.9688" cy="275.5069" fill="#ADD1B2" rx="11" ry="11" style="stroke:#181818;stroke-width:1;"/><path d="M42.9375,281.1475 Q42.3594,281.4444 41.7188,281.585 Q41.0782,281.7413 40.375,281.7413 Q37.875,281.7413 36.5469,280.1006 Q35.2344,278.4444 35.2344,275.3194 Q35.2344,272.1944 36.5469,270.5381 Q37.875,268.8819 40.375,268.8819 Q41.0782,268.8819 41.7188,269.0381 Q42.375,269.1944 42.9375,269.4913 L42.9375,272.21 Q42.3125,271.6319 41.7188,271.3663 Q41.125,271.085 40.5,271.085 Q39.1563,271.085 38.4688,272.1631 Q37.7813,273.2256 37.7813,275.3194 Q37.7813,277.4131 38.4688,278.4913 Q39.1563,279.5538 40.5,279.5538 Q41.125,279.5538 41.7188,279.2881 Q42.3125,279.0069 42.9375,278.4288 L42.9375,281.1475 Z " fill="#000000"/><text fill="#000000" font-family="sans-serif" font-size="14" lengthAdjust="spacing" textLength="110.749" x="57.9619" y="280.3536">PassengerPlane</text><line style="stroke:#181818;stroke-width:0.5;" x1="8" x2="188.6797" y1="291.5069" y2="291.5069"/><g data-visibility-modifier="PUBLIC_FIELD"><ellipse cx="18" cy="305.1553" fill="none" rx="3" ry="3" style="stroke:#038048;stroke-width:1;"/></g><text fill="#000000" font-family="sans-serif" font-size="14" lengthAdjust="spacing" textLength="89.8242" x="27" y="308.502">String model</text><g data-visibility-modifier="PUBLIC_FIELD"><ellipse cx="18" cy="321.4522" fill="none" rx="3" ry="3" style="stroke:#038048;stroke-width:1;"/></g><text fill="#000000" font-family="sans-serif" font-size="14" lengthAdjust="spacing" textLength="156.6797" x="27" y="324.7989">int passengerCapacity</text><g data-visibility-modifier="PUBLIC_FIELD"><ellipse cx="18" cy="337.7491" fill="none" rx="3" ry="3" style="stroke:#038048;stroke-width:1;"/></g><text fill="#000000" font-family="sans-serif" font-size="14" lengthAdjust="spacing" textLength="117.4004" x="27" y="341.0957">int crewCapacity</text><line style="stroke:#181818;stroke-width:0.5;" x1="8" x2="188.6797" y1="348.3975" y2="348.3975"/></g><!--class Helicopter--><g class="entity" data-qualified-name="Helicopter" data-source-line="11" id="ent0003"><rect fill="#FFE4E1" height="113.1875" rx="2.5" ry="2.5" style="stroke:#181818;stroke-width:0.5;" width="220.8652" x="224.91" y="251.3569"/><ellipse cx="295.1287" cy="267.3569" fill="#ADD1B2" rx="11" ry="11" style="stroke:#181818;stroke-width:1;"/><path d="M298.0975,272.9975 Q297.5194,273.2944 296.8787,273.435 Q296.2381,273.5913 295.535,273.5913 Q293.035,273.5913 291.7069,271.9506 Q290.3944,270.2944 290.3944,267.1694 Q290.3944,264.0444 291.7069,262.3881 Q293.035,260.7319 295.535,260.7319 Q296.2381,260.7319 296.8787,260.8881 Q297.535,261.0444 298.0975,261.3413 L298.0975,264.06 Q297.4725,263.4819 296.8787,263.2163 Q296.285,262.935 295.66,262.935 Q294.3162,262.935 293.6287,264.0131 Q292.9412,265.0756 292.9412,267.1694 Q292.9412,269.2631 293.6287,270.3413 Q294.3162,271.4038 295.66,271.4038 Q296.285,271.4038 296.8787,271.1381 Q297.4725,270.8569 298.0975,270.2788 L298.0975,272.9975 Z " fill="#000000"/><text fill="#000000" font-family="sans-serif" font-size="14" lengthAdjust="spacing" textLength="71.9277" x="315.6287" y="272.2036">Helicopter</text><line style="stroke:#181818;stroke-width:0.5;" x1="225.91" x2="444.7752" y1="283.3569" y2="283.3569"/><g data-visibility-modifier="PRIVATE_FIELD"><rect fill="none" height="6" style="stroke:#C82930;stroke-width:1;" width="6" x="232.91" y="294.0053"/></g><text fill="#000000" font-family="sans-serif" font-size="14" lengthAdjust="spacing" textLength="89.8242" x="244.91" y="300.352">String model</text><g data-visibility-modifier="PRIVATE_FIELD"><rect fill="none" height="6" style="stroke:#C82930;stroke-width:1;" width="6" x="232.91" y="310.3022"/></g><text fill="#000000" font-family="sans-serif" font-size="14" lengthAdjust="spacing" textLength="156.6797" x="244.91" y="316.6489">int passengerCapacity</text><line style="stroke:#181818;stroke-width:0.5;" x1="225.91" x2="444.7752" y1="323.9506" y2="323.9506"/><g data-visibility-modifier="PUBLIC_METHOD"><ellipse cx="235.91" cy="337.5991" fill="#84BE84" rx="3" ry="3" style="stroke:#038048;stroke-width:1;"/></g><text fill="#000000" font-family="sans-serif" font-size="14" lengthAdjust="spacing" textLength="126.8955" x="244.91" y="340.9457">getModel(): String</text><g data-visibility-modifier="PUBLIC_METHOD"><ellipse cx="235.91" cy="353.8959" fill="#84BE84" rx="3" ry="3" style="stroke:#038048;stroke-width:1;"/></g><text fill="#000000" font-family="sans-serif" font-size="14" lengthAdjust="spacing" textLength="194.8652" x="244.91" y="357.2426">getPassengerCapacity(): int</text></g><!--class PassengerDrone--><g class="entity" data-qualified-name="PassengerDrone" data-source-line="18" id="ent0004"><rect fill="#FFE4E1" height="64.2969" rx="2.5" ry="2.5" style="stroke:#181818;stroke-width:0.5;" width="146.9395" x="480.87" y="275.8069"/><ellipse cx="495.87" cy="291.8069" fill="#ADD1B2" rx="11" ry="11" style="stroke:#181818;stroke-width:1;"/><path d="M498.8388,297.4475 Q498.2606,297.7444 497.62,297.885 Q496.9794,298.0413 496.2763,298.0413 Q493.7763,298.0413 492.4481,296.4006 Q491.1356,294.7444 491.1356,291.6194 Q491.1356,288.4944 492.4481,286.8381 Q493.7763,285.1819 496.2763,285.1819 Q496.9794,285.1819 497.62,285.3381 Q498.2763,285.4944 498.8388,285.7913 L498.8388,288.51 Q498.2138,287.9319 497.62,287.6663 Q497.0263,287.385 496.4013,287.385 Q495.0575,287.385 494.37,288.4631 Q493.6825,289.5256 493.6825,291.6194 Q493.6825,293.7131 494.37,294.7913 Q495.0575,295.8538 496.4013,295.8538 Q497.0263,295.8538 497.62,295.5881 Q498.2138,295.3069 498.8388,294.7288 L498.8388,297.4475 Z " fill="#000000"/><text fill="#000000" font-family="sans-serif" font-size="14" lengthAdjust="spacing" textLength="114.9395" x="509.87" y="296.6536">PassengerDrone</text><line style="stroke:#181818;stroke-width:0.5;" x1="481.87" x2="626.8095" y1="307.8069" y2="307.8069"/><g data-visibility-modifier="PRIVATE_FIELD"><rect fill="none" height="6" style="stroke:#C82930;stroke-width:1;" width="6" x="488.87" y="318.4553"/></g><text fill="#000000" font-family="sans-serif" font-size="14" lengthAdjust="spacing" textLength="89.8242" x="500.87" y="324.802">String model</text><line style="stroke:#181818;stroke-width:0.5;" x1="481.87" x2="626.8095" y1="332.1038" y2="332.1038"/></g><!--class ScheduledFlight--><g class="entity" data-qualified-name="ScheduledFlight" data-source-line="22" id="ent0005"><rect fill="#FFE4E1" height="113.1875" rx="2.5" ry="2.5" style="stroke:#181818;stroke-width:0.5;" width="241.6943" x="214.49" y="52.2369"/><ellipse cx="274.9368" cy="68.2369" fill="#ADD1B2" rx="11" ry="11" style="stroke:#181818;stroke-width:1;"/><path d="M277.9055,73.8775 Q277.3274,74.1744 276.6868,74.315 Q276.0462,74.4713 275.343,74.4713 Q272.843,74.4713 271.5149,72.8306 Q270.2024,71.1744 270.2024,68.0494 Q270.2024,64.9244 271.5149,63.2681 Q272.843,61.6119 275.343,61.6119 Q276.0462,61.6119 276.6868,61.7681 Q277.343,61.9244 277.9055,62.2213 L277.9055,64.94 Q277.2805,64.3619 276.6868,64.0963 Q276.093,63.815 275.468,63.815 Q274.1243,63.815 273.4368,64.8931 Q272.7493,65.9556 272.7493,68.0494 Q272.7493,70.1431 273.4368,71.2213 Q274.1243,72.2838 275.468,72.2838 Q276.093,72.2838 276.6868,72.0181 Q277.2805,71.7369 277.9055,71.1588 L277.9055,73.8775 Z " fill="#000000"/><text fill="#000000" font-family="sans-serif" font-size="14" lengthAdjust="spacing" textLength="112.3008" x="295.4368" y="73.0836">ScheduledFlight</text><line style="stroke:#181818;stroke-width:0.5;" x1="215.49" x2="455.1843" y1="84.2369" y2="84.2369"/><g data-visibility-modifier="PRIVATE_FIELD"><rect fill="none" height="6" style="stroke:#C82930;stroke-width:1;" width="6" x="222.49" y="94.8853"/></g><text fill="#000000" font-family="sans-serif" font-size="14" lengthAdjust="spacing" textLength="204.8252" x="234.49" y="101.232">List&lt;Passenger&gt; passengers</text><g data-visibility-modifier="PRIVATE_FIELD"><rect fill="none" height="6" style="stroke:#C82930;stroke-width:1;" width="6" x="222.49" y="111.1822"/></g><text fill="#000000" font-family="sans-serif" font-size="14" lengthAdjust="spacing" textLength="142.0576" x="234.49" y="117.5289">Date departureTime</text><line style="stroke:#181818;stroke-width:0.5;" x1="215.49" x2="455.1843" y1="124.8306" y2="124.8306"/><g data-visibility-modifier="PUBLIC_METHOD"><ellipse cx="225.49" cy="138.4791" fill="#84BE84" rx="3" ry="3" style="stroke:#038048;stroke-width:1;"/></g><text fill="#000000" font-family="sans-serif" font-size="14" lengthAdjust="spacing" textLength="122.5137" x="234.49" y="141.8257">getCapacity(): int</text><g data-visibility-modifier="PUBLIC_METHOD"><ellipse cx="225.49" cy="154.7759" fill="#84BE84" rx="3" ry="3" style="stroke:#038048;stroke-width:1;"/></g><text fill="#000000" font-family="sans-serif" font-size="14" lengthAdjust="spacing" textLength="215.6943" x="234.49" y="158.1226">getCrewMemberCapacity(): int</text></g><g class="entity" data-qualified-name="GMN9" data-source-line="34" id="ent0010"><path d="M491.53,43.2969 L491.53,104.8269 L456.55,108.8269 L491.53,112.8269 L491.53,174.3594 A0,0 0 0 0 491.53,174.3594 L795.1594,174.3594 A0,0 0 0 0 795.1594,174.3594 L795.1594,53.2969 L785.1594,43.2969 L491.53,43.2969 A0,0 0 0 0 491.53,43.2969" fill="#FEFFDD" style="stroke:#181818;stroke-width:0.5;"/><path d="M785.1594,43.2969 L785.1594,53.2969 L795.1594,53.2969 L785.1594,43.2969" fill="#FEFFDD" style="stroke:#181818;stroke-width:0.5;"/><text fill="#000000" font-family="sans-serif" font-size="13" lengthAdjust="spacing" textLength="215.833" x="497.53" y="60.3638">Type checking scattered in code:</text><text fill="#000000" font-family="sans-serif" font-size="13" lengthAdjust="spacing" textLength="248.2251" x="497.53" y="75.4966">if (aircraft instanceof PassengerPlane)</text><text fill="#000000" font-family="sans-serif" font-size="13" lengthAdjust="spacing" textLength="242.6899" x="497.53" y="90.6294">else if (aircraft instanceof Helicopter)</text><text fill="#000000" font-family="sans-serif" font-size="13" lengthAdjust="spacing" textLength="282.6294" x="497.53" y="105.7622">else if (aircraft instanceof PassengerDrone)</text><text fill="#000000" font-family="sans-serif" font-size="13" lengthAdjust="spacing" textLength="4.1323" x="497.53" y="120.895">&#160;</text><text fill="#000000" font-family="sans-serif" font-size="13" lengthAdjust="spacing" textLength="181.6763" x="497.53" y="136.0278">Repeated in multiple places</text><text fill="#000000" font-family="sans-serif" font-size="13" lengthAdjust="spacing" textLength="218.4038" x="497.53" y="151.1606">Difficult to add new aircraft types</text><text fill="#000000" font-family="sans-serif" font-size="13" lengthAdjust="spacing" textLength="164.6455" x="497.53" y="166.2935">No polymorphic interface</text></g><!--link ScheduledFlight to PassengerPlane--><g class="link" data-entity-1="ent0005" data-entity-2="ent0002" data-link-type="dependency" data-source-line="29" id="lnk6"><path codeLine="29" d="M268.06,165.7869 C232.61,195.2669 194.2131,227.2103 160.3531,255.3703" fill="none" id="ScheduledFlight-to-PassengerPlane" style="stroke:#181818;stroke-width:1;"/><polygon fill="#181818" points="155.74,259.2069,165.2174,256.5275,159.5843,256.0098,160.102,250.3766,155.74,259.2069" style="stroke:#181818;stroke-width:1;"/><text fill="#000000" font-family="sans-serif" font-size="13" lengthAdjust="spacing" textLength="78.0063" x="218.34" y="217.4238">checks type</text></g><!--link ScheduledFlight to Helicopter--><g class="link" data-entity-1="ent0005" data-entity-2="ent0003" data-link-type="dependency" data-source-line="30" id="lnk7"><path codeLine="30" d="M335.34,165.7869 C335.34,192.5369 335.34,218.4669 335.34,245.1969" fill="none" id="ScheduledFlight-to-Helicopter" style="stroke:#181818;stroke-width:1;"/><polygon fill="#181818" points="335.34,251.1969,339.34,242.1969,335.34,246.1969,331.34,242.1969,335.34,251.1969" style="stroke:#181818;stroke-width:1;"/><text fill="#000000" font-family="sans-serif" font-size="13" lengthAdjust="spacing" textLength="78.0063" x="336.34" y="217.4238">checks type</text></g><!--link ScheduledFlight to PassengerDrone--><g class="link" data-entity-1="ent0005" data-entity-2="ent0004" data-link-type="dependency" data-source-line="31" id="lnk8"><path codeLine="31" d="M397.51,165.7869 C436.97,201.3069 482.1098,241.9435 514.8498,271.4035" fill="none" id="ScheduledFlight-to-PassengerDrone" style="stroke:#181818;stroke-width:1;"/><polygon fill="#181818" points="519.31,275.4169,515.2953,266.4234,515.5932,272.0724,509.9442,272.3703,519.31,275.4169" style="stroke:#181818;stroke-width:1;"/><text fill="#000000" font-family="sans-serif" font-size="13" lengthAdjust="spacing" textLength="78.0063" x="458.34" y="217.4238">checks type</text></g><?plantuml-src XPFBRi8m44Nt-OgHkW5LMLJg2bLT08cww0DHVi1r9i72iQtnH0XL_VUEAKrA-YAiPewlxzn9sB15A9LcJmTOAMOa1pdCY_9fNS1aqH6XOtXcnJZDuiwue4YryABqhY7VkMhXhIUuA8lqV26qLJ7Els5bSLrSPTcnAnV6YAv1Mbdb45upaD-bt4R6DT3w2ksfPCH4-AGNAYXj-F2bfmdtVVdjK_yEhT4-o50dxVoxTlwdTeFyaD39T7OwEZHMupC94h7X_fvOak_d6tdeuMUznQgpM9NMD5lkwNiJ-QPNkXsinXEmbDr0XH8xTuGRq-BWSMnjQ4XW3zY-_EX-R2NFRqUxce4WUXU13m5_v8Vi_sVFSphdC-TbF3golXwd90DjXFeuaKAD-lWIOoMpW9Q4PuAO6YRAa2PLizGZAwTHnCvdcWg9DkAl-33Il-ZvH0cN_ne3ogwErjhEiWdoyGMhDAPLBarT6orbO0-ggi3X7dhjb4MY7Zq4Rm-jfx0rEYqCgHQ539sSaAZU0G00?></g></svg>