<?plantuml 1.2026.2beta3?><svg xmlns="http://www.w3.org/2000/svg" xmlns:xlink="http://www.w3.org/1999/xlink" contentStyleType="text/css" data-diagram-type="CLASS" height="626px" preserveAspectRatio="none" style="width:983px;height:626px;background:#FEFEFE;" version="1.1" viewBox="0 0 983 626" width="983px" zoomAndPan="magnify"><title>Factory Pattern - AFTER (With Factory Pattern)</title><defs/><g><rect fill="#FEFEFE" height="626" style="stroke:none;stroke-width:1;" width="983" x="0" y="0"/><g class="title" data-source-line="1"><text fill="#000000" font-family="sans-serif" font-size="14" font-weight="bold" lengthAdjust="spacing" textLength="373.2627" x="297.9439" y="22.9951">Factory Pattern - AFTER (With Factory Pattern)</text></g><!--class Aircraft--><g class="entity" data-qualified-name="Aircraft" data-source-line="5" id="ent0002"><rect fill="#E1FFE4" height="162.0781" rx="2.5" ry="2.5" style="stroke:#181818;stroke-width:0.5;" width="220.8652" x="549.6" y="250.7769"/><ellipse cx="629.9462" cy="266.7769" fill="#A9DCDF" rx="11" ry="11" style="stroke:#181818;stroke-width:1;"/><path d="M630.0556,262.1206 L628.8993,267.1988 L631.2274,267.1988 L630.0556,262.1206 Z M628.5712,259.8863 L631.5556,259.8863 L634.9149,272.2769 L632.4618,272.2769 L631.6962,269.2144 L628.4149,269.2144 L627.6649,272.2769 L625.2274,272.2769 L628.5712,259.8863 Z " fill="#000000"/><text fill="#000000" font-family="sans-serif" font-size="14" font-style="italic" lengthAdjust="spacing" textLength="51.6729" x="650.4462" y="271.6236">Aircraft</text><line style="stroke:#181818;stroke-width:0.5;" x1="550.6" x2="769.4652" y1="282.7769" y2="282.7769"/><g data-visibility-modifier="PROTECTED_FIELD"><polygon fill="none" points="560.6,291.4253,564.6,295.4253,560.6,299.4253,556.6,295.4253" style="stroke:#B38D22;stroke-width:1;"/></g><text fill="#000000" font-family="sans-serif" font-size="14" lengthAdjust="spacing" textLength="89.8242" x="569.6" y="299.772">String model</text><g data-visibility-modifier="PROTECTED_FIELD"><polygon fill="none" points="560.6,307.7222,564.6,311.7222,560.6,315.7222,556.6,311.7222" style="stroke:#B38D22;stroke-width:1;"/></g><text fill="#000000" font-family="sans-serif" font-size="14" lengthAdjust="spacing" textLength="156.6797" x="569.6" y="316.0689">int passengerCapacity</text><g data-visibility-modifier="PROTECTED_FIELD"><polygon fill="none" points="560.6,324.0191,564.6,328.0191,560.6,332.0191,556.6,328.0191" style="stroke:#B38D22;stroke-width:1;"/></g><text fill="#000000" font-family="sans-serif" font-size="14" lengthAdjust="spacing" textLength="117.4004" x="569.6" y="332.3657">int crewCapacity</text><line style="stroke:#181818;stroke-width:0.5;" x1="550.6" x2="769.4652" y1="339.6675" y2="339.6675"/><g data-visibility-modifier="PUBLIC_METHOD"><ellipse cx="560.6" cy="353.3159" fill="#84BE84" rx="3" ry="3" style="stroke:#038048;stroke-width:1;"/></g><text fill="#000000" font-family="sans-serif" font-size="14" font-style="italic" lengthAdjust="spacing" textLength="126.8955" x="569.6" y="356.6626">getModel(): String</text><g data-visibility-modifier="PUBLIC_METHOD"><ellipse cx="560.6" cy="369.6128" fill="#84BE84" rx="3" ry="3" style="stroke:#038048;stroke-width:1;"/></g><text fill="#000000" font-family="sans-serif" font-size="14" font-style="italic" lengthAdjust="spacing" textLength="194.8652" x="569.6" y="372.9595">getPassengerCapacity(): int</text><g data-visibility-modifier="PUBLIC_METHOD"><ellipse cx="560.6" cy="385.9097" fill="#84BE84" rx="3" ry="3" style="stroke:#038048;stroke-width:1;"/></g><text fill="#000000" font-family="sans-serif" font-size="14" font-style="italic" lengthAdjust="spacing" textLength="158.1084" x="569.6" y="389.2564">getCrewCapacity(): int</text><g data-visibility-modifier="PUBLIC_METHOD"><ellipse cx="560.6" cy="402.2066" fill="#84BE84" rx="3" ry="3" style="stroke:#038048;stroke-width:1;"/></g><text fill="#000000" font-family="sans-serif" font-size="14" font-style="italic" lengthAdjust="spacing" textLength="170.8711" x="569.6" y="405.5532">getAircraftType(): String</text></g><!--class PassengerPlaneImpl--><g class="entity" data-qualified-name="PassengerPlaneImpl" data-source-line="15" id="ent0003"><rect fill="#E1FFE4" height="145.7813" rx="2.5" ry="2.5" style="stroke:#181818;stroke-width:0.5;" width="268.04" x="401.01" y="473.8569"/><ellipse cx="460.134" cy="489.8569" fill="#ADD1B2" rx="11" ry="11" style="stroke:#181818;stroke-width:1;"/><path d="M463.1028,495.4975 Q462.5246,495.7944 461.884,495.935 Q461.2434,496.0913 460.5403,496.0913 Q458.0403,496.0913 456.7121,494.4506 Q455.3996,492.7944 455.3996,489.6694 Q455.3996,486.5444 456.7121,484.8881 Q458.0403,483.2319 460.5403,483.2319 Q461.2434,483.2319 461.884,483.3881 Q462.5403,483.5444 463.1028,483.8413 L463.1028,486.56 Q462.4778,485.9819 461.884,485.7163 Q461.2903,485.435 460.6653,485.435 Q459.3215,485.435 458.634,486.5131 Q457.9465,487.5756 457.9465,489.6694 Q457.9465,491.7631 458.634,492.8413 Q459.3215,493.9038 460.6653,493.9038 Q461.2903,493.9038 461.884,493.6381 Q462.4778,493.3569 463.1028,492.7788 L463.1028,495.4975 Z " fill="#000000"/><text fill="#000000" font-family="sans-serif" font-size="14" lengthAdjust="spacing" textLength="141.292" x="480.634" y="494.7036">PassengerPlaneImpl</text><line style="stroke:#181818;stroke-width:0.5;" x1="402.01" x2="668.05" y1="505.8569" y2="505.8569"/><line style="stroke:#181818;stroke-width:0.5;" x1="402.01" x2="668.05" y1="513.8569" y2="513.8569"/><g data-visibility-modifier="PUBLIC_METHOD"><ellipse cx="412.01" cy="527.5053" fill="#84BE84" rx="3" ry="3" style="stroke:#038048;stroke-width:1;"/></g><text fill="#000000" font-family="sans-serif" font-size="14" lengthAdjust="spacing" textLength="242.04" x="421.01" y="530.852">PassengerPlaneImpl(String model)</text><g data-visibility-modifier="PRIVATE_METHOD"><rect fill="#F24D5C" height="6" style="stroke:#C82930;stroke-width:1;" width="6" x="409.01" y="540.8022"/></g><text fill="#000000" font-family="sans-serif" font-size="14" lengthAdjust="spacing" textLength="211.0322" x="421.01" y="547.1489">initializeCapacity(String): void</text><g data-visibility-modifier="PUBLIC_METHOD"><ellipse cx="412.01" cy="560.0991" fill="#84BE84" rx="3" ry="3" style="stroke:#038048;stroke-width:1;"/></g><text fill="#000000" font-family="sans-serif" font-size="14" lengthAdjust="spacing" textLength="126.8955" x="421.01" y="563.4457">getModel(): String</text><g data-visibility-modifier="PUBLIC_METHOD"><ellipse cx="412.01" cy="576.3959" fill="#84BE84" rx="3" ry="3" style="stroke:#038048;stroke-width:1;"/></g><text fill="#000000" font-family="sans-serif" font-size="14" lengthAdjust="spacing" textLength="194.8652" x="421.01" y="579.7426">getPassengerCapacity(): int</text><g data-visibility-modifier="PUBLIC_METHOD"><ellipse cx="412.01" cy="592.6928" fill="#84BE84" rx="3" ry="3" style="stroke:#038048;stroke-width:1;"/></g><text fill="#000000" font-family="sans-serif" font-size="14" lengthAdjust="spacing" textLength="158.1084" x="421.01" y="596.0395">getCrewCapacity(): int</text><g data-visibility-modifier="PUBLIC_METHOD"><ellipse cx="412.01" cy="608.9897" fill="#84BE84" rx="3" ry="3" style="stroke:#038048;stroke-width:1;"/></g><text fill="#000000" font-family="sans-serif" font-size="14" lengthAdjust="spacing" textLength="170.8711" x="421.01" y="612.3364">getAircraftType(): String</text></g><!--class HelicopterImpl--><g class="entity" data-qualified-name="HelicopterImpl" data-source-line="24" id="ent0005"><rect fill="#E1FFE4" height="145.7813" rx="2.5" ry="2.5" style="stroke:#181818;stroke-width:0.5;" width="237.0322" x="128.52" y="473.8569"/><ellipse cx="191.5508" cy="489.8569" fill="#ADD1B2" rx="11" ry="11" style="stroke:#181818;stroke-width:1;"/><path d="M194.5195,495.4975 Q193.9414,495.7944 193.3008,495.935 Q192.6601,496.0913 191.957,496.0913 Q189.457,496.0913 188.1289,494.4506 Q186.8164,492.7944 186.8164,489.6694 Q186.8164,486.5444 188.1289,484.8881 Q189.457,483.2319 191.957,483.2319 Q192.6601,483.2319 193.3008,483.3881 Q193.957,483.5444 194.5195,483.8413 L194.5195,486.56 Q193.8945,485.9819 193.3008,485.7163 Q192.707,485.435 192.082,485.435 Q190.7383,485.435 190.0508,486.5131 Q189.3633,487.5756 189.3633,489.6694 Q189.3633,491.7631 190.0508,492.8413 Q190.7383,493.9038 192.082,493.9038 Q192.707,493.9038 193.3008,493.6381 Q193.8945,493.3569 194.5195,492.7788 L194.5195,495.4975 Z " fill="#000000"/><text fill="#000000" font-family="sans-serif" font-size="14" lengthAdjust="spacing" textLength="102.4707" x="212.0508" y="494.7036">HelicopterImpl</text><line style="stroke:#181818;stroke-width:0.5;" x1="129.52" x2="364.5522" y1="505.8569" y2="505.8569"/><line style="stroke:#181818;stroke-width:0.5;" x1="129.52" x2="364.5522" y1="513.8569" y2="513.8569"/><g data-visibility-modifier="PUBLIC_METHOD"><ellipse cx="139.52" cy="527.5053" fill="#84BE84" rx="3" ry="3" style="stroke:#038048;stroke-width:1;"/></g><text fill="#000000" font-family="sans-serif" font-size="14" lengthAdjust="spacing" textLength="203.2188" x="148.52" y="530.852">HelicopterImpl(String model)</text><g data-visibility-modifier="PRIVATE_METHOD"><rect fill="#F24D5C" height="6" style="stroke:#C82930;stroke-width:1;" width="6" x="136.52" y="540.8022"/></g><text fill="#000000" font-family="sans-serif" font-size="14" lengthAdjust="spacing" textLength="211.0322" x="148.52" y="547.1489">initializeCapacity(String): void</text><g data-visibility-modifier="PUBLIC_METHOD"><ellipse cx="139.52" cy="560.0991" fill="#84BE84" rx="3" ry="3" style="stroke:#038048;stroke-width:1;"/></g><text fill="#000000" font-family="sans-serif" font-size="14" lengthAdjust="spacing" textLength="126.8955" x="148.52" y="563.4457">getModel(): String</text><g data-visibility-modifier="PUBLIC_METHOD"><ellipse cx="139.52" cy="576.3959" fill="#84BE84" rx="3" ry="3" style="stroke:#038048;stroke-width:1;"/></g><text fill="#000000" font-family="sans-serif" font-size="14" lengthAdjust="spacing" textLength="194.8652" x="148.52" y="579.7426">getPassengerCapacity(): int</text><g data-visibility-modifier="PUBLIC_METHOD"><ellipse cx="139.52" cy="592.6928" fill="#84BE84" rx="3" ry="3" style="stroke:#038048;stroke-width:1;"/></g><text fill="#000000" font-family="sans-serif" font-size="14" lengthAdjust="spacing" textLength="158.1084" x="148.52" y="596.0395">getCrewCapacity(): int</text><g data-visibility-modifier="PUBLIC_METHOD"><ellipse cx="139.52" cy="608.9897" fill="#84BE84" rx="3" ry="3" style="stroke:#038048;stroke-width:1;"/></g><text fill="#000000" font-family="sans-serif" font-size="14" lengthAdjust="spacing" textLength="170.8711" x="148.52" y="612.3364">getAircraftType(): String</text></g><!--class PassengerDroneImpl--><g class="entity" data-qualified-name="PassengerDroneImpl" data-source-line="33" id="ent0007"><rect fill="#E1FFE4" height="129.4844" rx="2.5" ry="2.5" style="stroke:#181818;stroke-width:0.5;" width="272.2305" x="703.92" y="482.0069"/><ellipse cx="763.044" cy="498.0069" fill="#ADD1B2" rx="11" ry="11" style="stroke:#181818;stroke-width:1;"/><path d="M766.0128,503.6475 Q765.4346,503.9444 764.794,504.085 Q764.1534,504.2413 763.4503,504.2413 Q760.9503,504.2413 759.6221,502.6006 Q758.3096,500.9444 758.3096,497.8194 Q758.3096,494.6944 759.6221,493.0381 Q760.9503,491.3819 763.4503,491.3819 Q764.1534,491.3819 764.794,491.5381 Q765.4503,491.6944 766.0128,491.9913 L766.0128,494.71 Q765.3878,494.1319 764.794,493.8663 Q764.2003,493.585 763.5753,493.585 Q762.2315,493.585 761.544,494.6631 Q760.8565,495.7256 760.8565,497.8194 Q760.8565,499.9131 761.544,500.9913 Q762.2315,502.0538 763.5753,502.0538 Q764.2003,502.0538 764.794,501.7881 Q765.3878,501.5069 766.0128,500.9288 L766.0128,503.6475 Z " fill="#000000"/><text fill="#000000" font-family="sans-serif" font-size="14" lengthAdjust="spacing" textLength="145.4824" x="783.544" y="502.8536">PassengerDroneImpl</text><line style="stroke:#181818;stroke-width:0.5;" x1="704.92" x2="975.1505" y1="514.0069" y2="514.0069"/><line style="stroke:#181818;stroke-width:0.5;" x1="704.92" x2="975.1505" y1="522.0069" y2="522.0069"/><g data-visibility-modifier="PUBLIC_METHOD"><ellipse cx="714.92" cy="535.6553" fill="#84BE84" rx="3" ry="3" style="stroke:#038048;stroke-width:1;"/></g><text fill="#000000" font-family="sans-serif" font-size="14" lengthAdjust="spacing" textLength="246.2305" x="723.92" y="539.002">PassengerDroneImpl(String model)</text><g data-visibility-modifier="PUBLIC_METHOD"><ellipse cx="714.92" cy="551.9522" fill="#84BE84" rx="3" ry="3" style="stroke:#038048;stroke-width:1;"/></g><text fill="#000000" font-family="sans-serif" font-size="14" lengthAdjust="spacing" textLength="126.8955" x="723.92" y="555.2989">getModel(): String</text><g data-visibility-modifier="PUBLIC_METHOD"><ellipse cx="714.92" cy="568.2491" fill="#84BE84" rx="3" ry="3" style="stroke:#038048;stroke-width:1;"/></g><text fill="#000000" font-family="sans-serif" font-size="14" lengthAdjust="spacing" textLength="194.8652" x="723.92" y="571.5957">getPassengerCapacity(): int</text><g data-visibility-modifier="PUBLIC_METHOD"><ellipse cx="714.92" cy="584.5459" fill="#84BE84" rx="3" ry="3" style="stroke:#038048;stroke-width:1;"/></g><text fill="#000000" font-family="sans-serif" font-size="14" lengthAdjust="spacing" textLength="158.1084" x="723.92" y="587.8926">getCrewCapacity(): int</text><g data-visibility-modifier="PUBLIC_METHOD"><ellipse cx="714.92" cy="600.8428" fill="#84BE84" rx="3" ry="3" style="stroke:#038048;stroke-width:1;"/></g><text fill="#000000" font-family="sans-serif" font-size="14" lengthAdjust="spacing" textLength="170.8711" x="723.92" y="604.1895">getAircraftType(): String</text></g><!--class AircraftFactory--><g class="entity" data-qualified-name="AircraftFactory" data-source-line="41" id="ent0009"><rect fill="#E1FFE4" height="129.4844" rx="2.5" ry="2.5" style="stroke:#181818;stroke-width:0.5;" width="370.415" x="100.82" y="44.2969"/><ellipse cx="229.7287" cy="60.2969" fill="#ADD1B2" rx="11" ry="11" style="stroke:#181818;stroke-width:1;"/><path d="M232.6974,65.9375 Q232.1193,66.2344 231.4787,66.375 Q230.8381,66.5313 230.1349,66.5313 Q227.6349,66.5313 226.3068,64.8906 Q224.9943,63.2344 224.9943,60.1094 Q224.9943,56.9844 226.3068,55.3281 Q227.6349,53.6719 230.1349,53.6719 Q230.8381,53.6719 231.4787,53.8281 Q232.1349,53.9844 232.6974,54.2813 L232.6974,57 Q232.0724,56.4219 231.4787,56.1563 Q230.8849,55.875 230.2599,55.875 Q228.9162,55.875 228.2287,56.9531 Q227.5412,58.0156 227.5412,60.1094 Q227.5412,62.2031 228.2287,63.2813 Q228.9162,64.3438 230.2599,64.3438 Q230.8849,64.3438 231.4787,64.0781 Q232.0724,63.7969 232.6974,63.2188 L232.6974,65.9375 Z " fill="#000000"/><text fill="#000000" font-family="sans-serif" font-size="14" lengthAdjust="spacing" textLength="104.0977" x="250.2287" y="65.1436">AircraftFactory</text><line style="stroke:#181818;stroke-width:0.5;" x1="101.82" x2="470.235" y1="76.2969" y2="76.2969"/><line style="stroke:#181818;stroke-width:0.5;" x1="101.82" x2="470.235" y1="84.2969" y2="84.2969"/><g data-visibility-modifier="PUBLIC_METHOD"><ellipse cx="111.82" cy="97.9453" fill="#84BE84" rx="3" ry="3" style="stroke:#038048;stroke-width:1;"/></g><text fill="#000000" font-family="sans-serif" font-size="14" lengthAdjust="spacing" text-decoration="underline" textLength="344.415" x="120.82" y="101.292">createAircraft(String type, String model): Aircraft</text><g data-visibility-modifier="PUBLIC_METHOD"><ellipse cx="111.82" cy="114.2422" fill="#84BE84" rx="3" ry="3" style="stroke:#038048;stroke-width:1;"/></g><text fill="#000000" font-family="sans-serif" font-size="14" lengthAdjust="spacing" text-decoration="underline" textLength="284.3818" x="120.82" y="117.5889">createFromModel(String model): Aircraft</text><g data-visibility-modifier="PRIVATE_METHOD"><rect fill="#F24D5C" height="6" style="stroke:#C82930;stroke-width:1;" width="6" x="108.82" y="127.5391"/></g><text fill="#000000" font-family="sans-serif" font-size="14" lengthAdjust="spacing" text-decoration="underline" textLength="281.8115" x="120.82" y="133.8857">isPassengerPlaneModel(String): boolean</text><g data-visibility-modifier="PRIVATE_METHOD"><rect fill="#F24D5C" height="6" style="stroke:#C82930;stroke-width:1;" width="6" x="108.82" y="143.8359"/></g><text fill="#000000" font-family="sans-serif" font-size="14" lengthAdjust="spacing" text-decoration="underline" textLength="242.9902" x="120.82" y="150.1826">isHelicopterModel(String): boolean</text><g data-visibility-modifier="PRIVATE_METHOD"><rect fill="#F24D5C" height="6" style="stroke:#C82930;stroke-width:1;" width="6" x="108.82" y="160.1328"/></g><text fill="#000000" font-family="sans-serif" font-size="14" lengthAdjust="spacing" text-decoration="underline" textLength="213.6504" x="120.82" y="166.4795">isDroneModel(String): boolean</text></g><!--class ScheduledFlight--><g class="entity" data-qualified-name="ScheduledFlight" data-source-line="49" id="ent0010"><rect fill="#E1FFE4" height="96.8906" rx="2.5" ry="2.5" style="stroke:#181818;stroke-width:0.5;" width="241.6943" x="539.18" y="60.5869"/><ellipse cx="599.6268" cy="76.5869" fill="#ADD1B2" rx="11" ry="11" style="stroke:#181818;stroke-width:1;"/><path d="M602.5955,82.2275 Q602.0174,82.5244 601.3768,82.665 Q600.7362,82.8213 600.033,82.8213 Q597.533,82.8213 596.2049,81.1806 Q594.8924,79.5244 594.8924,76.3994 Q594.8924,73.2744 596.2049,71.6181 Q597.533,69.9619 600.033,69.9619 Q600.7362,69.9619 601.3768,70.1181 Q602.033,70.2744 602.5955,70.5713 L602.5955,73.29 Q601.9705,72.7119 601.3768,72.4463 Q600.783,72.165 600.158,72.165 Q598.8143,72.165 598.1268,73.2431 Q597.4393,74.3056 597.4393,76.3994 Q597.4393,78.4931 598.1268,79.5713 Q598.8143,80.6338 600.158,80.6338 Q600.783,80.6338 601.3768,80.3681 Q601.9705,80.0869 602.5955,79.5088 L602.5955,82.2275 Z " fill="#000000"/><text fill="#000000" font-family="sans-serif" font-size="14" lengthAdjust="spacing" textLength="112.3008" x="620.1268" y="81.4336">ScheduledFlight</text><line style="stroke:#181818;stroke-width:0.5;" x1="540.18" x2="779.8743" y1="92.5869" y2="92.5869"/><g data-visibility-modifier="PRIVATE_FIELD"><rect fill="none" height="6" style="stroke:#C82930;stroke-width:1;" width="6" x="547.18" y="103.2353"/></g><text fill="#000000" font-family="sans-serif" font-size="14" lengthAdjust="spacing" textLength="106.7979" x="559.18" y="109.582">Aircraft aircraft</text><line style="stroke:#181818;stroke-width:0.5;" x1="540.18" x2="779.8743" y1="116.8838" y2="116.8838"/><g data-visibility-modifier="PUBLIC_METHOD"><ellipse cx="550.18" cy="130.5322" fill="#84BE84" rx="3" ry="3" style="stroke:#038048;stroke-width:1;"/></g><text fill="#000000" font-family="sans-serif" font-size="14" lengthAdjust="spacing" textLength="122.5137" x="559.18" y="133.8789">getCapacity(): int</text><g data-visibility-modifier="PUBLIC_METHOD"><ellipse cx="550.18" cy="146.8291" fill="#84BE84" rx="3" ry="3" style="stroke:#038048;stroke-width:1;"/></g><text fill="#000000" font-family="sans-serif" font-size="14" lengthAdjust="spacing" textLength="215.6943" x="559.18" y="150.1757">getCrewMemberCapacity(): int</text></g><g class="entity" data-qualified-name="GMN18" data-source-line="65" id="ent0019"><path d="M109.26,296.5469 L109.26,367.0781 A0,0 0 0 0 109.26,367.0781 L394.8049,367.0781 A0,0 0 0 0 394.8049,367.0781 L394.8049,306.5469 L384.8049,296.5469 L261.35,296.5469 L276.15,174.1869 L253.35,296.5469 L109.26,296.5469 A0,0 0 0 0 109.26,296.5469" fill="#FEFFDD" style="stroke:#181818;stroke-width:0.5;"/><path d="M384.8049,296.5469 L384.8049,306.5469 L394.8049,306.5469 L384.8049,296.5469" fill="#FEFFDD" style="stroke:#181818;stroke-width:0.5;"/><text fill="#000000" font-family="sans-serif" font-size="13" lengthAdjust="spacing" textLength="175.7031" x="115.26" y="313.6138">Centralized object creation</text><text fill="#000000" font-family="sans-serif" font-size="13" lengthAdjust="spacing" textLength="264.5449" x="115.26" y="328.7466">Eliminates type checking scattered code</text><text fill="#000000" font-family="sans-serif" font-size="13" lengthAdjust="spacing" textLength="198.5674" x="115.26" y="343.8794">Easy to add new aircraft types</text><text fill="#000000" font-family="sans-serif" font-size="13" lengthAdjust="spacing" textLength="142.4224" x="115.26" y="359.0122">Polymorphic interface</text></g><!--reverse link Aircraft to PassengerPlaneImpl--><g class="link" data-entity-1="ent0002" data-entity-2="ent0003" data-link-type="extension" data-source-line="16" id="lnk4"><path d="M590.9488,428.6544 C578.7988,448.4344 575.94,454.1569 565.28,473.5269" fill="none" id="Aircraft-backto-PassengerPlaneImpl" style="stroke:#181818;stroke-width:1;"/><polygon fill="none" points="600.37,413.3169,585.8363,425.514,596.0613,431.7948,600.37,413.3169" style="stroke:#181818;stroke-width:1;"/></g><!--link PassengerPlaneImpl to Aircraft--><g class="link" data-entity-1="ent0003" data-entity-2="ent0002" data-link-type="extension" data-source-line="60" id="lnk15"><path codeLine="60" d="M590.29,473.5269 C602.4,454.1569 606.0814,448.8111 617.1314,429.0311" fill="none" id="PassengerPlaneImpl-to-Aircraft" style="stroke:#181818;stroke-width:1;"/><polygon fill="none" points="625.91,413.3169,611.8933,426.1048,622.3694,431.9573,625.91,413.3169" style="stroke:#181818;stroke-width:1;"/></g><!--reverse link Aircraft to HelicopterImpl--><g class="link" data-entity-1="ent0002" data-entity-2="ent0005" data-link-type="extension" data-source-line="25" id="lnk6"><path d="M533.609,398.3833 C519.119,406.4633 520.15,405.6869 506.03,412.8569 C445.63,443.5269 427.26,444.4169 366.39,473.6869" fill="none" id="Aircraft-backto-HelicopterImpl" style="stroke:#181818;stroke-width:1;"/><polygon fill="none" points="549.33,389.6169,530.6869,393.143,536.5312,403.6236,549.33,389.6169" style="stroke:#181818;stroke-width:1;"/></g><!--link HelicopterImpl to Aircraft--><g class="link" data-entity-1="ent0005" data-entity-2="ent0002" data-link-type="extension" data-source-line="61" id="lnk16"><path codeLine="61" d="M365.86,491.3069 C377.73,485.2969 389.6,479.3569 401.03,473.8569 C462.19,444.4169 480.51,443.5869 541.03,412.8569 C543.73,411.4869 530.515,418.439 533.245,417.009" fill="none" id="HelicopterImpl-to-Aircraft" style="stroke:#181818;stroke-width:1;"/><polygon fill="none" points="549.19,408.6569,530.461,411.694,536.0291,422.324,549.19,408.6569" style="stroke:#181818;stroke-width:1;"/></g><!--reverse link Aircraft to PassengerDroneImpl--><g class="link" data-entity-1="ent0002" data-entity-2="ent0007" data-link-type="extension" data-source-line="34" id="lnk8"><path d="M727.0723,427.2448 C745.5823,449.8548 754.9,460.2069 774.1,481.7169" fill="none" id="Aircraft-backto-PassengerDroneImpl" style="stroke:#181818;stroke-width:1;"/><polygon fill="none" points="715.67,413.3169,722.4297,431.0456,731.715,423.444,715.67,413.3169" style="stroke:#181818;stroke-width:1;"/></g><!--link PassengerDroneImpl to Aircraft--><g class="link" data-entity-1="ent0007" data-entity-2="ent0002" data-link-type="extension" data-source-line="62" id="lnk17"><path codeLine="62" d="M798.4,481.7169 C781.29,460.2069 772.825,449.4803 753.065,426.8703" fill="none" id="PassengerDroneImpl-to-Aircraft" style="stroke:#181818;stroke-width:1;"/><polygon fill="none" points="741.22,413.3169,748.5472,430.8186,757.5828,422.922,741.22,413.3169" style="stroke:#181818;stroke-width:1;"/></g><!--link AircraftFactory to PassengerPlaneImpl--><g class="link" data-entity-1="ent0009" data-entity-2="ent0003" data-link-type="dependency" data-source-line="55" id="lnk11"><path codeLine="55" d="M351.51,173.9769 C372.63,196.8669 394.98,223.7269 412.03,250.7769 C424.54,270.6069 471.9037,387.2352 504.1737,467.9952" fill="none" id="AircraftFactory-to-PassengerPlaneImpl" style="stroke:#181818;stroke-width:1;stroke-dasharray:7,7;"/><polygon fill="#181818" points="506.4,473.5669,506.775,463.7252,504.5447,468.9238,499.3461,466.6936,506.4,473.5669" style="stroke:#181818;stroke-width:1;"/><text fill="#000000" font-family="sans-serif" font-size="13" lengthAdjust="spacing" textLength="48.3247" x="483.03" y="336.3838">creates</text></g><!--link AircraftFactory to HelicopterImpl--><g class="link" data-entity-1="ent0009" data-entity-2="ent0005" data-link-type="dependency" data-source-line="56" id="lnk12"><path codeLine="56" d="M119.79,174.1869 C88.72,193.9569 60.32,219.1269 42.03,250.7769 C6,313.1569 7.63,349.5669 42.03,412.8569 C61.17,448.0769 88.9711,472.2999 122.9211,492.7599" fill="none" id="AircraftFactory-to-HelicopterImpl" style="stroke:#181818;stroke-width:1;stroke-dasharray:7,7;"/><polygon fill="#181818" points="128.06,495.8569,122.4163,487.7854,123.7776,493.2761,118.2869,494.6374,128.06,495.8569" style="stroke:#181818;stroke-width:1;"/><text fill="#000000" font-family="sans-serif" font-size="13" lengthAdjust="spacing" textLength="48.3247" x="43.03" y="336.3838">creates</text></g><!--link AircraftFactory to PassengerDroneImpl--><g class="link" data-entity-1="ent0009" data-entity-2="ent0007" data-link-type="dependency" data-source-line="57" id="lnk13"><path codeLine="57" d="M471.45,161.9069 C488.5,166.1369 505.55,170.1669 522.03,173.7769 C599.97,190.8669 623.47,178.1569 699.03,203.7769 C741.4,218.1369 761.69,214.6269 788.03,250.7769 C837.26,318.3369 845.2567,411.3575 844.3267,475.6875" fill="none" id="AircraftFactory-to-PassengerDroneImpl" style="stroke:#181818;stroke-width:1;stroke-dasharray:7,7;"/><polygon fill="#181818" points="844.24,481.6869,848.3697,472.7456,844.3123,476.6874,840.3705,472.63,844.24,481.6869" style="stroke:#181818;stroke-width:1;"/><text fill="#000000" font-family="sans-serif" font-size="13" lengthAdjust="spacing" textLength="48.3247" x="842.03" y="336.3838">creates</text></g><!--link ScheduledFlight to Aircraft--><g class="link" data-entity-1="ent0010" data-entity-2="ent0002" data-link-type="dependency" data-source-line="58" id="lnk14"><path codeLine="58" d="M660.03,157.9369 C660.03,184.9569 660.03,213.4069 660.03,244.4469" fill="none" id="ScheduledFlight-to-Aircraft" style="stroke:#181818;stroke-width:1;"/><polygon fill="#181818" points="660.03,250.4469,664.03,241.4469,660.03,245.4469,656.03,241.4469,660.03,250.4469" style="stroke:#181818;stroke-width:1;"/><text fill="#000000" font-family="sans-serif" font-size="13" lengthAdjust="spacing" textLength="29.7832" x="661.03" y="216.8438">uses</text></g><?plantuml-src rLLDRzim3BtxLn3e9K7d00Dsog50byRe3WM2jS3EiimuQcJ9a9XrNfR_FicEF-EwkGrBRj5x91yVoP0WYH0nJjeKi654Q1I4S1-zhB_3x8UWtV1r7jYzK3apB8EOyNrgz44bAosrWPjexRyT19VCsgz3sFfp5As_106BBHaNleB1lJ3Si2t1CG3tkO5dCaAbaEa4vVadeGXo1qQLebcnd751HUUD6tph_NmBnphD2LAa9nziDb-UWuzYDiC47k-YZu9NdOnJk5hTIv5Z9_yf22hrJTADP0g_PRa4_4Meael6t8vWPzrUpKjOw4eH99WKlx4fi8Avz3-rICxHtktAnwsOr7-5w4UKWklS3TQqu3xkFnNRX7ym-cg76-o8w7-gfdwlxqDT-T4I8y5FVXKPOGshooSNxbDlirti6ZGU8Z8wgrHEqSAM9cn_GRfaHukrbiZK9QkTiciPfJllW9jEFVCT9WU9IIH5kgiz3blJML--TsRAiYVCuajNNRgX9Ol5ucxaLYpFVRNZXFwkVG2-dDEMCDGTXdUDvYKSh8C48rSl3F-qk61m8VgF8nlL1mHA4pf7Y7G6UZiSMjVN5Ifte_tPI437hyYfgbzeR_TQYamehwOSN72A-DwFeENbtw4ZSUU-Hp9R06bWIG8AtnfFIvvrW8sMHQPDlXFS-uLcopW6Rll1r_WN?></g></svg>