<?plantuml 1.2026.2beta3?><svg xmlns="http://www.w3.org/2000/svg" xmlns:xlink="http://www.w3.org/1999/xlink" contentStyleType="text/css" data-diagram-type="CLASS" height="577px" preserveAspectRatio="none" style="width:1169px;height:577px;background:#FEFEFE;" version="1.1" viewBox="0 0 1169 577" width="1169px" zoomAndPan="magnify"><title>Observer Pattern - AFTER (With Observer Pattern)</title><defs/><g><rect fill="#FEFEFE" height="577" style="stroke:none;stroke-width:1;" width="1169" x="0" y="0"/><g class="title" data-source-line="1"><text fill="#000000" font-family="sans-serif" font-size="14" font-weight="bold" lengthAdjust="spacing" textLength="398.3232" x="378.8213" y="22.9951">Observer Pattern - AFTER (With Observer Pattern)</text></g><!--class BookingObserver--><g class="entity" data-qualified-name="BookingObserver" data-source-line="5" id="ent0002"><rect fill="#E1FFE4" height="96.8906" rx="2.5" ry="2.5" style="stroke:#181818;stroke-width:0.5;" width="361.9658" x="404" y="315.9669"/><ellipse cx="520.375" cy="331.9669" fill="#B4A7E5" rx="11" ry="11" style="stroke:#181818;stroke-width:1;"/><path d="M516.2969,327.7325 L516.2969,325.5763 L523.6875,325.5763 L523.6875,327.7325 L521.2188,327.7325 L521.2188,335.8106 L523.6875,335.8106 L523.6875,337.9669 L516.2969,337.9669 L516.2969,335.8106 L518.7656,335.8106 L518.7656,327.7325 L516.2969,327.7325 Z " fill="#000000"/><text fill="#000000" font-family="sans-serif" font-size="14" font-style="italic" lengthAdjust="spacing" textLength="120.7158" x="540.875" y="336.8136">BookingObserver</text><line style="stroke:#181818;stroke-width:0.5;" x1="405" x2="764.9658" y1="347.9669" y2="347.9669"/><line style="stroke:#181818;stroke-width:0.5;" x1="405" x2="764.9658" y1="355.9669" y2="355.9669"/><g data-visibility-modifier="PUBLIC_METHOD"><ellipse cx="415" cy="369.6153" fill="#84BE84" rx="3" ry="3" style="stroke:#038048;stroke-width:1;"/></g><text fill="#000000" font-family="sans-serif" font-size="14" lengthAdjust="spacing" textLength="275.6865" x="424" y="372.962">onBookingConfirmed(FlightOrder): void</text><g data-visibility-modifier="PUBLIC_METHOD"><ellipse cx="415" cy="385.9122" fill="#84BE84" rx="3" ry="3" style="stroke:#038048;stroke-width:1;"/></g><text fill="#000000" font-family="sans-serif" font-size="14" lengthAdjust="spacing" textLength="335.9658" x="424" y="389.2589">onPaymentProcessed(FlightOrder, double): void</text><g data-visibility-modifier="PUBLIC_METHOD"><ellipse cx="415" cy="402.2091" fill="#84BE84" rx="3" ry="3" style="stroke:#038048;stroke-width:1;"/></g><text fill="#000000" font-family="sans-serif" font-size="14" lengthAdjust="spacing" textLength="271.5781" x="424" y="405.5557">onBookingCancelled(FlightOrder): void</text></g><!--class EmailNotificationObserver--><g class="entity" data-qualified-name="EmailNotificationObserver" data-source-line="11" id="ent0003"><rect fill="#E1FFE4" height="96.8906" rx="2.5" ry="2.5" style="stroke:#181818;stroke-width:0.5;" width="361.9658" x="7" y="473.8569"/><ellipse cx="92.0356" cy="489.8569" fill="#ADD1B2" rx="11" ry="11" style="stroke:#181818;stroke-width:1;"/><path d="M95.0044,495.4975 Q94.4263,495.7944 93.7856,495.935 Q93.145,496.0913 92.4419,496.0913 Q89.9419,496.0913 88.6138,494.4506 Q87.3013,492.7944 87.3013,489.6694 Q87.3013,486.5444 88.6138,484.8881 Q89.9419,483.2319 92.4419,483.2319 Q93.145,483.2319 93.7856,483.3881 Q94.4419,483.5444 95.0044,483.8413 L95.0044,486.56 Q94.3794,485.9819 93.7856,485.7163 Q93.1919,485.435 92.5669,485.435 Q91.2231,485.435 90.5356,486.5131 Q89.8481,487.5756 89.8481,489.6694 Q89.8481,491.7631 90.5356,492.8413 Q91.2231,493.9038 92.5669,493.9038 Q93.1919,493.9038 93.7856,493.6381 Q94.3794,493.3569 95.0044,492.7788 L95.0044,495.4975 Z " fill="#000000"/><text fill="#000000" font-family="sans-serif" font-size="14" lengthAdjust="spacing" textLength="183.3945" x="112.5356" y="494.7036">EmailNotificationObserver</text><line style="stroke:#181818;stroke-width:0.5;" x1="8" x2="367.9658" y1="505.8569" y2="505.8569"/><line style="stroke:#181818;stroke-width:0.5;" x1="8" x2="367.9658" y1="513.8569" y2="513.8569"/><g data-visibility-modifier="PUBLIC_METHOD"><ellipse cx="18" cy="527.5053" fill="#84BE84" rx="3" ry="3" style="stroke:#038048;stroke-width:1;"/></g><text fill="#000000" font-family="sans-serif" font-size="14" lengthAdjust="spacing" textLength="275.6865" x="27" y="530.852">onBookingConfirmed(FlightOrder): void</text><g data-visibility-modifier="PUBLIC_METHOD"><ellipse cx="18" cy="543.8022" fill="#84BE84" rx="3" ry="3" style="stroke:#038048;stroke-width:1;"/></g><text fill="#000000" font-family="sans-serif" font-size="14" lengthAdjust="spacing" textLength="335.9658" x="27" y="547.1489">onPaymentProcessed(FlightOrder, double): void</text><g data-visibility-modifier="PUBLIC_METHOD"><ellipse cx="18" cy="560.0991" fill="#84BE84" rx="3" ry="3" style="stroke:#038048;stroke-width:1;"/></g><text fill="#000000" font-family="sans-serif" font-size="14" lengthAdjust="spacing" textLength="271.5781" x="27" y="563.4457">onBookingCancelled(FlightOrder): void</text></g><!--class LoggingObserver--><g class="entity" data-qualified-name="LoggingObserver" data-source-line="17" id="ent0005"><rect fill="#E1FFE4" height="96.8906" rx="2.5" ry="2.5" style="stroke:#181818;stroke-width:0.5;" width="361.9658" x="404" y="473.8569"/><ellipse cx="520.7271" cy="489.8569" fill="#ADD1B2" rx="11" ry="11" style="stroke:#181818;stroke-width:1;"/><path d="M523.6958,495.4975 Q523.1177,495.7944 522.4771,495.935 Q521.8364,496.0913 521.1333,496.0913 Q518.6333,496.0913 517.3052,494.4506 Q515.9927,492.7944 515.9927,489.6694 Q515.9927,486.5444 517.3052,484.8881 Q518.6333,483.2319 521.1333,483.2319 Q521.8364,483.2319 522.4771,483.3881 Q523.1333,483.5444 523.6958,483.8413 L523.6958,486.56 Q523.0708,485.9819 522.4771,485.7163 Q521.8833,485.435 521.2583,485.435 Q519.9146,485.435 519.2271,486.5131 Q518.5396,487.5756 518.5396,489.6694 Q518.5396,491.7631 519.2271,492.8413 Q519.9146,493.9038 521.2583,493.9038 Q521.8833,493.9038 522.4771,493.6381 Q523.0708,493.3569 523.6958,492.7788 L523.6958,495.4975 Z " fill="#000000"/><text fill="#000000" font-family="sans-serif" font-size="14" lengthAdjust="spacing" textLength="120.0117" x="541.2271" y="494.7036">LoggingObserver</text><line style="stroke:#181818;stroke-width:0.5;" x1="405" x2="764.9658" y1="505.8569" y2="505.8569"/><line style="stroke:#181818;stroke-width:0.5;" x1="405" x2="764.9658" y1="513.8569" y2="513.8569"/><g data-visibility-modifier="PUBLIC_METHOD"><ellipse cx="415" cy="527.5053" fill="#84BE84" rx="3" ry="3" style="stroke:#038048;stroke-width:1;"/></g><text fill="#000000" font-family="sans-serif" font-size="14" lengthAdjust="spacing" textLength="275.6865" x="424" y="530.852">onBookingConfirmed(FlightOrder): void</text><g data-visibility-modifier="PUBLIC_METHOD"><ellipse cx="415" cy="543.8022" fill="#84BE84" rx="3" ry="3" style="stroke:#038048;stroke-width:1;"/></g><text fill="#000000" font-family="sans-serif" font-size="14" lengthAdjust="spacing" textLength="335.9658" x="424" y="547.1489">onPaymentProcessed(FlightOrder, double): void</text><g data-visibility-modifier="PUBLIC_METHOD"><ellipse cx="415" cy="560.0991" fill="#84BE84" rx="3" ry="3" style="stroke:#038048;stroke-width:1;"/></g><text fill="#000000" font-family="sans-serif" font-size="14" lengthAdjust="spacing" textLength="271.5781" x="424" y="563.4457">onBookingCancelled(FlightOrder): void</text></g><!--class AnalyticsObserver--><g class="entity" data-qualified-name="AnalyticsObserver" data-source-line="23" id="ent0007"><rect fill="#E1FFE4" height="96.8906" rx="2.5" ry="2.5" style="stroke:#181818;stroke-width:0.5;" width="361.9658" x="801" y="473.8569"/><ellipse cx="913.834" cy="489.8569" fill="#ADD1B2" rx="11" ry="11" style="stroke:#181818;stroke-width:1;"/><path d="M916.8027,495.4975 Q916.2246,495.7944 915.584,495.935 Q914.9434,496.0913 914.2402,496.0913 Q911.7402,496.0913 910.4121,494.4506 Q909.0996,492.7944 909.0996,489.6694 Q909.0996,486.5444 910.4121,484.8881 Q911.7402,483.2319 914.2402,483.2319 Q914.9434,483.2319 915.584,483.3881 Q916.2402,483.5444 916.8027,483.8413 L916.8027,486.56 Q916.1777,485.9819 915.584,485.7163 Q914.9902,485.435 914.3652,485.435 Q913.0215,485.435 912.334,486.5131 Q911.6465,487.5756 911.6465,489.6694 Q911.6465,491.7631 912.334,492.8413 Q913.0215,493.9038 914.3652,493.9038 Q914.9902,493.9038 915.584,493.6381 Q916.1777,493.3569 916.8027,492.7788 L916.8027,495.4975 Z " fill="#000000"/><text fill="#000000" font-family="sans-serif" font-size="14" lengthAdjust="spacing" textLength="127.7979" x="934.334" y="494.7036">AnalyticsObserver</text><line style="stroke:#181818;stroke-width:0.5;" x1="802" x2="1161.9658" y1="505.8569" y2="505.8569"/><line style="stroke:#181818;stroke-width:0.5;" x1="802" x2="1161.9658" y1="513.8569" y2="513.8569"/><g data-visibility-modifier="PUBLIC_METHOD"><ellipse cx="812" cy="527.5053" fill="#84BE84" rx="3" ry="3" style="stroke:#038048;stroke-width:1;"/></g><text fill="#000000" font-family="sans-serif" font-size="14" lengthAdjust="spacing" textLength="275.6865" x="821" y="530.852">onBookingConfirmed(FlightOrder): void</text><g data-visibility-modifier="PUBLIC_METHOD"><ellipse cx="812" cy="543.8022" fill="#84BE84" rx="3" ry="3" style="stroke:#038048;stroke-width:1;"/></g><text fill="#000000" font-family="sans-serif" font-size="14" lengthAdjust="spacing" textLength="335.9658" x="821" y="547.1489">onPaymentProcessed(FlightOrder, double): void</text><g data-visibility-modifier="PUBLIC_METHOD"><ellipse cx="812" cy="560.0991" fill="#84BE84" rx="3" ry="3" style="stroke:#038048;stroke-width:1;"/></g><text fill="#000000" font-family="sans-serif" font-size="14" lengthAdjust="spacing" textLength="271.5781" x="821" y="563.4457">onBookingCancelled(FlightOrder): void</text></g><!--class FlightOrder--><g class="entity" data-qualified-name="FlightOrder" data-source-line="29" id="ent0009"><rect fill="#E1FFE4" height="194.6719" rx="2.5" ry="2.5" style="stroke:#181818;stroke-width:0.5;" width="379.1104" x="562.43" y="44.2969"/><ellipse cx="708.179" cy="60.2969" fill="#ADD1B2" rx="11" ry="11" style="stroke:#181818;stroke-width:1;"/><path d="M711.1478,65.9375 Q710.5696,66.2344 709.929,66.375 Q709.2884,66.5313 708.5853,66.5313 Q706.0853,66.5313 704.7571,64.8906 Q703.4446,63.2344 703.4446,60.1094 Q703.4446,56.9844 704.7571,55.3281 Q706.0853,53.6719 708.5853,53.6719 Q709.2884,53.6719 709.929,53.8281 Q710.5853,53.9844 711.1478,54.2813 L711.1478,57 Q710.5228,56.4219 709.929,56.1563 Q709.3353,55.875 708.7103,55.875 Q707.3665,55.875 706.679,56.9531 Q705.9915,58.0156 705.9915,60.1094 Q705.9915,62.2031 706.679,63.2813 Q707.3665,64.3438 708.7103,64.3438 Q709.3353,64.3438 709.929,64.0781 Q710.5228,63.7969 711.1478,63.2188 L711.1478,65.9375 Z " fill="#000000"/><text fill="#000000" font-family="sans-serif" font-size="14" lengthAdjust="spacing" textLength="79.1123" x="728.679" y="65.1436">FlightOrder</text><line style="stroke:#181818;stroke-width:0.5;" x1="563.43" x2="940.5404" y1="76.2969" y2="76.2969"/><g data-visibility-modifier="PRIVATE_FIELD"><rect fill="none" height="6" style="stroke:#C82930;stroke-width:1;" width="6" x="570.43" y="86.9453"/></g><text fill="#000000" font-family="sans-serif" font-size="14" lengthAdjust="spacing" textLength="207.9355" x="582.43" y="93.292">List&lt;ScheduledFlight&gt; flights</text><g data-visibility-modifier="PRIVATE_FIELD"><rect fill="none" height="6" style="stroke:#C82930;stroke-width:1;" width="6" x="570.43" y="103.2422"/></g><text fill="#000000" font-family="sans-serif" font-size="14" lengthAdjust="spacing" textLength="242.1631" x="582.43" y="109.5889">List&lt;BookingObserver&gt; observers</text><line style="stroke:#181818;stroke-width:0.5;" x1="563.43" x2="940.5404" y1="116.8906" y2="116.8906"/><g data-visibility-modifier="PUBLIC_METHOD"><ellipse cx="573.43" cy="130.5391" fill="#84BE84" rx="3" ry="3" style="stroke:#038048;stroke-width:1;"/></g><text fill="#000000" font-family="sans-serif" font-size="14" lengthAdjust="spacing" textLength="353.1104" x="582.43" y="133.8857">processOrderWithCreditCard(CreditCard): boolean</text><g data-visibility-modifier="PUBLIC_METHOD"><ellipse cx="573.43" cy="146.8359" fill="#84BE84" rx="3" ry="3" style="stroke:#038048;stroke-width:1;"/></g><text fill="#000000" font-family="sans-serif" font-size="14" lengthAdjust="spacing" textLength="340.9766" x="582.43" y="150.1826">processOrderWithPayPal(String, String): boolean</text><g data-visibility-modifier="PUBLIC_METHOD"><ellipse cx="573.43" cy="163.1328" fill="#84BE84" rx="3" ry="3" style="stroke:#038048;stroke-width:1;"/></g><text fill="#000000" font-family="sans-serif" font-size="14" lengthAdjust="spacing" textLength="261.0098" x="582.43" y="166.4795">addObserver(BookingObserver): void</text><g data-visibility-modifier="PUBLIC_METHOD"><ellipse cx="573.43" cy="179.4297" fill="#84BE84" rx="3" ry="3" style="stroke:#038048;stroke-width:1;"/></g><text fill="#000000" font-family="sans-serif" font-size="14" lengthAdjust="spacing" textLength="288.1279" x="582.43" y="182.7764">removeObserver(BookingObserver): void</text><g data-visibility-modifier="PACKAGE_PRIVATE_METHOD"><polygon fill="#4177AF" points="573.43,191.7266,569.43,197.7266,577.43,197.7266" style="stroke:#1963A0;stroke-width:1;"/></g><text fill="#000000" font-family="sans-serif" font-size="14" lengthAdjust="spacing" textLength="290.6846" x="582.43" y="199.0732">notifyObserversBookingConfirmed(): void</text><g data-visibility-modifier="PACKAGE_PRIVATE_METHOD"><polygon fill="#4177AF" points="573.43,208.0234,569.43,214.0234,577.43,214.0234" style="stroke:#1963A0;stroke-width:1;"/></g><text fill="#000000" font-family="sans-serif" font-size="14" lengthAdjust="spacing" textLength="342.0635" x="582.43" y="215.3701">notifyObserversPaymentProcessed(double): void</text><g data-visibility-modifier="PACKAGE_PRIVATE_METHOD"><polygon fill="#4177AF" points="573.43,224.3203,569.43,230.3203,577.43,230.3203" style="stroke:#1963A0;stroke-width:1;"/></g><text fill="#000000" font-family="sans-serif" font-size="14" lengthAdjust="spacing" textLength="286.5762" x="582.43" y="231.667">notifyObserversBookingCancelled(): void</text></g><g class="entity" data-qualified-name="GMN14" data-source-line="47" id="ent0015"><path d="M800.94,329.1469 L800.94,399.6781 A0,0 0 0 0 800.94,399.6781 L1037.024,399.6781 A0,0 0 0 0 1037.024,399.6781 L1037.024,339.1469 L1027.024,329.1469 L896.72,329.1469 L824.99,239.1469 L888.72,329.1469 L800.94,329.1469 A0,0 0 0 0 800.94,329.1469" fill="#FEFFDD" style="stroke:#181818;stroke-width:0.5;"/><path d="M1027.024,329.1469 L1027.024,339.1469 L1037.024,339.1469 L1027.024,329.1469" fill="#FEFFDD" style="stroke:#181818;stroke-width:0.5;"/><text fill="#000000" font-family="sans-serif" font-size="13" lengthAdjust="spacing" textLength="172.396" x="806.94" y="346.2138">Decoupled from observers</text><text fill="#000000" font-family="sans-serif" font-size="13" lengthAdjust="spacing" textLength="215.084" x="806.94" y="361.3466">Multiple notification mechanisms</text><text fill="#000000" font-family="sans-serif" font-size="13" lengthAdjust="spacing" textLength="175.6968" x="806.94" y="376.4794">Easy to add new observers</text><text fill="#000000" font-family="sans-serif" font-size="13" lengthAdjust="spacing" textLength="203.3789" x="806.94" y="391.6122">Automatic notification dispatch</text></g><!--reverse link BookingObserver to EmailNotificationObserver--><g class="link" data-entity-1="ent0002" data-entity-2="ent0003" data-link-type="extension" data-source-line="12" id="lnk4"><path d="M434.2235,419.7922 C384.3935,438.9022 345.33,454.3969 297.89,473.4869" fill="none" id="BookingObserver-backto-EmailNotificationObserver" style="stroke:#181818;stroke-width:1;stroke-dasharray:7,7;"/><polygon fill="none" points="451.03,413.3469,432.0751,414.1901,436.372,425.3944,451.03,413.3469" style="stroke:#181818;stroke-width:1;"/></g><!--link EmailNotificationObserver to BookingObserver--><g class="link" data-entity-1="ent0003" data-entity-2="ent0002" data-link-type="extension" data-source-line="42" id="lnk11"><path codeLine="42" d="M322.31,473.4869 C372.18,454.3969 411.3652,439.1862 458.7752,420.0762" fill="none" id="EmailNotificationObserver-to-BookingObserver" style="stroke:#181818;stroke-width:1;"/><polygon fill="none" points="475.47,413.3469,456.5321,414.5113,461.0183,425.6411,475.47,413.3469" style="stroke:#181818;stroke-width:1;"/></g><!--reverse link BookingObserver to LoggingObserver--><g class="link" data-entity-1="ent0002" data-entity-2="ent0005" data-link-type="extension" data-source-line="18" id="lnk6"><path d="M572.0148,430.9923 C570.8248,450.1623 571.93,454.2469 573.12,473.4369" fill="none" id="BookingObserver-backto-LoggingObserver" style="stroke:#181818;stroke-width:1;stroke-dasharray:7,7;"/><polygon fill="none" points="573.13,413.0269,566.0263,430.6206,578.0032,431.364,573.13,413.0269" style="stroke:#181818;stroke-width:1;"/></g><!--link LoggingObserver to BookingObserver--><g class="link" data-entity-1="ent0005" data-entity-2="ent0002" data-link-type="extension" data-source-line="43" id="lnk12"><path codeLine="43" d="M597.55,473.4369 C598.8,454.2469 599.9899,450.1575 598.7199,430.9875" fill="none" id="LoggingObserver-to-BookingObserver" style="stroke:#181818;stroke-width:1;"/><polygon fill="none" points="597.53,413.0269,592.733,431.3841,604.7068,430.5909,597.53,413.0269" style="stroke:#181818;stroke-width:1;"/></g><!--reverse link BookingObserver to AnalyticsObserver--><g class="link" data-entity-1="ent0002" data-entity-2="ent0007" data-link-type="extension" data-source-line="24" id="lnk8"><path d="M711.8882,420.0677 C759.3682,439.1777 798.55,454.3969 848.36,473.4869" fill="none" id="BookingObserver-backto-AnalyticsObserver" style="stroke:#181818;stroke-width:1;stroke-dasharray:7,7;"/><polygon fill="none" points="695.19,413.3469,709.648,425.6337,714.1285,414.5016,695.19,413.3469" style="stroke:#181818;stroke-width:1;"/></g><!--link AnalyticsObserver to BookingObserver--><g class="link" data-entity-1="ent0007" data-entity-2="ent0002" data-link-type="extension" data-source-line="44" id="lnk13"><path codeLine="44" d="M872.78,473.4869 C825.41,454.3969 786.3395,438.8943 736.4395,419.7843" fill="none" id="AnalyticsObserver-to-BookingObserver" style="stroke:#181818;stroke-width:1;"/><polygon fill="none" points="719.63,413.3469,734.2937,425.3875,738.5853,414.1812,719.63,413.3469" style="stroke:#181818;stroke-width:1;"/></g><!--link FlightOrder to BookingObserver--><g class="link" data-entity-1="ent0009" data-entity-2="ent0002" data-link-type="dependency" data-source-line="41" id="lnk10"><path codeLine="41" d="M678.98,239.1469 C658.97,265.6069 641.7594,288.3515 624.8094,310.7615" fill="none" id="FlightOrder-to-BookingObserver" style="stroke:#181818;stroke-width:1;"/><polygon fill="#181818" points="621.19,315.5469,629.8094,310.7818,624.2062,311.5591,623.4289,305.9559,621.19,315.5469" style="stroke:#181818;stroke-width:1;"/><text fill="#000000" font-family="sans-serif" font-size="13" lengthAdjust="spacing" textLength="47.8613" x="654.98" y="282.0338">notifies</text></g><?plantuml-src rLHDYzim4BthLmpqugNhGw6dfGIogNtQTaEtqBCYZUrX9KsGv9JGZzzUENPInqvAhx4F5inxCs_qPXmf6eJdJK2_Gmzh6IDw1paiow_55yY-KMncuJiHNibjfPSMDbAzrfvRfrTisCERikZU4K8P6SBZ55QyAylYlH3aKiPAAeH7viIfJyL-24ZFMs0tH5RiAl8MTLOQgflux3NwkmVOCUaJTYtt5brSUrOOmZds7ZIt6uDJpZ6_T0gDkPp_bn27Hg2maindZbIHaf7OdGIJtHhiYeTRwUM9wteiy_OwM3ffzf5KkE4UHh51OWvF5EA75zMWRXEzHooWEdp363FfSG4ydC8WPjlhFgJljddbKLDSIQ-plyUaQSDiKBehh7G9Qscob-XJiNlelpEMrFee99i8ExyXZvPt-3_Ot-2wNTiVOs5ctJ_HC_FcVbsjS39lvDZOgpnVJ4VieSz56CJr_qIU_vmHnNGLBuBcqtuH9f88JDR4o1Qu6WzOwlWZAcxJZcYeV1SVpSkdraHAeQ6BNZTOL8rq56m7AMJOG-JEQd3u_Oo-R5F1n57dV4rXAwDg13hTHV0F?></g></svg>