<?plantuml 1.2026.2beta3?><svg xmlns="http://www.w3.org/2000/svg" xmlns:xlink="http://www.w3.org/1999/xlink" contentStyleType="text/css" data-diagram-type="CLASS" height="436px" preserveAspectRatio="none" style="width:841px;height:436px;background:#FEFEFE;" version="1.1" viewBox="0 0 841 436" width="841px" zoomAndPan="magnify"><title>Observer Pattern - BEFORE (Current State)</title><defs/><g><rect fill="#FEFEFE" height="436" style="stroke:none;stroke-width:1;" width="841" x="0" y="0"/><g class="title" data-source-line="1"><text fill="#000000" font-family="sans-serif" font-size="14" font-weight="bold" lengthAdjust="spacing" textLength="339.2744" x="244.1661" y="22.9951">Observer Pattern - BEFORE (Current State)</text></g><!--class FlightOrder--><g class="entity" data-qualified-name="FlightOrder" data-source-line="5" id="ent0002"><rect fill="#FFE4E1" height="129.4844" rx="2.5" ry="2.5" style="stroke:#181818;stroke-width:0.5;" width="379.1104" x="200.37" y="44.2969"/><ellipse cx="346.119" cy="60.2969" fill="#ADD1B2" rx="11" ry="11" style="stroke:#181818;stroke-width:1;"/><path d="M349.0878,65.9375 Q348.5096,66.2344 347.869,66.375 Q347.2284,66.5313 346.5253,66.5313 Q344.0253,66.5313 342.6971,64.8906 Q341.3846,63.2344 341.3846,60.1094 Q341.3846,56.9844 342.6971,55.3281 Q344.0253,53.6719 346.5253,53.6719 Q347.2284,53.6719 347.869,53.8281 Q348.5253,53.9844 349.0878,54.2813 L349.0878,57 Q348.4628,56.4219 347.869,56.1563 Q347.2753,55.875 346.6503,55.875 Q345.3065,55.875 344.619,56.9531 Q343.9315,58.0156 343.9315,60.1094 Q343.9315,62.2031 344.619,63.2813 Q345.3065,64.3438 346.6503,64.3438 Q347.2753,64.3438 347.869,64.0781 Q348.4628,63.7969 349.0878,63.2188 L349.0878,65.9375 Z " fill="#000000"/><text fill="#000000" font-family="sans-serif" font-size="14" lengthAdjust="spacing" textLength="79.1123" x="366.619" y="65.1436">FlightOrder</text><line style="stroke:#181818;stroke-width:0.5;" x1="201.37" x2="578.4804" y1="76.2969" y2="76.2969"/><g data-visibility-modifier="PRIVATE_FIELD"><rect fill="none" height="6" style="stroke:#C82930;stroke-width:1;" width="6" x="208.37" y="86.9453"/></g><text fill="#000000" font-family="sans-serif" font-size="14" lengthAdjust="spacing" textLength="207.9355" x="220.37" y="93.292">List&lt;ScheduledFlight&gt; flights</text><line style="stroke:#181818;stroke-width:0.5;" x1="201.37" x2="578.4804" y1="100.5938" y2="100.5938"/><g data-visibility-modifier="PUBLIC_METHOD"><ellipse cx="211.37" cy="114.2422" fill="#84BE84" rx="3" ry="3" style="stroke:#038048;stroke-width:1;"/></g><text fill="#000000" font-family="sans-serif" font-size="14" lengthAdjust="spacing" textLength="353.1104" x="220.37" y="117.5889">processOrderWithCreditCard(CreditCard): boolean</text><g data-visibility-modifier="PUBLIC_METHOD"><ellipse cx="211.37" cy="130.5391" fill="#84BE84" rx="3" ry="3" style="stroke:#038048;stroke-width:1;"/></g><text fill="#000000" font-family="sans-serif" font-size="14" lengthAdjust="spacing" textLength="340.9766" x="220.37" y="133.8857">processOrderWithPayPal(String, String): boolean</text><g data-visibility-modifier="PUBLIC_METHOD"><ellipse cx="211.37" cy="146.8359" fill="#84BE84" rx="3" ry="3" style="stroke:#038048;stroke-width:1;"/></g><text fill="#000000" font-family="sans-serif" font-size="14" lengthAdjust="spacing" textLength="341.3389" x="220.37" y="150.1826">payWithCreditCard(CreditCard, double): boolean</text><g data-visibility-modifier="PUBLIC_METHOD"><ellipse cx="211.37" cy="163.1328" fill="#84BE84" rx="3" ry="3" style="stroke:#038048;stroke-width:1;"/></g><text fill="#000000" font-family="sans-serif" font-size="14" lengthAdjust="spacing" textLength="329.2051" x="220.37" y="166.4795">payWithPayPal(String, String, double): boolean</text></g><!--class CreditCard--><g class="entity" data-qualified-name="CreditCard" data-source-line="13" id="ent0003"><rect fill="#FFE4E1" height="178.375" rx="2.5" ry="2.5" style="stroke:#181818;stroke-width:0.5;" width="199.8447" x="7" y="250.7769"/><ellipse cx="64.9688" cy="266.7769" fill="#ADD1B2" rx="11" ry="11" style="stroke:#181818;stroke-width:1;"/><path d="M67.9375,272.4175 Q67.3594,272.7144 66.7188,272.855 Q66.0781,273.0113 65.375,273.0113 Q62.875,273.0113 61.5469,271.3706 Q60.2344,269.7144 60.2344,266.5894 Q60.2344,263.4644 61.5469,261.8081 Q62.875,260.1519 65.375,260.1519 Q66.0781,260.1519 66.7188,260.3081 Q67.375,260.4644 67.9375,260.7613 L67.9375,263.48 Q67.3125,262.9019 66.7188,262.6363 Q66.125,262.355 65.5,262.355 Q64.1563,262.355 63.4688,263.4331 Q62.7813,264.4956 62.7813,266.5894 Q62.7813,268.6831 63.4688,269.7613 Q64.1563,270.8238 65.5,270.8238 Q66.125,270.8238 66.7188,270.5581 Q67.3125,270.2769 67.9375,269.6988 L67.9375,272.4175 Z " fill="#000000"/><text fill="#000000" font-family="sans-serif" font-size="14" lengthAdjust="spacing" textLength="75.4072" x="85.4688" y="271.6236">CreditCard</text><line style="stroke:#181818;stroke-width:0.5;" x1="8" x2="205.8447" y1="282.7769" y2="282.7769"/><g data-visibility-modifier="PRIVATE_FIELD"><rect fill="none" height="6" style="stroke:#C82930;stroke-width:1;" width="6" x="15" y="293.4253"/></g><text fill="#000000" font-family="sans-serif" font-size="14" lengthAdjust="spacing" textLength="106.1826" x="27" y="299.772">double amount</text><g data-visibility-modifier="PRIVATE_FIELD"><rect fill="none" height="6" style="stroke:#C82930;stroke-width:1;" width="6" x="15" y="309.7222"/></g><text fill="#000000" font-family="sans-serif" font-size="14" lengthAdjust="spacing" textLength="100.8711" x="27" y="316.0689">String number</text><g data-visibility-modifier="PRIVATE_FIELD"><rect fill="none" height="6" style="stroke:#C82930;stroke-width:1;" width="6" x="15" y="326.0191"/></g><text fill="#000000" font-family="sans-serif" font-size="14" lengthAdjust="spacing" textLength="69.4805" x="27" y="332.3657">Date date</text><g data-visibility-modifier="PRIVATE_FIELD"><rect fill="none" height="6" style="stroke:#C82930;stroke-width:1;" width="6" x="15" y="342.3159"/></g><text fill="#000000" font-family="sans-serif" font-size="14" lengthAdjust="spacing" textLength="70.499" x="27" y="348.6626">String cvv</text><g data-visibility-modifier="PRIVATE_FIELD"><rect fill="none" height="6" style="stroke:#C82930;stroke-width:1;" width="6" x="15" y="358.6128"/></g><text fill="#000000" font-family="sans-serif" font-size="14" lengthAdjust="spacing" textLength="93.9531" x="27" y="364.9595">boolean valid</text><line style="stroke:#181818;stroke-width:0.5;" x1="8" x2="205.8447" y1="372.2613" y2="372.2613"/><g data-visibility-modifier="PUBLIC_METHOD"><ellipse cx="18" cy="385.9097" fill="#84BE84" rx="3" ry="3" style="stroke:#038048;stroke-width:1;"/></g><text fill="#000000" font-family="sans-serif" font-size="14" lengthAdjust="spacing" textLength="122.0693" x="27" y="389.2564">isValid(): boolean</text><g data-visibility-modifier="PUBLIC_METHOD"><ellipse cx="18" cy="402.2066" fill="#84BE84" rx="3" ry="3" style="stroke:#038048;stroke-width:1;"/></g><text fill="#000000" font-family="sans-serif" font-size="14" lengthAdjust="spacing" textLength="145.8105" x="27" y="405.5532">getAmount(): double</text><g data-visibility-modifier="PUBLIC_METHOD"><ellipse cx="18" cy="418.5034" fill="#84BE84" rx="3" ry="3" style="stroke:#038048;stroke-width:1;"/></g><text fill="#000000" font-family="sans-serif" font-size="14" lengthAdjust="spacing" textLength="173.8447" x="27" y="421.8501">setAmount(double): void</text></g><!--class Paypal--><g class="entity" data-qualified-name="Paypal" data-source-line="24" id="ent0004"><rect fill="#FFE4E1" height="64.2969" rx="2.5" ry="2.5" style="stroke:#181818;stroke-width:0.5;" width="296.7578" x="241.54" y="307.8169"/><ellipse cx="362.3379" cy="323.8169" fill="#ADD1B2" rx="11" ry="11" style="stroke:#181818;stroke-width:1;"/><path d="M365.3066,329.4575 Q364.7285,329.7544 364.0879,329.895 Q363.4472,330.0513 362.7441,330.0513 Q360.2441,330.0513 358.916,328.4106 Q357.6035,326.7544 357.6035,323.6294 Q357.6035,320.5044 358.916,318.8481 Q360.2441,317.1919 362.7441,317.1919 Q363.4472,317.1919 364.0879,317.3481 Q364.7441,317.5044 365.3066,317.8013 L365.3066,320.52 Q364.6816,319.9419 364.0879,319.6763 Q363.4941,319.395 362.8691,319.395 Q361.5254,319.395 360.8379,320.4731 Q360.1504,321.5356 360.1504,323.6294 Q360.1504,325.7231 360.8379,326.8013 Q361.5254,327.8638 362.8691,327.8638 Q363.4941,327.8638 364.0879,327.5981 Q364.6816,327.3169 365.3066,326.7388 L365.3066,329.4575 Z " fill="#000000"/><text fill="#000000" font-family="sans-serif" font-size="14" lengthAdjust="spacing" textLength="46.6621" x="382.8379" y="328.6636">Paypal</text><line style="stroke:#181818;stroke-width:0.5;" x1="242.54" x2="537.2978" y1="339.8169" y2="339.8169"/><g data-visibility-modifier="PRIVATE_FIELD"><rect fill="none" height="6" style="stroke:#C82930;stroke-width:1;" width="6" x="249.54" y="350.4653"/></g><text fill="#000000" font-family="sans-serif" font-size="14" lengthAdjust="spacing" textLength="270.7578" x="261.54" y="356.812">static Map&lt;String,String&gt; DATA_BASE</text><line style="stroke:#181818;stroke-width:0.5;" x1="242.54" x2="537.2978" y1="364.1138" y2="364.1138"/></g><g class="entity" data-qualified-name="GMN7" data-source-line="32" id="ent0008"><path d="M573.24,304.7069 L573.24,375.2381 A0,0 0 0 0 573.24,375.2381 L834.6067,375.2381 A0,0 0 0 0 834.6067,375.2381 L834.6067,314.7069 L824.6067,304.7069 L660.43,304.7069 L477.81,174.1169 L652.43,304.7069 L573.24,304.7069 A0,0 0 0 0 573.24,304.7069" fill="#FEFFDD" style="stroke:#181818;stroke-width:0.5;"/><path d="M824.6067,304.7069 L824.6067,314.7069 L834.6067,314.7069 L824.6067,304.7069" fill="#FEFFDD" style="stroke:#181818;stroke-width:0.5;"/><text fill="#000000" font-family="sans-serif" font-size="13" lengthAdjust="spacing" textLength="174.3511" x="579.24" y="321.7738">No notification mechanism</text><text fill="#000000" font-family="sans-serif" font-size="13" lengthAdjust="spacing" textLength="240.3667" x="579.24" y="336.9066">Tightly coupled to payment methods</text><text fill="#000000" font-family="sans-serif" font-size="13" lengthAdjust="spacing" textLength="224.0088" x="579.24" y="352.0394">No way to react to booking events</text><text fill="#000000" font-family="sans-serif" font-size="13" lengthAdjust="spacing" textLength="229.4424" x="579.24" y="367.1722">Manual logging required elsewhere</text></g><!--link FlightOrder to CreditCard--><g class="link" data-entity-1="ent0002" data-entity-2="ent0003" data-link-type="dependency" data-source-line="28" id="lnk5"><path codeLine="28" d="M310.71,174.1169 C278.58,200.1069 245.7651,226.6537 211.7651,254.1537" fill="none" id="FlightOrder-to-CreditCard" style="stroke:#181818;stroke-width:1;"/><polygon fill="#181818" points="207.1,257.9269,216.6131,255.3771,210.9876,254.7825,211.5821,249.157,207.1,257.9269" style="stroke:#181818;stroke-width:1;"/><text fill="#000000" font-family="sans-serif" font-size="13" lengthAdjust="spacing" textLength="29.7832" x="274.92" y="216.8438">uses</text></g><!--link FlightOrder to Paypal--><g class="link" data-entity-1="ent0002" data-entity-2="ent0004" data-link-type="dependency" data-source-line="29" id="lnk6"><path codeLine="29" d="M389.92,174.1169 C389.92,217.6369 389.92,267.2969 389.92,301.5169" fill="none" id="FlightOrder-to-Paypal" style="stroke:#181818;stroke-width:1;"/><polygon fill="#181818" points="389.92,307.5169,393.92,298.5169,389.92,302.5169,385.92,298.5169,389.92,307.5169" style="stroke:#181818;stroke-width:1;"/><text fill="#000000" font-family="sans-serif" font-size="13" lengthAdjust="spacing" textLength="29.7832" x="390.92" y="216.8438">uses</text></g><?plantuml-src TL9DRzim3BtxLn3O9KMRmu2TYY90aZgdjGcMOZiEjCJOGcJHbMWNmT3_Fidst0nfRC2K-Hu_7aKnOWcsHI3VaOSTYf1tC8TLljd-o66sRhqd9x0N5Bh9mj6u1ZtMKA0wbfvRfzTisSENJPxUCuQo6CBgWhR9l-LViwn7OMDDMSdMwrZyJmRncSDt4-HXhohIhIKzC1Pmw6teERVGU5OKGX_uoqYrzgIDhD7hsSVnvXuAPalehaJjyBH3EzkBDwwyWy5UHk7fQeaxqDmMbgu5VLhXaw3tVmFvI3tDOo03rd6AClg6HE3QkY0_-XxZ3O6Ed_yvgkj6nrWCEhH6ZtsQy3FzpIu4b2JBlcA2XXP694p89AFZc73I44KtQAV-GrmTe-09cuTH_s0MyBXyMVvUBVTvYZrVXVbySJQ9UsW3XGl2K6O4CyTHVS4YN0CVpXShjl7C475pC2gsmWvgKXKw4-g8lIIYFO7Yjedx1iBfykgqz3L9nJeC2Txmb31Fg2GTuhYEQRxKHMhYFA5hespBPPdydbvR4pK0sK1l5NdAoEdK1_q5?></g></svg>