<?plantuml 1.2026.2beta3?><svg xmlns="http://www.w3.org/2000/svg" xmlns:xlink="http://www.w3.org/1999/xlink" contentStyleType="text/css" data-diagram-type="CLASS" height="370px" preserveAspectRatio="none" style="width:815px;height:370px;background:#FEFEFE;" version="1.1" viewBox="0 0 815 370" width="815px" zoomAndPan="magnify"><title>Strategy Pattern - BEFORE (Current State)</title><defs/><g><rect fill="#FEFEFE" height="370" style="stroke:none;stroke-width:1;" width="815" x="0" y="0"/><g class="title" data-source-line="1"><text fill="#000000" font-family="sans-serif" font-size="14" font-weight="bold" lengthAdjust="spacing" textLength="335.5557" x="232.9842" y="22.9951">Strategy Pattern - BEFORE (Current State)</text></g><!--class CreditCard--><g class="entity" data-qualified-name="CreditCard" data-source-line="5" id="ent0002"><rect fill="#FFE4E1" height="129.4844" rx="2.5" ry="2.5" style="stroke:#181818;stroke-width:0.5;" width="199.8447" x="7" y="234.4869"/><ellipse cx="64.9688" cy="250.4869" fill="#ADD1B2" rx="11" ry="11" style="stroke:#181818;stroke-width:1;"/><path d="M67.9375,256.1275 Q67.3594,256.4244 66.7188,256.565 Q66.0781,256.7213 65.375,256.7213 Q62.875,256.7213 61.5469,255.0806 Q60.2344,253.4244 60.2344,250.2994 Q60.2344,247.1744 61.5469,245.5181 Q62.875,243.8619 65.375,243.8619 Q66.0781,243.8619 66.7188,244.0181 Q67.375,244.1744 67.9375,244.4713 L67.9375,247.19 Q67.3125,246.6119 66.7188,246.3463 Q66.125,246.065 65.5,246.065 Q64.1563,246.065 63.4688,247.1431 Q62.7813,248.2056 62.7813,250.2994 Q62.7813,252.3931 63.4688,253.4713 Q64.1563,254.5338 65.5,254.5338 Q66.125,254.5338 66.7188,254.2681 Q67.3125,253.9869 67.9375,253.4088 L67.9375,256.1275 Z " fill="#000000"/><text fill="#000000" font-family="sans-serif" font-size="14" lengthAdjust="spacing" textLength="75.4072" x="85.4688" y="255.3336">CreditCard</text><line style="stroke:#181818;stroke-width:0.5;" x1="8" x2="205.8447" y1="266.4869" y2="266.4869"/><g data-visibility-modifier="PRIVATE_FIELD"><rect fill="none" height="6" style="stroke:#C82930;stroke-width:1;" width="6" x="15" y="277.1353"/></g><text fill="#000000" font-family="sans-serif" font-size="14" lengthAdjust="spacing" textLength="106.1826" x="27" y="283.482">double amount</text><g data-visibility-modifier="PRIVATE_FIELD"><rect fill="none" height="6" style="stroke:#C82930;stroke-width:1;" width="6" x="15" y="293.4322"/></g><text fill="#000000" font-family="sans-serif" font-size="14" lengthAdjust="spacing" textLength="100.8711" x="27" y="299.7789">String number</text><line style="stroke:#181818;stroke-width:0.5;" x1="8" x2="205.8447" y1="307.0806" y2="307.0806"/><g data-visibility-modifier="PUBLIC_METHOD"><ellipse cx="18" cy="320.7291" fill="#84BE84" rx="3" ry="3" style="stroke:#038048;stroke-width:1;"/></g><text fill="#000000" font-family="sans-serif" font-size="14" lengthAdjust="spacing" textLength="122.0693" x="27" y="324.0757">isValid(): boolean</text><g data-visibility-modifier="PUBLIC_METHOD"><ellipse cx="18" cy="337.0259" fill="#84BE84" rx="3" ry="3" style="stroke:#038048;stroke-width:1;"/></g><text fill="#000000" font-family="sans-serif" font-size="14" lengthAdjust="spacing" textLength="145.8105" x="27" y="340.3726">getAmount(): double</text><g data-visibility-modifier="PUBLIC_METHOD"><ellipse cx="18" cy="353.3228" fill="#84BE84" rx="3" ry="3" style="stroke:#038048;stroke-width:1;"/></g><text fill="#000000" font-family="sans-serif" font-size="14" lengthAdjust="spacing" textLength="173.8447" x="27" y="356.6695">setAmount(double): void</text></g><!--class Paypal--><g class="entity" data-qualified-name="Paypal" data-source-line="13" id="ent0003"><rect fill="#FFE4E1" height="64.2969" rx="2.5" ry="2.5" style="stroke:#181818;stroke-width:0.5;" width="253.8691" x="241.99" y="267.0769"/><ellipse cx="341.3435" cy="283.0769" fill="#ADD1B2" rx="11" ry="11" style="stroke:#181818;stroke-width:1;"/><path d="M344.3123,288.7175 Q343.7341,289.0144 343.0935,289.155 Q342.4529,289.3113 341.7498,289.3113 Q339.2498,289.3113 337.9216,287.6706 Q336.6091,286.0144 336.6091,282.8894 Q336.6091,279.7644 337.9216,278.1081 Q339.2498,276.4519 341.7498,276.4519 Q342.4529,276.4519 343.0935,276.6081 Q343.7498,276.7644 344.3123,277.0613 L344.3123,279.78 Q343.6873,279.2019 343.0935,278.9363 Q342.4998,278.655 341.8748,278.655 Q340.531,278.655 339.8435,279.7331 Q339.156,280.7956 339.156,282.8894 Q339.156,284.9831 339.8435,286.0613 Q340.531,287.1238 341.8748,287.1238 Q342.4998,287.1238 343.0935,286.8581 Q343.6873,286.5769 344.3123,285.9988 L344.3123,288.7175 Z " fill="#000000"/><text fill="#000000" font-family="sans-serif" font-size="14" lengthAdjust="spacing" textLength="46.6621" x="361.8435" y="287.9236">Paypal</text><line style="stroke:#181818;stroke-width:0.5;" x1="242.99" x2="494.8591" y1="299.0769" y2="299.0769"/><g data-visibility-modifier="PUBLIC_FIELD"><ellipse cx="252.99" cy="312.7253" fill="none" rx="3" ry="3" style="stroke:#038048;stroke-width:1;"/></g><text fill="#000000" font-family="sans-serif" font-size="14" lengthAdjust="spacing" text-decoration="underline" textLength="227.8691" x="261.99" y="316.072">Map&lt;String,String&gt; DATA_BASE</text><line style="stroke:#181818;stroke-width:0.5;" x1="242.99" x2="494.8591" y1="323.3738" y2="323.3738"/></g><!--class FlightOrder--><g class="entity" data-qualified-name="FlightOrder" data-source-line="17" id="ent0004"><rect fill="#FFE4E1" height="113.1875" rx="2.5" ry="2.5" style="stroke:#181818;stroke-width:0.5;" width="379.1104" x="179.37" y="44.2969"/><ellipse cx="325.119" cy="60.2969" fill="#ADD1B2" rx="11" ry="11" style="stroke:#181818;stroke-width:1;"/><path d="M328.0878,65.9375 Q327.5096,66.2344 326.869,66.375 Q326.2284,66.5313 325.5253,66.5313 Q323.0253,66.5313 321.6971,64.8906 Q320.3846,63.2344 320.3846,60.1094 Q320.3846,56.9844 321.6971,55.3281 Q323.0253,53.6719 325.5253,53.6719 Q326.2284,53.6719 326.869,53.8281 Q327.5253,53.9844 328.0878,54.2813 L328.0878,57 Q327.4628,56.4219 326.869,56.1563 Q326.2753,55.875 325.6503,55.875 Q324.3065,55.875 323.619,56.9531 Q322.9315,58.0156 322.9315,60.1094 Q322.9315,62.2031 323.619,63.2813 Q324.3065,64.3438 325.6503,64.3438 Q326.2753,64.3438 326.869,64.0781 Q327.4628,63.7969 328.0878,63.2188 L328.0878,65.9375 Z " fill="#000000"/><text fill="#000000" font-family="sans-serif" font-size="14" lengthAdjust="spacing" textLength="79.1123" x="345.619" y="65.1436">FlightOrder</text><line style="stroke:#181818;stroke-width:0.5;" x1="180.37" x2="557.4804" y1="76.2969" y2="76.2969"/><line style="stroke:#181818;stroke-width:0.5;" x1="180.37" x2="557.4804" y1="84.2969" y2="84.2969"/><g data-visibility-modifier="PUBLIC_METHOD"><ellipse cx="190.37" cy="97.9453" fill="#84BE84" rx="3" ry="3" style="stroke:#038048;stroke-width:1;"/></g><text fill="#000000" font-family="sans-serif" font-size="14" lengthAdjust="spacing" textLength="353.1104" x="199.37" y="101.292">processOrderWithCreditCard(CreditCard): boolean</text><g data-visibility-modifier="PUBLIC_METHOD"><ellipse cx="190.37" cy="114.2422" fill="#84BE84" rx="3" ry="3" style="stroke:#038048;stroke-width:1;"/></g><text fill="#000000" font-family="sans-serif" font-size="14" lengthAdjust="spacing" textLength="340.9766" x="199.37" y="117.5889">processOrderWithPayPal(String, String): boolean</text><g data-visibility-modifier="PUBLIC_METHOD"><ellipse cx="190.37" cy="130.5391" fill="#84BE84" rx="3" ry="3" style="stroke:#038048;stroke-width:1;"/></g><text fill="#000000" font-family="sans-serif" font-size="14" lengthAdjust="spacing" textLength="341.3389" x="199.37" y="133.8857">payWithCreditCard(CreditCard, double): boolean</text><g data-visibility-modifier="PUBLIC_METHOD"><ellipse cx="190.37" cy="146.8359" fill="#84BE84" rx="3" ry="3" style="stroke:#038048;stroke-width:1;"/></g><text fill="#000000" font-family="sans-serif" font-size="14" lengthAdjust="spacing" textLength="329.2051" x="199.37" y="150.1826">payWithPayPal(String, String, double): boolean</text></g><g class="entity" data-qualified-name="GMN7" data-source-line="28" id="ent0008"><path d="M531.32,256.3969 L531.32,342.0609 A0,0 0 0 0 531.32,342.0609 L808.5241,342.0609 A0,0 0 0 0 808.5241,342.0609 L808.5241,266.3969 L798.5241,256.3969 L609.5,256.3969 L454.77,157.8869 L601.5,256.3969 L531.32,256.3969 A0,0 0 0 0 531.32,256.3969" fill="#FEFFDD" style="stroke:#181818;stroke-width:0.5;"/><path d="M798.5241,256.3969 L798.5241,266.3969 L808.5241,266.3969 L798.5241,256.3969" fill="#FEFFDD" style="stroke:#181818;stroke-width:0.5;"/><text fill="#000000" font-family="sans-serif" font-size="13" lengthAdjust="spacing" textLength="256.2041" x="537.32" y="273.4638">Payment algorithms mixed in one class</text><text fill="#000000" font-family="sans-serif" font-size="13" lengthAdjust="spacing" textLength="193.1782" x="537.32" y="288.5966">Different signatures and logic</text><text fill="#000000" font-family="sans-serif" font-size="13" lengthAdjust="spacing" textLength="199.5386" x="537.32" y="303.7294">Code duplication for validation</text><text fill="#000000" font-family="sans-serif" font-size="13" lengthAdjust="spacing" textLength="231.2769" x="537.32" y="318.8622">Hard to add new payment methods</text><text fill="#000000" font-family="sans-serif" font-size="13" lengthAdjust="spacing" textLength="202.4395" x="537.32" y="333.995">No runtime algorithm selection</text></g><!--link FlightOrder to CreditCard--><g class="link" data-entity-1="ent0004" data-entity-2="ent0002" data-link-type="dependency" data-source-line="24" id="lnk5"><path codeLine="24" d="M294.19,157.8869 C262.43,181.6869 230.0219,205.9794 197.1719,230.5894" fill="none" id="FlightOrder-to-CreditCard" style="stroke:#181818;stroke-width:1;"/><polygon fill="#181818" points="192.37,234.1869,201.9712,231.992,196.3716,231.189,197.1746,225.5894,192.37,234.1869" style="stroke:#181818;stroke-width:1;"/><text fill="#000000" font-family="sans-serif" font-size="13" lengthAdjust="spacing" textLength="29.7832" x="254.92" y="200.5538">uses</text></g><!--link FlightOrder to Paypal--><g class="link" data-entity-1="ent0004" data-entity-2="ent0003" data-link-type="dependency" data-source-line="25" id="lnk6"><path codeLine="25" d="M368.92,157.8869 C368.92,193.1369 368.92,231.3469 368.92,260.6169" fill="none" id="FlightOrder-to-Paypal" style="stroke:#181818;stroke-width:1;"/><polygon fill="#181818" points="368.92,266.6169,372.92,257.6169,368.92,261.6169,364.92,257.6169,368.92,266.6169" style="stroke:#181818;stroke-width:1;"/><text fill="#000000" font-family="sans-serif" font-size="13" lengthAdjust="spacing" textLength="29.7832" x="369.92" y="200.5538">uses</text></g><?plantuml-src TL9DRzim3BtxLn3O9KMRmu2UYg50uZhOfMkm3jjnO2p68Ig9XaHt2uh-zz4VIu8bim-MoVV8H-efgoTureHApHxMg4efmXoMrUhfQmMpiak9eXh445T5Vk7OOi806wnVcYHTTALuIV1XLVNl2QBscFFo3BQgRgkFHJ5aeKpaM4jC3juAi6SEJhgDQS9W99rY9f1Z0x4B6qf3x1euVqVFRdPr1niHJnYdH4Ew6CXzQgmsPV8XCuOj_ohiYlU_SjQuRz5FKgxXBTlKNB_38xQVHWqtu-SU7XRV5Z-NY-Vgo5vvRdRwb1obGuasIKqv3y4VhBlZmBFZyMo4VrccQur-DacOrd7Emlr_Mzp0OUIBf8iTBf1isDCnv_FxapkyWovJFWECMvsIHHGbAwSg0MHxkZHJPD3Gsmrz8ybaXGo1VvC3ZY2HHayPxe6tMngCcRc9g5sY31WTU6cuDa0fZi1rhUVQhb0YRCryhxrXXbz3VEvDfmBe74JwrIzYQ1r8T-Bw9by4afc50ntrc8SyrKC9idRzC7y0?></g></svg>