<?plantuml 1.2026.2beta3?><svg xmlns="http://www.w3.org/2000/svg" xmlns:xlink="http://www.w3.org/1999/xlink" contentStyleType="text/css" data-diagram-type="CLASS" height="532px" preserveAspectRatio="none" style="width:1017px;height:532px;background:#FEFEFE;" version="1.1" viewBox="0 0 1017 532" width="1017px" zoomAndPan="magnify"><title>Strategy Pattern - AFTER (With Strategy Pattern)</title><defs/><g><rect fill="#FEFEFE" height="532" style="stroke:none;stroke-width:1;" width="1017" x="0" y="0"/><g class="title" data-source-line="1"><text fill="#000000" font-family="sans-serif" font-size="14" font-weight="bold" lengthAdjust="spacing" textLength="390.8857" x="306.461" y="22.9951">Strategy Pattern - AFTER (With Strategy Pattern)</text></g><!--class PaymentStrategy--><g class="entity" data-qualified-name="PaymentStrategy" data-source-line="5" id="ent0002"><rect fill="#E1FFE4" height="96.8906" rx="2.5" ry="2.5" style="stroke:#181818;stroke-width:0.5;" width="212.1494" x="394.75" y="220.1369"/><ellipse cx="435.9599" cy="236.1369" fill="#B4A7E5" rx="11" ry="11" style="stroke:#181818;stroke-width:1;"/><path d="M431.8817,231.9025 L431.8817,229.7463 L439.2724,229.7463 L439.2724,231.9025 L436.8036,231.9025 L436.8036,239.9806 L439.2724,239.9806 L439.2724,242.1369 L431.8817,242.1369 L431.8817,239.9806 L434.3505,239.9806 L434.3505,231.9025 L431.8817,231.9025 Z " fill="#000000"/><text fill="#000000" font-family="sans-serif" font-size="14" font-style="italic" lengthAdjust="spacing" textLength="121.9053" x="455.7843" y="240.9836">PaymentStrategy</text><line style="stroke:#181818;stroke-width:0.5;" x1="395.75" x2="605.8994" y1="252.1369" y2="252.1369"/><line style="stroke:#181818;stroke-width:0.5;" x1="395.75" x2="605.8994" y1="260.1369" y2="260.1369"/><g data-visibility-modifier="PUBLIC_METHOD"><ellipse cx="405.75" cy="273.7853" fill="#84BE84" rx="3" ry="3" style="stroke:#038048;stroke-width:1;"/></g><text fill="#000000" font-family="sans-serif" font-size="14" lengthAdjust="spacing" textLength="132.2754" x="414.75" y="277.132">validate(): boolean</text><g data-visibility-modifier="PUBLIC_METHOD"><ellipse cx="405.75" cy="290.0822" fill="#84BE84" rx="3" ry="3" style="stroke:#038048;stroke-width:1;"/></g><text fill="#000000" font-family="sans-serif" font-size="14" lengthAdjust="spacing" textLength="179.9629" x="414.75" y="293.4289">execute(double): boolean</text><g data-visibility-modifier="PUBLIC_METHOD"><ellipse cx="405.75" cy="306.3791" fill="#84BE84" rx="3" ry="3" style="stroke:#038048;stroke-width:1;"/></g><text fill="#000000" font-family="sans-serif" font-size="14" lengthAdjust="spacing" textLength="186.1494" x="414.75" y="309.7257">getStrategyName(): String</text></g><!--class CreditCardPaymentStrategy--><g class="entity" data-qualified-name="CreditCardPaymentStrategy" data-source-line="11" id="ent0003"><rect fill="#E1FFE4" height="129.4844" rx="2.5" ry="2.5" style="stroke:#181818;stroke-width:0.5;" width="309.6436" x="7" y="388.1369"/><ellipse cx="58.9155" cy="404.1369" fill="#ADD1B2" rx="11" ry="11" style="stroke:#181818;stroke-width:1;"/><path d="M61.8843,409.7775 Q61.3062,410.0744 60.6655,410.215 Q60.0249,410.3713 59.3218,410.3713 Q56.8218,410.3713 55.4937,408.7306 Q54.1812,407.0744 54.1812,403.9494 Q54.1812,400.8244 55.4937,399.1681 Q56.8218,397.5119 59.3218,397.5119 Q60.0249,397.5119 60.6655,397.6681 Q61.3218,397.8244 61.8843,398.1213 L61.8843,400.84 Q61.2593,400.2619 60.6655,399.9963 Q60.0718,399.715 59.4468,399.715 Q58.103,399.715 57.4155,400.7931 Q56.728,401.8556 56.728,403.9494 Q56.728,406.0431 57.4155,407.1213 Q58.103,408.1838 59.4468,408.1838 Q60.0718,408.1838 60.6655,407.9181 Q61.2593,407.6369 61.8843,407.0588 L61.8843,409.7775 Z " fill="#000000"/><text fill="#000000" font-family="sans-serif" font-size="14" lengthAdjust="spacing" textLength="197.3125" x="79.4155" y="408.9836">CreditCardPaymentStrategy</text><line style="stroke:#181818;stroke-width:0.5;" x1="8" x2="315.6436" y1="420.1369" y2="420.1369"/><g data-visibility-modifier="PRIVATE_FIELD"><rect fill="none" height="6" style="stroke:#C82930;stroke-width:1;" width="6" x="15" y="430.7853"/></g><text fill="#000000" font-family="sans-serif" font-size="14" lengthAdjust="spacing" textLength="153.1865" x="27" y="437.132">CreditCard creditCard</text><line style="stroke:#181818;stroke-width:0.5;" x1="8" x2="315.6436" y1="444.4338" y2="444.4338"/><g data-visibility-modifier="PUBLIC_METHOD"><ellipse cx="18" cy="458.0822" fill="#84BE84" rx="3" ry="3" style="stroke:#038048;stroke-width:1;"/></g><text fill="#000000" font-family="sans-serif" font-size="14" lengthAdjust="spacing" textLength="283.6436" x="27" y="461.4289">CreditCardPaymentStrategy(CreditCard)</text><g data-visibility-modifier="PUBLIC_METHOD"><ellipse cx="18" cy="474.3791" fill="#84BE84" rx="3" ry="3" style="stroke:#038048;stroke-width:1;"/></g><text fill="#000000" font-family="sans-serif" font-size="14" lengthAdjust="spacing" textLength="132.2754" x="27" y="477.7257">validate(): boolean</text><g data-visibility-modifier="PUBLIC_METHOD"><ellipse cx="18" cy="490.6759" fill="#84BE84" rx="3" ry="3" style="stroke:#038048;stroke-width:1;"/></g><text fill="#000000" font-family="sans-serif" font-size="14" lengthAdjust="spacing" textLength="179.9629" x="27" y="494.0226">execute(double): boolean</text><g data-visibility-modifier="PUBLIC_METHOD"><ellipse cx="18" cy="506.9728" fill="#84BE84" rx="3" ry="3" style="stroke:#038048;stroke-width:1;"/></g><text fill="#000000" font-family="sans-serif" font-size="14" lengthAdjust="spacing" textLength="186.1494" x="27" y="510.3195">getStrategyName(): String</text></g><!--class PayPalPaymentStrategy--><g class="entity" data-qualified-name="PayPalPaymentStrategy" data-source-line="19" id="ent0005"><rect fill="#E1FFE4" height="145.7813" rx="2.5" ry="2.5" style="stroke:#181818;stroke-width:0.5;" width="297.5098" x="352.07" y="379.9869"/><ellipse cx="412.5134" cy="395.9869" fill="#ADD1B2" rx="11" ry="11" style="stroke:#181818;stroke-width:1;"/><path d="M415.4821,401.6275 Q414.904,401.9244 414.2634,402.065 Q413.6227,402.2213 412.9196,402.2213 Q410.4196,402.2213 409.0915,400.5806 Q407.779,398.9244 407.779,395.7994 Q407.779,392.6744 409.0915,391.0181 Q410.4196,389.3619 412.9196,389.3619 Q413.6227,389.3619 414.2634,389.5181 Q414.9196,389.6744 415.4821,389.9713 L415.4821,392.69 Q414.8571,392.1119 414.2634,391.8463 Q413.6696,391.565 413.0446,391.565 Q411.7009,391.565 411.0134,392.6431 Q410.3259,393.7056 410.3259,395.7994 Q410.3259,397.8931 411.0134,398.9713 Q411.7009,400.0338 413.0446,400.0338 Q413.6696,400.0338 414.2634,399.7681 Q414.8571,399.4869 415.4821,398.9088 L415.4821,401.6275 Z " fill="#000000"/><text fill="#000000" font-family="sans-serif" font-size="14" lengthAdjust="spacing" textLength="168.123" x="433.0134" y="400.8336">PayPalPaymentStrategy</text><line style="stroke:#181818;stroke-width:0.5;" x1="353.07" x2="648.5798" y1="411.9869" y2="411.9869"/><g data-visibility-modifier="PRIVATE_FIELD"><rect fill="none" height="6" style="stroke:#C82930;stroke-width:1;" width="6" x="360.07" y="422.6353"/></g><text fill="#000000" font-family="sans-serif" font-size="14" lengthAdjust="spacing" textLength="84.8408" x="372.07" y="428.982">String email</text><g data-visibility-modifier="PRIVATE_FIELD"><rect fill="none" height="6" style="stroke:#C82930;stroke-width:1;" width="6" x="360.07" y="438.9322"/></g><text fill="#000000" font-family="sans-serif" font-size="14" lengthAdjust="spacing" textLength="112.9434" x="372.07" y="445.2789">String password</text><line style="stroke:#181818;stroke-width:0.5;" x1="353.07" x2="648.5798" y1="452.5806" y2="452.5806"/><g data-visibility-modifier="PUBLIC_METHOD"><ellipse cx="363.07" cy="466.2291" fill="#84BE84" rx="3" ry="3" style="stroke:#038048;stroke-width:1;"/></g><text fill="#000000" font-family="sans-serif" font-size="14" lengthAdjust="spacing" textLength="271.5098" x="372.07" y="469.5757">PayPalPaymentStrategy(String, String)</text><g data-visibility-modifier="PUBLIC_METHOD"><ellipse cx="363.07" cy="482.5259" fill="#84BE84" rx="3" ry="3" style="stroke:#038048;stroke-width:1;"/></g><text fill="#000000" font-family="sans-serif" font-size="14" lengthAdjust="spacing" textLength="132.2754" x="372.07" y="485.8726">validate(): boolean</text><g data-visibility-modifier="PUBLIC_METHOD"><ellipse cx="363.07" cy="498.8228" fill="#84BE84" rx="3" ry="3" style="stroke:#038048;stroke-width:1;"/></g><text fill="#000000" font-family="sans-serif" font-size="14" lengthAdjust="spacing" textLength="179.9629" x="372.07" y="502.1695">execute(double): boolean</text><g data-visibility-modifier="PUBLIC_METHOD"><ellipse cx="363.07" cy="515.1197" fill="#84BE84" rx="3" ry="3" style="stroke:#038048;stroke-width:1;"/></g><text fill="#000000" font-family="sans-serif" font-size="14" lengthAdjust="spacing" textLength="186.1494" x="372.07" y="518.4664">getStrategyName(): String</text></g><!--class GooglePayPaymentStrategy--><g class="entity" data-qualified-name="GooglePayPaymentStrategy" data-source-line="28" id="ent0007"><rect fill="#E1FFE4" height="145.7813" rx="2.5" ry="2.5" style="stroke:#181818;stroke-width:0.5;" width="325.9678" x="684.84" y="379.9869"/><ellipse cx="745.2834" cy="395.9869" fill="#ADD1B2" rx="11" ry="11" style="stroke:#181818;stroke-width:1;"/><path d="M748.2521,401.6275 Q747.674,401.9244 747.0334,402.065 Q746.3927,402.2213 745.6896,402.2213 Q743.1896,402.2213 741.8615,400.5806 Q740.549,398.9244 740.549,395.7994 Q740.549,392.6744 741.8615,391.0181 Q743.1896,389.3619 745.6896,389.3619 Q746.3927,389.3619 747.0334,389.5181 Q747.6896,389.6744 748.2521,389.9713 L748.2521,392.69 Q747.6271,392.1119 747.0334,391.8463 Q746.4396,391.565 745.8146,391.565 Q744.4709,391.565 743.7834,392.6431 Q743.0959,393.7056 743.0959,395.7994 Q743.0959,397.8931 743.7834,398.9713 Q744.4709,400.0338 745.8146,400.0338 Q746.4396,400.0338 747.0334,399.7681 Q747.6271,399.4869 748.2521,398.9088 L748.2521,401.6275 Z " fill="#000000"/><text fill="#000000" font-family="sans-serif" font-size="14" lengthAdjust="spacing" textLength="196.5811" x="765.7834" y="400.8336">GooglePayPaymentStrategy</text><line style="stroke:#181818;stroke-width:0.5;" x1="685.84" x2="1009.8078" y1="411.9869" y2="411.9869"/><g data-visibility-modifier="PRIVATE_FIELD"><rect fill="none" height="6" style="stroke:#C82930;stroke-width:1;" width="6" x="692.84" y="422.6353"/></g><text fill="#000000" font-family="sans-serif" font-size="14" lengthAdjust="spacing" textLength="115.0215" x="704.84" y="428.982">String accountId</text><g data-visibility-modifier="PRIVATE_FIELD"><rect fill="none" height="6" style="stroke:#C82930;stroke-width:1;" width="6" x="692.84" y="438.9322"/></g><text fill="#000000" font-family="sans-serif" font-size="14" lengthAdjust="spacing" textLength="134.9277" x="704.84" y="445.2789">String deviceToken</text><line style="stroke:#181818;stroke-width:0.5;" x1="685.84" x2="1009.8078" y1="452.5806" y2="452.5806"/><g data-visibility-modifier="PUBLIC_METHOD"><ellipse cx="695.84" cy="466.2291" fill="#84BE84" rx="3" ry="3" style="stroke:#038048;stroke-width:1;"/></g><text fill="#000000" font-family="sans-serif" font-size="14" lengthAdjust="spacing" textLength="299.9678" x="704.84" y="469.5757">GooglePayPaymentStrategy(String, String)</text><g data-visibility-modifier="PUBLIC_METHOD"><ellipse cx="695.84" cy="482.5259" fill="#84BE84" rx="3" ry="3" style="stroke:#038048;stroke-width:1;"/></g><text fill="#000000" font-family="sans-serif" font-size="14" lengthAdjust="spacing" textLength="132.2754" x="704.84" y="485.8726">validate(): boolean</text><g data-visibility-modifier="PUBLIC_METHOD"><ellipse cx="695.84" cy="498.8228" fill="#84BE84" rx="3" ry="3" style="stroke:#038048;stroke-width:1;"/></g><text fill="#000000" font-family="sans-serif" font-size="14" lengthAdjust="spacing" textLength="179.9629" x="704.84" y="502.1695">execute(double): boolean</text><g data-visibility-modifier="PUBLIC_METHOD"><ellipse cx="695.84" cy="515.1197" fill="#84BE84" rx="3" ry="3" style="stroke:#038048;stroke-width:1;"/></g><text fill="#000000" font-family="sans-serif" font-size="14" lengthAdjust="spacing" textLength="186.1494" x="704.84" y="518.4664">getStrategyName(): String</text></g><!--class FlightOrderWithStrategies--><g class="entity" data-qualified-name="FlightOrderWithStrategies" data-source-line="37" id="ent0009"><rect fill="#E1FFE4" height="96.8906" rx="2.5" ry="2.5" style="stroke:#181818;stroke-width:0.5;" width="340.9248" x="460.36" y="44.2969"/><ellipse cx="535.2204" cy="60.2969" fill="#ADD1B2" rx="11" ry="11" style="stroke:#181818;stroke-width:1;"/><path d="M538.1891,65.9375 Q537.611,66.2344 536.9704,66.375 Q536.3297,66.5313 535.6266,66.5313 Q533.1266,66.5313 531.7985,64.8906 Q530.486,63.2344 530.486,60.1094 Q530.486,56.9844 531.7985,55.3281 Q533.1266,53.6719 535.6266,53.6719 Q536.3297,53.6719 536.9704,53.8281 Q537.6266,53.9844 538.1891,54.2813 L538.1891,57 Q537.5641,56.4219 536.9704,56.1563 Q536.3766,55.875 535.7516,55.875 Q534.4079,55.875 533.7204,56.9531 Q533.0329,58.0156 533.0329,60.1094 Q533.0329,62.2031 533.7204,63.2813 Q534.4079,64.3438 535.7516,64.3438 Q536.3766,64.3438 536.9704,64.0781 Q537.5641,63.7969 538.1891,63.2188 L538.1891,65.9375 Z " fill="#000000"/><text fill="#000000" font-family="sans-serif" font-size="14" lengthAdjust="spacing" textLength="182.7041" x="555.7204" y="65.1436">FlightOrderWithStrategies</text><line style="stroke:#181818;stroke-width:0.5;" x1="461.36" x2="800.2848" y1="76.2969" y2="76.2969"/><g data-visibility-modifier="PRIVATE_FIELD"><rect fill="none" height="6" style="stroke:#C82930;stroke-width:1;" width="6" x="468.36" y="86.9453"/></g><text fill="#000000" font-family="sans-serif" font-size="14" lengthAdjust="spacing" textLength="248.7051" x="480.36" y="93.292">PaymentStrategy paymentStrategy</text><line style="stroke:#181818;stroke-width:0.5;" x1="461.36" x2="800.2848" y1="100.5938" y2="100.5938"/><g data-visibility-modifier="PUBLIC_METHOD"><ellipse cx="471.36" cy="114.2422" fill="#84BE84" rx="3" ry="3" style="stroke:#038048;stroke-width:1;"/></g><text fill="#000000" font-family="sans-serif" font-size="14" lengthAdjust="spacing" textLength="314.9248" x="480.36" y="117.5889">setPaymentStrategy(PaymentStrategy): void</text><g data-visibility-modifier="PUBLIC_METHOD"><ellipse cx="471.36" cy="130.5391" fill="#84BE84" rx="3" ry="3" style="stroke:#038048;stroke-width:1;"/></g><text fill="#000000" font-family="sans-serif" font-size="14" lengthAdjust="spacing" textLength="192.0898" x="480.36" y="133.8857">processPayment(): boolean</text></g><g class="entity" data-qualified-name="GMN14" data-source-line="50" id="ent0015"><path d="M641.82,218.1869 L641.82,318.9838 A0,0 0 0 0 641.82,318.9838 L877.8215,318.9838 A0,0 0 0 0 877.8215,318.9838 L877.8215,228.1869 L867.8215,218.1869 L726.81,218.1869 L666.07,141.2469 L718.81,218.1869 L641.82,218.1869 A0,0 0 0 0 641.82,218.1869" fill="#FEFFDD" style="stroke:#181818;stroke-width:0.5;"/><path d="M867.8215,218.1869 L867.8215,228.1869 L877.8215,228.1869 L867.8215,218.1869" fill="#FEFFDD" style="stroke:#181818;stroke-width:0.5;"/><text fill="#000000" font-family="sans-serif" font-size="13" lengthAdjust="spacing" textLength="187.1733" x="647.82" y="235.2538">Isolated payment algorithms</text><text fill="#000000" font-family="sans-serif" font-size="13" lengthAdjust="spacing" textLength="114.0166" x="647.82" y="250.3866">Uniform interface</text><text fill="#000000" font-family="sans-serif" font-size="13" lengthAdjust="spacing" textLength="175.7983" x="647.82" y="265.5194">Runtime strategy selection</text><text fill="#000000" font-family="sans-serif" font-size="13" lengthAdjust="spacing" textLength="176.4775" x="647.82" y="280.6522">Easy to add new strategies</text><text fill="#000000" font-family="sans-serif" font-size="13" lengthAdjust="spacing" textLength="215.0015" x="647.82" y="295.785">Single responsibility per strategy</text><text fill="#000000" font-family="sans-serif" font-size="13" lengthAdjust="spacing" textLength="129.2764" x="647.82" y="310.9178">No code duplication</text></g><!--reverse link PaymentStrategy to CreditCardPaymentStrategy--><g class="link" data-entity-1="ent0002" data-entity-2="ent0003" data-link-type="extension" data-source-line="12" id="lnk4"><path d="M384.4009,325.7636 C343.0009,347.2336 311.03,364.5769 268.97,387.6769" fill="none" id="PaymentStrategy-backto-CreditCardPaymentStrategy" style="stroke:#181818;stroke-width:1;stroke-dasharray:7,7;"/><polygon fill="none" points="400.38,317.4769,381.6387,320.4372,387.1632,331.0899,400.38,317.4769" style="stroke:#181818;stroke-width:1;"/></g><!--link CreditCardPaymentStrategy to PaymentStrategy--><g class="link" data-entity-1="ent0003" data-entity-2="ent0002" data-link-type="extension" data-source-line="43" id="lnk10"><path codeLine="43" d="M294.17,387.6769 C338.07,364.5769 369.7329,347.7381 408.0929,326.2681" fill="none" id="CreditCardPaymentStrategy-to-PaymentStrategy" style="stroke:#181818;stroke-width:1;"/><polygon fill="none" points="423.8,317.4769,405.1625,321.0324,411.0233,331.5038,423.8,317.4769" style="stroke:#181818;stroke-width:1;"/></g><!--reverse link PaymentStrategy to PayPalPaymentStrategy--><g class="link" data-entity-1="ent0002" data-entity-2="ent0005" data-link-type="extension" data-source-line="20" id="lnk6"><path d="M488.2106,335.4348 C486.9106,354.4248 487.77,358.7169 488.32,379.5869" fill="none" id="PaymentStrategy-backto-PayPalPaymentStrategy" style="stroke:#181818;stroke-width:1;stroke-dasharray:7,7;"/><polygon fill="none" points="489.44,317.4769,482.2247,335.0251,494.1966,335.8446,489.44,317.4769" style="stroke:#181818;stroke-width:1;"/></g><!--link PayPalPaymentStrategy to PaymentStrategy--><g class="link" data-entity-1="ent0005" data-entity-2="ent0002" data-link-type="extension" data-source-line="44" id="lnk11"><path codeLine="44" d="M514.06,379.5869 C514.64,358.7169 515.5546,354.4195 514.1746,335.4295" fill="none" id="PayPalPaymentStrategy-to-PaymentStrategy" style="stroke:#181818;stroke-width:1;"/><polygon fill="none" points="512.87,317.4769,508.1904,335.8644,520.1588,334.9947,512.87,317.4769" style="stroke:#181818;stroke-width:1;"/></g><!--reverse link PaymentStrategy to GooglePayPaymentStrategy--><g class="link" data-entity-1="ent0002" data-entity-2="ent0007" data-link-type="extension" data-source-line="29" id="lnk8"><path d="M596.4158,326.0895 C631.2658,345.0795 657.43,358.7169 697.71,379.5869" fill="none" id="PaymentStrategy-backto-GooglePayPaymentStrategy" style="stroke:#181818;stroke-width:1;stroke-dasharray:7,7;"/><polygon fill="none" points="580.61,317.4769,593.5449,331.3581,599.2866,320.821,580.61,317.4769" style="stroke:#181818;stroke-width:1;"/></g><!--link GooglePayPaymentStrategy to PaymentStrategy--><g class="link" data-entity-1="ent0007" data-entity-2="ent0002" data-link-type="extension" data-source-line="45" id="lnk12"><path codeLine="45" d="M723.45,379.5869 C684.31,358.7169 657.6201,344.5954 620.1001,325.6054" fill="none" id="GooglePayPaymentStrategy-to-PaymentStrategy" style="stroke:#181818;stroke-width:1;"/><polygon fill="none" points="604.04,317.4769,617.3906,330.9588,622.8096,320.252,604.04,317.4769" style="stroke:#181818;stroke-width:1;"/></g><!--link FlightOrderWithStrategies to PaymentStrategy--><g class="link" data-entity-1="ent0009" data-entity-2="ent0002" data-link-type="dependency" data-source-line="47" id="lnk13"><path codeLine="47" d="M595.3,141.2469 C577.03,165.6769 558.4131,190.5717 540.1231,215.0317" fill="none" id="FlightOrderWithStrategies-to-PaymentStrategy" style="stroke:#181818;stroke-width:1;"/><polygon fill="#181818" points="536.53,219.8369,545.1231,215.0245,539.5242,215.8326,538.7162,210.2337,536.53,219.8369" style="stroke:#181818;stroke-width:1;"/><text fill="#000000" font-family="sans-serif" font-size="13" lengthAdjust="spacing" textLength="29.7832" x="570.82" y="184.2538">uses</text></g><?plantuml-src nLInRjim4Dtv5GTqiT5g290fGu7Ma88iIP2aw4oJP-LWYYUGb1CZxR_tP4kgBLjBXaHQT7UFxztZaKgK7C9Z2ZfXkOLxdH863ndyA9xo1vZzflHyKfwhk2PVww0hM6gpBWCttYxOSO0lHTw-1mZZT8m_nx3yeYZoIwN82-DA6nJoROK-3M9l2kJv2Xljo4fgDh-29RD3xRiAlg9ff62vMJeyAPSuaDtgQhTUOlAb-glKhYjO1BIK5ZhOiJfLjSCs4oSQomuMWna-E-r9ujd_olm338hwlNRlCBSd0gmqkUDKBRmlF3Wzgp3ROxzrQpx2wJLpwN3NpNlDQcFaXAORUvosk263Jxp6lfqfhK-mNJWgdzDTi1ZQkzh12UDWRcowFeuxgOXfR6OKY_Y6gHzx7TXWZ1tcq9cqDdsjikpFzt57wlmXFGkTdF9Pj9hUdImxWLz14p4gvJcXk4c9A-3Lz0xBJjn4TXBPVbD1kvA3eAgs-ilJYaC5mpzESWzomAX2Y7tZ4HsQHDpEFDTn2ub1MmiUNthGNkjHvYx_we2nPXzfIOwIJ1F3m2MWMmR35i4sjIEZTxpeXKqy_GC0?></g></svg>